<svg width="32" height="32" viewBox="0 0 32 32" fill="none" xmlns="http://www.w3.org/2000/svg">
<path d="M2.66666 16.0001C2.66666 12.4639 4.07141 9.07248 6.5719 6.57199C9.07238 4.07151 12.4638 2.66675 16 2.66675C19.5362 2.66675 22.9276 4.07151 25.4281 6.57199C27.9286 9.07248 29.3333 12.4639 29.3333 16.0001C29.3333 19.5363 27.9286 22.9277 25.4281 25.4282C22.9276 27.9287 19.5362 29.3334 16 29.3334C12.4638 29.3334 9.07238 27.9287 6.5719 25.4282C4.07141 22.9277 2.66666 19.5363 2.66666 16.0001ZM16 5.16675C13.1268 5.16675 10.3713 6.30811 8.33967 8.33976C6.30802 10.3714 5.16666 13.1269 5.16666 16.0001C5.16666 18.8733 6.30802 21.6288 8.33967 23.6604C10.3713 25.6921 13.1268 26.8334 16 26.8334C18.8732 26.8334 21.6287 25.6921 23.6603 23.6604C25.692 21.6288 26.8333 18.8733 26.8333 16.0001C26.8333 13.1269 25.692 10.3714 23.6603 8.33976C21.6287 6.30811 18.8732 5.16675 16 5.16675ZM13.5 15.5834C13.5 15.2519 13.6317 14.934 13.8661 14.6995C14.1005 14.4651 14.4185 14.3334 14.75 14.3334H16.4167C16.7482 14.3334 17.0661 14.4651 17.3005 14.6995C17.535 14.934 17.6667 15.2519 17.6667 15.5834V20.1667H18.0833C18.4148 20.1667 18.7328 20.2984 18.9672 20.5329C19.2016 20.7673 19.3333 21.0852 19.3333 21.4167C19.3333 21.7483 19.2016 22.0662 18.9672 22.3006C18.7328 22.5351 18.4148 22.6667 18.0833 22.6667H14.75C14.4185 22.6667 14.1005 22.5351 13.8661 22.3006C13.6317 22.0662 13.5 21.7483 13.5 21.4167C13.5 21.0852 13.6317 20.7673 13.8661 20.5329C14.1005 20.2984 14.4185 20.1667 14.75 20.1667H15.1667V16.8334H14.75C14.4185 16.8334 14.1005 16.7017 13.8661 16.4673C13.6317 16.2329 13.5 15.9149 13.5 15.5834ZM16 12.6667C15.558 12.6667 15.134 12.4912 14.8215 12.1786C14.5089 11.866 14.3333 11.4421 14.3333 11.0001C14.3333 10.5581 14.5089 10.1341 14.8215 9.82157C15.134 9.50901 15.558 9.33342 16 9.33342C16.442 9.33342 16.8659 9.50901 17.1785 9.82157C17.4911 10.1341 17.6667 10.5581 17.6667 11.0001C17.6667 11.4421 17.4911 11.866 17.1785 12.1786C16.8659 12.4912 16.442 12.6667 16 12.6667Z" fill="#F7F2FF"/>
</svg>
