<svg xmlns="http://www.w3.org/2000/svg" width="115" height="46" fill="none"><path fill="#F0F" d="M15.693 8.68c0 1.253-.173 2.416-.516 3.487-.344 1.069-.934 1.947-1.772 2.634l2.288 6.429h-3.947l-1.804-5.072c-.402.05-.83.075-1.282.075H3.765v4.997H0V1.144h8.66c1.705 0 3.073.34 4.104 1.018a5.807 5.807 0 0 1 2.238 2.728c.46 1.136.69 2.399.69 3.79ZM3.765 12.468H8.66c1.29 0 2.143-.267 2.558-.804.468-.57.704-1.565.704-2.986 0-1.357-.244-2.345-.729-2.966a2.242 2.242 0 0 0-.327-.302c-.163-.133-.418-.254-.76-.364-.344-.109-.827-.164-1.446-.164H3.765v7.586ZM28.595.893c1.42 0 2.75.268 3.99.804a10.395 10.395 0 0 1 3.262 2.212 10.397 10.397 0 0 1 2.212 3.262c.536 1.236.805 2.567.805 3.99 0 1.426-.269 2.758-.805 3.998a10.468 10.468 0 0 1-2.212 3.261 10.405 10.405 0 0 1-3.262 2.206c-1.24.538-2.57.805-3.99.805-1.425 0-2.758-.267-3.997-.805a10.477 10.477 0 0 1-3.262-2.206 10.472 10.472 0 0 1-2.206-3.261c-.537-1.24-.805-2.572-.805-3.997 0-1.424.268-2.755.805-3.991a10.4 10.4 0 0 1 2.206-3.262 10.467 10.467 0 0 1 3.262-2.212c1.24-.536 2.572-.804 3.997-.804Zm0 3.84c-1.174 0-2.217.289-3.13.867a6.122 6.122 0 0 0-2.143 2.325c-.52.968-.78 2.047-.78 3.237 0 1.173.26 2.25.78 3.23a6.095 6.095 0 0 0 2.143 2.332c.913.578 1.956.867 3.13.867 1.184 0 2.234-.29 3.148-.867a6.098 6.098 0 0 0 2.15-2.332c.518-.98.779-2.057.779-3.23 0-1.19-.261-2.269-.78-3.237A6.125 6.125 0 0 0 31.743 5.6c-.914-.578-1.964-.867-3.148-.867ZM56.21 15.63l2.835 2.815a10.482 10.482 0 0 1-3.268 2.194 9.941 9.941 0 0 1-4.01.817c-1.424 0-2.757-.267-3.996-.805a10.413 10.413 0 0 1-5.474-5.468c-.533-1.239-.798-2.571-.798-3.996 0-1.424.265-2.755.798-3.991a10.466 10.466 0 0 1 5.474-5.474c1.24-.536 2.572-.805 3.997-.805 1.42 0 2.755.27 4.01.805a10.15 10.15 0 0 1 3.267 2.206l-2.834 2.815a5.474 5.474 0 0 0-1.923-1.458c-.764-.352-1.603-.528-2.52-.528-1.174 0-2.217.29-3.13.868a6.1 6.1 0 0 0-2.15 2.325c-.515.968-.773 2.047-.773 3.237 0 1.173.258 2.25.774 3.23a6.073 6.073 0 0 0 2.149 2.332c.913.578 1.956.867 3.13.867.917 0 1.756-.176 2.52-.528a5.455 5.455 0 0 0 1.923-1.458ZM73.754 21.23l-4.946-7.41-2.482 3.444v3.966h-3.764V1.144h3.764v10.194l7.403-10.194h4.299l-6.907 9.54 7.133 10.546h-4.5ZM93.412 4.858h-7.88v4.418h4.694v3.746H85.53v4.468h7.881v3.74H81.767V1.119h11.645v3.739ZM112.02 1.144v3.74h-5.675V21.23h-3.74V4.883H96.93V1.144h15.09Z"/><path fill="#0FF" d="M17.715 9.259c0 1.254-.173 2.416-.516 3.488-.344 1.068-.935 1.947-1.772 2.633l2.288 6.43h-3.947l-1.804-5.072c-.402.05-.83.075-1.282.075H5.786v4.996H2.022V1.724h8.66c1.705 0 3.073.339 4.104 1.018a5.806 5.806 0 0 1 2.237 2.727c.46 1.136.692 2.4.692 3.79Zm-11.929 3.79h4.896c1.29 0 2.143-.268 2.558-.805.468-.569.704-1.565.704-2.985 0-1.358-.244-2.346-.73-2.966a2.242 2.242 0 0 0-.326-.302c-.163-.134-.418-.255-.76-.365-.345-.108-.827-.163-1.446-.163H5.786v7.586ZM30.616 1.472c1.42 0 2.75.269 3.991.805a10.395 10.395 0 0 1 3.262 2.212A10.393 10.393 0 0 1 40.08 7.75c.536 1.236.804 2.567.804 3.99 0 1.425-.268 2.758-.804 3.997A10.466 10.466 0 0 1 37.869 19a10.405 10.405 0 0 1-3.262 2.206c-1.241.537-2.57.804-3.99.804-1.426 0-2.758-.267-3.998-.804A10.476 10.476 0 0 1 23.358 19a10.477 10.477 0 0 1-2.206-3.262c-.538-1.24-.805-2.572-.805-3.997 0-1.423.267-2.754.805-3.99a10.404 10.404 0 0 1 2.206-3.262 10.466 10.466 0 0 1 3.261-2.212c1.24-.536 2.572-.805 3.997-.805Zm0 3.84c-1.173 0-2.217.29-3.13.867a6.122 6.122 0 0 0-2.143 2.326c-.52.968-.779 2.047-.779 3.236 0 1.174.26 2.25.78 3.23a6.094 6.094 0 0 0 2.142 2.332c.913.578 1.957.867 3.13.867 1.185 0 2.234-.289 3.149-.867a6.098 6.098 0 0 0 2.15-2.331c.518-.98.779-2.057.779-3.23 0-1.19-.261-2.27-.78-3.237a6.125 6.125 0 0 0-2.15-2.326c-.914-.578-1.963-.867-3.148-.867ZM58.233 16.21l2.834 2.816a10.48 10.48 0 0 1-3.268 2.193 9.941 9.941 0 0 1-4.01.817c-1.425 0-2.757-.267-3.997-.805a10.415 10.415 0 0 1-5.474-5.468c-.532-1.239-.798-2.571-.798-3.996 0-1.424.266-2.755.798-3.991a10.467 10.467 0 0 1 5.474-5.474c1.24-.536 2.572-.804 3.997-.804 1.42 0 2.756.268 4.01.804a10.148 10.148 0 0 1 3.268 2.206l-2.834 2.815a5.475 5.475 0 0 0-1.924-1.458c-.763-.352-1.602-.528-2.52-.528-1.173 0-2.217.29-3.13.868A6.1 6.1 0 0 0 48.51 8.53c-.515.968-.773 2.047-.773 3.237 0 1.173.258 2.25.773 3.23a6.073 6.073 0 0 0 2.15 2.332c.912.578 1.956.867 3.13.867.917 0 1.756-.176 2.52-.528a5.456 5.456 0 0 0 1.922-1.458ZM75.776 21.81 70.83 14.4l-2.482 3.444v3.965h-3.765V1.724h3.765v10.193L75.75 1.724h4.299l-6.907 9.54 7.133 10.545h-4.5ZM95.434 5.438h-7.881v4.418h4.695v3.746h-4.695v4.468h7.88v3.74H83.789V1.699h11.646v3.74ZM114.041 1.724v3.739h-5.675v16.346h-3.739V5.463h-5.675v-3.74h15.089Z"/><path fill="#00FF6D" d="M16.703 8.969c0 1.254-.172 2.416-.515 3.488-.344 1.068-.935 1.947-1.772 2.633l2.287 6.43h-3.946l-1.804-5.072c-.402.05-.83.075-1.282.075H4.775v4.996H1.011V1.434h8.66c1.705 0 3.073.339 4.104 1.018a5.806 5.806 0 0 1 2.237 2.727c.46 1.136.691 2.4.691 3.79Zm-11.928 3.79h4.896c1.29 0 2.143-.268 2.558-.805.468-.569.704-1.565.704-2.985 0-1.358-.244-2.346-.73-2.966a2.236 2.236 0 0 0-.326-.302c-.164-.134-.418-.255-.76-.365-.345-.108-.827-.163-1.446-.163H4.775v7.585ZM29.606 1.182c1.42 0 2.75.269 3.99.805a10.393 10.393 0 0 1 3.262 2.212A10.393 10.393 0 0 1 39.07 7.46c.536 1.237.805 2.568.805 3.991 0 1.425-.269 2.758-.805 3.997a10.464 10.464 0 0 1-2.212 3.262 10.402 10.402 0 0 1-3.262 2.206c-1.24.537-2.57.804-3.99.804-1.426 0-2.758-.267-3.998-.804a10.475 10.475 0 0 1-3.261-2.206 10.472 10.472 0 0 1-2.206-3.262c-.537-1.24-.805-2.572-.805-3.997 0-1.423.268-2.754.805-3.99a10.4 10.4 0 0 1 2.206-3.262 10.467 10.467 0 0 1 3.261-2.212c1.24-.536 2.572-.805 3.998-.805Zm0 3.84c-1.174 0-2.217.29-3.13.867a6.122 6.122 0 0 0-2.143 2.326c-.52.967-.78 2.047-.78 3.236 0 1.174.26 2.25.78 3.23a6.095 6.095 0 0 0 2.143 2.332c.913.578 1.956.867 3.13.867 1.184 0 2.234-.289 3.148-.867a6.098 6.098 0 0 0 2.15-2.331c.518-.98.779-2.057.779-3.23 0-1.19-.261-2.27-.78-3.237a6.125 6.125 0 0 0-2.149-2.326c-.914-.578-1.964-.867-3.148-.867ZM57.222 15.92l2.834 2.815a10.48 10.48 0 0 1-3.268 2.194 9.941 9.941 0 0 1-4.01.817c-1.425 0-2.757-.267-3.997-.805a10.413 10.413 0 0 1-5.474-5.468c-.532-1.239-.798-2.571-.798-3.996 0-1.424.266-2.755.798-3.991a10.466 10.466 0 0 1 5.474-5.474c1.24-.536 2.572-.804 3.997-.804 1.42 0 2.756.268 4.01.804a10.15 10.15 0 0 1 3.268 2.206l-2.834 2.815a5.474 5.474 0 0 0-1.923-1.458c-.764-.352-1.603-.528-2.52-.528-1.174 0-2.217.29-3.13.868a6.1 6.1 0 0 0-2.15 2.325c-.515.968-.773 2.047-.773 3.237 0 1.173.258 2.25.773 3.23a6.074 6.074 0 0 0 2.15 2.332c.913.578 1.956.867 3.13.867.917 0 1.756-.176 2.52-.528a5.455 5.455 0 0 0 1.923-1.458ZM74.765 21.52l-4.946-7.41-2.482 3.444v3.965h-3.765V1.434h3.765v10.193L74.74 1.434h4.299l-6.907 9.54 7.133 10.545h-4.5ZM94.423 5.148h-7.88v4.418h4.694v3.746h-4.695v4.468h7.881v3.74H82.778V1.409h11.645v3.74ZM113.03 1.434v3.739h-5.675v16.346h-3.739V5.173h-5.675v-3.74h15.089Z"/><path fill="#F0F" d="m28.14 39.575 2.055 2.03a7.538 7.538 0 0 1-2.364 1.59 7.22 7.22 0 0 1-2.903.591 7.22 7.22 0 0 1-2.89-.578 7.641 7.641 0 0 1-2.358-1.596 7.577 7.577 0 0 1-1.602-2.363 7.22 7.22 0 0 1-.578-2.891c0-1.026.191-1.988.578-2.885a7.531 7.531 0 0 1 1.602-2.357 7.535 7.535 0 0 1 2.357-1.596 7.171 7.171 0 0 1 2.891-.584c1.026 0 1.994.194 2.903.584a7.307 7.307 0 0 1 2.364 1.59l-2.055 2.036a3.866 3.866 0 0 0-1.39-1.05 4.284 4.284 0 0 0-1.822-.383c-.847 0-1.601.21-2.262.629a4.4 4.4 0 0 0-1.553 1.678c-.374.7-.56 1.48-.56 2.338 0 .851.186 1.63.56 2.338a4.423 4.423 0 0 0 1.553 1.69c.661.415 1.415.622 2.262.622.666 0 1.273-.125 1.823-.377a3.9 3.9 0 0 0 1.389-1.056ZM41.3 43.623l-1.074-3.614H36.65l-1.068 3.614h-2.854l4.287-14.524h2.853v.037l4.267 14.487h-2.834Zm-3.852-6.317h1.98l-.98-3.38-1 3.38ZM52.696 43.805c-.29 0-.7-.032-1.232-.095a8.037 8.037 0 0 1-1.716-.402 5.85 5.85 0 0 1-1.753-.993 7.17 7.17 0 0 1-1.326-1.452l2.218-1.508c.121.173.245.332.371.478.126.143.267.275.427.396.302.251.637.438 1.006.559a6.13 6.13 0 0 0 1.88.327H52.99c.75 0 1.33-.164 1.741-.49.41-.327.629-.682.654-1.069.025-.422-.198-.845-.667-1.27-.465-.422-1.23-.706-2.293-.854-1.597-.171-2.87-.693-3.815-1.565a4.383 4.383 0 0 1-1.062-1.477 3.496 3.496 0 0 1-.277-1.697c.058-.666.305-1.297.742-1.898.435-.598 1.078-1.076 1.93-1.433.854-.36 1.924-.502 3.21-.427.579 0 1.154.074 1.729.22.578.143 1.114.33 1.609.56.498.23.917.474 1.257.728l-1.565 2.175a4.097 4.097 0 0 0-.849-.478 7.795 7.795 0 0 0-1.1-.383 4.313 4.313 0 0 0-1.118-.157h-.057c-.993-.046-1.756.072-2.287.352-.533.276-.811.595-.836.955-.025.34.097.641.37.905.273.26.626.471 1.063.635.435.163.883.275 1.345.333h.037c1.282.16 2.323.5 3.124 1.018.8.52 1.373 1.131 1.722 1.835.352.7.504 1.401.459 2.105-.038.667-.261 1.312-.666 1.936-.407.62-.978 1.128-1.71 1.521-.729.394-1.615.597-2.658.61h-.327ZM63.318 43.566V29.099h-2.727v14.467h2.727ZM74.484 29.099h2.72v14.524h-3.393l-5.229-9.094v9.093h-2.727V29.1h2.979l5.65 9.804v-9.804ZM86.534 28.916c1.026 0 1.988.195 2.885.585a7.46 7.46 0 0 1 2.357 1.596 7.46 7.46 0 0 1 1.596 2.357c.39.897.585 1.86.585 2.891a7.15 7.15 0 0 1-.585 2.885 7.506 7.506 0 0 1-3.953 3.959 7.211 7.211 0 0 1-2.885.578 7.22 7.22 0 0 1-2.89-.578 7.643 7.643 0 0 1-2.357-1.596 7.58 7.58 0 0 1-1.603-2.363 7.2 7.2 0 0 1-.578-2.885c0-1.03.192-1.994.578-2.891a7.534 7.534 0 0 1 1.603-2.357 7.533 7.533 0 0 1 2.356-1.596 7.169 7.169 0 0 1 2.891-.585Zm0 2.778c-.851 0-1.605.21-2.262.629A4.4 4.4 0 0 0 82.72 34c-.377.7-.566 1.481-.566 2.344 0 .847.189 1.625.566 2.332a4.424 4.424 0 0 0 1.552 1.69c.657.415 1.41.622 2.262.622.858 0 1.617-.207 2.275-.622a4.377 4.377 0 0 0 1.553-1.69 4.878 4.878 0 0 0 .565-2.332c0-.863-.188-1.643-.565-2.344a4.353 4.353 0 0 0-1.552-1.678c-.659-.418-1.418-.629-2.276-.629Z"/><path fill="#0FF" d="m28.538 40.877 2.055 2.03a7.54 7.54 0 0 1-2.363 1.59 7.22 7.22 0 0 1-2.904.59 7.22 7.22 0 0 1-2.89-.577 7.641 7.641 0 0 1-2.358-1.596 7.576 7.576 0 0 1-1.602-2.364 7.22 7.22 0 0 1-.578-2.89c0-1.026.191-1.988.578-2.885a7.53 7.53 0 0 1 1.602-2.357 7.531 7.531 0 0 1 2.357-1.596 7.17 7.17 0 0 1 2.891-.585c1.026 0 1.994.195 2.904.585a7.307 7.307 0 0 1 2.363 1.59l-2.055 2.036a3.866 3.866 0 0 0-1.39-1.05 4.284 4.284 0 0 0-1.822-.383c-.847 0-1.601.21-2.262.629a4.4 4.4 0 0 0-1.553 1.678c-.374.7-.56 1.48-.56 2.337 0 .852.186 1.631.56 2.338a4.424 4.424 0 0 0 1.553 1.69c.661.416 1.415.623 2.262.623a4.33 4.33 0 0 0 1.823-.377 3.9 3.9 0 0 0 1.389-1.056ZM41.699 44.925l-1.075-3.614h-3.576l-1.068 3.614h-2.853L37.413 30.4h2.853v.038l4.267 14.486H41.7Zm-3.852-6.316h1.98l-.981-3.382-1 3.382ZM53.094 45.107c-.29 0-.7-.032-1.232-.094a8.032 8.032 0 0 1-1.716-.403 5.85 5.85 0 0 1-1.753-.993 7.172 7.172 0 0 1-1.326-1.451l2.218-1.509c.121.173.246.332.371.478.126.143.267.275.428.396.301.251.636.438 1.005.56a6.116 6.116 0 0 0 1.88.327l.326-.001h.094c.75 0 1.33-.163 1.741-.49.41-.327.629-.682.654-1.069.025-.422-.198-.845-.666-1.27-.465-.422-1.23-.706-2.294-.854-1.597-.171-2.87-.693-3.815-1.565a4.38 4.38 0 0 1-1.062-1.477 3.495 3.495 0 0 1-.277-1.697c.058-.666.305-1.297.742-1.897.435-.599 1.078-1.077 1.93-1.433.854-.36 1.924-.503 3.21-.428.579 0 1.154.074 1.729.22.578.143 1.114.33 1.609.56.498.23.917.474 1.257.729l-1.565 2.174a4.099 4.099 0 0 0-.849-.477 7.812 7.812 0 0 0-1.1-.384 4.313 4.313 0 0 0-1.118-.157h-.056c-.994-.046-1.757.072-2.288.352-.533.277-.81.595-.836.955-.025.34.097.641.37.905.273.261.626.472 1.063.635a5.91 5.91 0 0 0 1.345.333h.038c1.282.16 2.322.5 3.123 1.018.8.52 1.373 1.131 1.722 1.835.352.701.504 1.402.459 2.106-.038.666-.261 1.312-.666 1.935-.407.62-.978 1.128-1.71 1.521-.729.395-1.615.597-2.658.61h-.327ZM63.717 44.868V30.401h-2.728v14.467h2.728ZM74.882 30.4h2.721v14.525H74.21l-5.228-9.094v9.094h-2.728V30.4h2.979l5.65 9.804V30.4ZM86.933 30.219c1.026 0 1.987.195 2.884.584a7.463 7.463 0 0 1 2.357 1.597 7.46 7.46 0 0 1 1.596 2.356c.39.897.585 1.86.585 2.891a7.15 7.15 0 0 1-.585 2.885 7.505 7.505 0 0 1-3.953 3.96 7.212 7.212 0 0 1-2.884.577 7.22 7.22 0 0 1-2.891-.578 7.641 7.641 0 0 1-2.357-1.596 7.579 7.579 0 0 1-1.603-2.363 7.2 7.2 0 0 1-.578-2.885c0-1.03.192-1.994.578-2.89a7.533 7.533 0 0 1 1.603-2.357 7.535 7.535 0 0 1 2.357-1.597 7.17 7.17 0 0 1 2.89-.584Zm0 2.778c-.852 0-1.606.21-2.263.628a4.4 4.4 0 0 0-1.552 1.678c-.377.7-.566 1.482-.566 2.344 0 .847.189 1.625.566 2.332a4.425 4.425 0 0 0 1.552 1.69c.657.415 1.411.623 2.263.623.857 0 1.616-.208 2.275-.623a4.377 4.377 0 0 0 1.552-1.69 4.877 4.877 0 0 0 .566-2.332c0-.862-.189-1.643-.566-2.344a4.353 4.353 0 0 0-1.552-1.678c-.659-.418-1.418-.628-2.275-.628Z"/><path fill="#fff" d="m28.338 40.226 2.056 2.03a7.539 7.539 0 0 1-2.363 1.59 7.22 7.22 0 0 1-2.904.591 7.22 7.22 0 0 1-2.89-.578 7.641 7.641 0 0 1-2.358-1.596 7.576 7.576 0 0 1-1.602-2.363 7.22 7.22 0 0 1-.578-2.891c0-1.026.191-1.988.578-2.885a7.53 7.53 0 0 1 1.602-2.357 7.533 7.533 0 0 1 2.357-1.596 7.171 7.171 0 0 1 2.891-.585c1.026 0 1.994.195 2.904.585a7.307 7.307 0 0 1 2.363 1.59l-2.055 2.036a3.866 3.866 0 0 0-1.39-1.05 4.284 4.284 0 0 0-1.822-.383c-.847 0-1.6.21-2.262.629a4.4 4.4 0 0 0-1.553 1.678c-.374.7-.559 1.48-.559 2.338 0 .851.185 1.63.56 2.337a4.425 4.425 0 0 0 1.552 1.691c.661.415 1.415.622 2.262.622.666 0 1.273-.125 1.823-.377a3.9 3.9 0 0 0 1.389-1.056ZM41.5 44.274l-1.075-3.614H36.85l-1.068 3.614h-2.853l4.286-14.524h2.853v.038l4.267 14.486H41.5Zm-3.852-6.316h1.98l-.981-3.381-1 3.38ZM52.895 44.456c-.29 0-.7-.032-1.232-.094a8.033 8.033 0 0 1-1.716-.403 5.85 5.85 0 0 1-1.753-.992 7.17 7.17 0 0 1-1.326-1.452l2.218-1.509c.121.173.245.332.371.478.126.143.267.275.428.396.301.251.636.438 1.005.56a6.13 6.13 0 0 0 1.88.327H53.19c.75 0 1.33-.164 1.741-.491.41-.327.629-.682.654-1.069.025-.422-.198-.845-.666-1.269-.465-.423-1.23-.707-2.294-.855-1.597-.171-2.87-.693-3.815-1.565a4.38 4.38 0 0 1-1.062-1.477 3.496 3.496 0 0 1-.277-1.696c.058-.666.305-1.298.742-1.898.435-.599 1.078-1.077 1.93-1.433.854-.36 1.924-.503 3.21-.428a6.99 6.99 0 0 1 1.729.22 8.89 8.89 0 0 1 1.609.56c.498.23.917.474 1.257.729l-1.565 2.174a4.099 4.099 0 0 0-.849-.477 7.81 7.81 0 0 0-1.1-.384 4.312 4.312 0 0 0-1.118-.157h-.057c-.993-.045-1.756.072-2.287.352-.533.277-.81.596-.836.955-.025.34.097.641.37.905.273.261.626.472 1.063.635.435.163.883.275 1.345.333h.038c1.282.16 2.322.5 3.123 1.018.8.52 1.373 1.132 1.722 1.835.352.701.504 1.402.459 2.106-.038.666-.261 1.312-.666 1.935-.407.621-.978 1.128-1.71 1.521-.729.395-1.615.597-2.658.61h-.327ZM63.518 44.217V29.75H60.79v14.467h2.728ZM74.683 29.75h2.721v14.524H74.01l-5.228-9.094v9.094h-2.728V29.75h2.979l5.65 9.804V29.75ZM86.733 29.567c1.026 0 1.988.195 2.885.585a7.46 7.46 0 0 1 2.357 1.596 7.461 7.461 0 0 1 1.596 2.357c.39.897.585 1.86.585 2.89a7.15 7.15 0 0 1-.585 2.886 7.507 7.507 0 0 1-3.953 3.959 7.212 7.212 0 0 1-2.885.578 7.22 7.22 0 0 1-2.89-.578 7.64 7.64 0 0 1-2.357-1.597 7.579 7.579 0 0 1-1.603-2.363 7.2 7.2 0 0 1-.578-2.884c0-1.03.192-1.994.578-2.891a7.533 7.533 0 0 1 1.603-2.357 7.532 7.532 0 0 1 2.356-1.596 7.169 7.169 0 0 1 2.891-.585Zm0 2.778c-.851 0-1.605.21-2.262.629a4.4 4.4 0 0 0-1.552 1.678c-.377.7-.566 1.481-.566 2.344 0 .847.189 1.624.566 2.331a4.425 4.425 0 0 0 1.552 1.691c.657.415 1.41.622 2.262.622.858 0 1.617-.207 2.275-.622a4.377 4.377 0 0 0 1.553-1.69 4.88 4.88 0 0 0 .565-2.332c0-.863-.188-1.644-.565-2.344a4.352 4.352 0 0 0-1.553-1.678c-.658-.418-1.417-.629-2.275-.629Z"/></svg>