<svg width="110" height="40" viewBox="0 0 110 40" fill="none" xmlns="http://www.w3.org/2000/svg">
<path d="M109.572 5.42287V20.7865C109.572 24.1413 107.996 25.8187 104.845 25.8187H99.7741C96.6226 25.8187 95.0469 24.1413 95.0469 20.7865V5.42287C95.0469 2.06804 96.6226 0.390625 99.7741 0.390625H104.845C107.996 0.390625 109.572 2.06804 109.572 5.42287ZM104.235 21.3964V4.77477C104.235 4.57145 104.158 4.39354 104.006 4.24105C103.879 4.08856 103.714 4.01231 103.51 4.01231H101.108C100.905 4.01231 100.727 4.08856 100.575 4.24105C100.448 4.39354 100.384 4.57145 100.384 4.77477V21.3964C100.384 21.5998 100.448 21.7777 100.575 21.9302C100.727 22.0826 100.905 22.1589 101.108 22.1589H103.51C103.714 22.1589 103.879 22.0826 104.006 21.9302C104.158 21.7777 104.235 21.5998 104.235 21.3964Z" fill="url(#paint0_linear_1124_24960)"/>
<path d="M84.2053 15.6398V11.7132H91.258V20.7865C91.258 24.1413 89.6823 25.8187 86.5308 25.8187H81.7273C78.5758 25.8187 77 24.1413 77 20.7865V5.42287C77 2.06804 78.5758 0.390625 81.7273 0.390625H86.5308C89.6823 0.390625 91.258 2.06804 91.258 5.42287V7.74837H86.1877V4.77477C86.1877 4.57145 86.1114 4.39354 85.9589 4.24105C85.8318 4.08856 85.6666 4.01231 85.4633 4.01231H83.0616C82.8582 4.01231 82.6803 4.08856 82.5278 4.24105C82.4008 4.39354 82.3372 4.57145 82.3372 4.77477V21.3964C82.3372 21.5998 82.4008 21.7777 82.5278 21.9302C82.6803 22.0826 82.8582 22.1589 83.0616 22.1589H85.4633C85.6666 22.1589 85.8318 22.0826 85.9589 21.9302C86.1114 21.7777 86.1877 21.5998 86.1877 21.3964V15.6398H84.2053Z" fill="url(#paint1_linear_1124_24960)"/>
<path d="M71.0021 25.4375H65.6649V4.96539C65.6649 4.76207 65.5886 4.58416 65.4361 4.43167C65.309 4.27918 65.1438 4.20293 64.9405 4.20293H62.8819C62.6786 4.20293 62.5006 4.27918 62.3482 4.43167C62.2211 4.58416 62.1575 4.76207 62.1575 4.96539V25.4375H56.8203V5.42287C56.8203 2.06804 58.3961 0.390625 61.5476 0.390625H66.2748C69.4263 0.390625 71.0021 2.06804 71.0021 5.42287V25.4375Z" fill="url(#paint2_linear_1124_24960)"/>
<path d="M47.3054 0.390625C50.4569 0.390625 52.0327 2.06804 52.0327 5.42287V25.4375H46.6955V17.1648H42.845V25.4375H37.5078V5.42287C37.5078 2.06804 39.0836 0.390625 42.2351 0.390625H47.3054ZM42.845 13.0475H46.6955V4.77477C46.6955 4.57145 46.6192 4.39354 46.4667 4.24105C46.3397 4.08856 46.1745 4.01231 45.9711 4.01231H43.5694C43.3661 4.01231 43.1881 4.08856 43.0357 4.24105C42.9086 4.39354 42.845 4.57145 42.845 4.77477V13.0475Z" fill="url(#paint3_linear_1124_24960)"/>
<path d="M24.3529 15.3345V25.4371H19.0156V0.771484H28.5083C31.6598 0.771484 33.2355 2.4489 33.2355 5.80373V8.66296C33.2355 10.6962 32.5112 11.9924 31.0625 12.5515C32.3333 13.009 32.9687 14.051 32.9687 15.6776V25.4371H27.6314V16.097C27.6314 15.5886 27.39 15.3345 26.9071 15.3345H24.3529ZM24.3529 4.39317V11.5984H27.174C27.3773 11.5984 27.5425 11.5222 27.6696 11.3697C27.8221 11.2172 27.8983 11.0393 27.8983 10.836V5.15564C27.8983 4.95231 27.8221 4.77441 27.6696 4.62191C27.5425 4.46942 27.3773 4.39317 27.174 4.39317H24.3529Z" fill="url(#paint4_linear_1124_24960)"/>
<path d="M12.0469 11.9415C13.6989 12.5261 14.5249 13.8731 14.5249 15.9826V20.4049C14.5249 23.7597 12.9491 25.4371 9.79762 25.4371H0V0.771484H9.49264C12.6441 0.771484 14.2199 2.4489 14.2199 5.80373V8.05299C14.2199 10.0862 13.4956 11.3824 12.0469 11.9415ZM8.15833 4.39317H5.33723V10.9885H8.15833C8.36166 10.9885 8.52686 10.9122 8.65393 10.7597C8.80643 10.6072 8.88267 10.4293 8.88267 10.226V5.15564C8.88267 4.95231 8.80643 4.77441 8.65393 4.62191C8.52686 4.46942 8.36166 4.39317 8.15833 4.39317ZM9.18766 21.0148V15.487C9.18766 15.2837 9.11141 15.1058 8.95892 14.9533C8.83184 14.8008 8.66664 14.7245 8.46332 14.7245H5.33723V21.7773H8.46332C8.66664 21.7773 8.83184 21.701 8.95892 21.5485C9.11141 21.3961 9.18766 21.2181 9.18766 21.0148Z" fill="url(#paint5_linear_1124_24960)"/>
<path d="M96.0396 35.2227C96.0396 38.0059 94.4941 39.6099 92.1064 39.6099C89.7114 39.6099 88.1953 38.0059 88.1953 35.2227V33.6479C88.1953 30.8647 89.7407 29.1875 92.1284 29.1875C94.5234 29.1875 96.0396 30.8647 96.0396 33.6553V35.2227ZM95.0142 33.6406C95.0142 31.3555 93.7983 30.1177 92.1138 30.1177C90.4438 30.1177 89.2134 31.3555 89.2134 33.6406V35.2373C89.2134 37.5151 90.4365 38.6724 92.1138 38.6724C93.7983 38.6724 95.0142 37.5151 95.0142 35.2373V33.6406Z" fill="url(#paint6_linear_1124_24960)"/>
<path d="M78.9771 39.3906H77.9883V29.4004H79.0137L84.3384 37.6255H84.3677V29.4004H85.3564V39.3906H84.3311L78.999 31.1655H78.9771V39.3906Z" fill="url(#paint7_linear_1124_24960)"/>
<path d="M75 39.3906H73V0.390625H75V39.3906Z" fill="url(#paint8_linear_1124_24960)"/>
<path d="M62.8242 36.7539H63.8643C63.9521 37.7354 64.7725 38.6729 66.4717 38.6729C67.9512 38.6729 68.9253 37.9258 68.9253 36.7612C68.9253 35.8164 68.332 35.3184 67.1089 35.0034L65.439 34.5566C64.2305 34.2344 63.1392 33.4873 63.1392 31.9712C63.1392 30.1768 64.7212 29.166 66.501 29.166C68.2148 29.166 69.8188 30.0815 69.8555 31.9126H68.8228C68.7422 30.9385 68.0024 30.0962 66.479 30.0962C65.1313 30.0962 64.1865 30.7627 64.1865 31.9126C64.1865 32.7402 64.6846 33.2822 65.7246 33.5532L67.3579 34C68.9473 34.4321 69.98 35.1133 69.98 36.688C69.98 38.5996 68.3687 39.6104 66.3472 39.6104C63.7617 39.6104 62.8608 37.999 62.8242 36.7539Z" fill="url(#paint9_linear_1124_24960)"/>
<path d="M53.2407 39.3906H52.1641L55.7529 29.4004H56.7637L60.3452 39.3906H59.2759L58.1919 36.2412H54.3174L53.2407 39.3906ZM56.2729 30.6675H56.2437L54.6104 35.3989H57.8989L56.2729 30.6675Z" fill="url(#paint10_linear_1124_24960)"/>
<path d="M42.9795 33.6919V35.1494C42.9795 37.3101 43.9536 38.6724 45.8213 38.6724C47.3447 38.6724 48.3774 37.7642 48.4067 36.4824H49.4175C49.4175 38.2549 47.916 39.6099 45.8213 39.6099C43.3237 39.6099 41.9688 37.874 41.9688 35.1348V33.7139C41.9688 30.9453 43.3384 29.1875 45.814 29.1875C47.9453 29.1875 49.4028 30.6304 49.4028 32.4541V32.4614H48.3848C48.3555 31.1504 47.3521 30.1177 45.814 30.1177C43.9609 30.1177 42.9795 31.4946 42.9795 33.6919Z" fill="url(#paint11_linear_1124_24960)"/>
<defs>
<linearGradient id="paint0_linear_1124_24960" x1="102.309" y1="0.390625" x2="102.309" y2="25.8187" gradientUnits="userSpaceOnUse">
<stop stop-color="#FF8C00"/>
<stop offset="0.5" stop-color="#FFB700"/>
<stop offset="1" stop-color="#FF8C00"/>
</linearGradient>
<linearGradient id="paint1_linear_1124_24960" x1="84.129" y1="0.390625" x2="84.129" y2="25.8187" gradientUnits="userSpaceOnUse">
<stop stop-color="#FF8C00"/>
<stop offset="0.5" stop-color="#FFB700"/>
<stop offset="1" stop-color="#FF8C00"/>
</linearGradient>
<linearGradient id="paint2_linear_1124_24960" x1="63.9112" y1="0.390625" x2="63.9112" y2="25.4375" gradientUnits="userSpaceOnUse">
<stop stop-color="#FF8C00"/>
<stop offset="0.5" stop-color="#FFB700"/>
<stop offset="1" stop-color="#FF8C00"/>
</linearGradient>
<linearGradient id="paint3_linear_1124_24960" x1="44.7703" y1="0.390625" x2="44.7703" y2="25.4375" gradientUnits="userSpaceOnUse">
<stop stop-color="#FF8C00"/>
<stop offset="0.5" stop-color="#FFB700"/>
<stop offset="1" stop-color="#FF8C00"/>
</linearGradient>
<linearGradient id="paint4_linear_1124_24960" x1="26.1256" y1="0.771484" x2="26.1256" y2="25.4371" gradientUnits="userSpaceOnUse">
<stop stop-color="#FF8C00"/>
<stop offset="0.5" stop-color="#FFB700"/>
<stop offset="1" stop-color="#FF8C00"/>
</linearGradient>
<linearGradient id="paint5_linear_1124_24960" x1="7.26244" y1="0.771484" x2="7.26244" y2="25.4371" gradientUnits="userSpaceOnUse">
<stop stop-color="#FF8C00"/>
<stop offset="0.5" stop-color="#FFB700"/>
<stop offset="1" stop-color="#FF8C00"/>
</linearGradient>
<linearGradient id="paint6_linear_1124_24960" x1="92.1174" y1="29.1875" x2="92.1174" y2="39.6099" gradientUnits="userSpaceOnUse">
<stop stop-color="white"/>
<stop offset="0.5" stop-color="#999999"/>
<stop offset="1" stop-color="white"/>
</linearGradient>
<linearGradient id="paint7_linear_1124_24960" x1="81.6724" y1="29.4004" x2="81.6724" y2="39.3906" gradientUnits="userSpaceOnUse">
<stop stop-color="white"/>
<stop offset="0.5" stop-color="#999999"/>
<stop offset="1" stop-color="white"/>
</linearGradient>
<linearGradient id="paint8_linear_1124_24960" x1="74" y1="0.390625" x2="74" y2="39.3906" gradientUnits="userSpaceOnUse">
<stop stop-color="white"/>
<stop offset="0.5" stop-color="#999999"/>
<stop offset="1" stop-color="white"/>
</linearGradient>
<linearGradient id="paint9_linear_1124_24960" x1="66.4021" y1="29.166" x2="66.4021" y2="39.6104" gradientUnits="userSpaceOnUse">
<stop stop-color="white"/>
<stop offset="0.5" stop-color="#999999"/>
<stop offset="1" stop-color="white"/>
</linearGradient>
<linearGradient id="paint10_linear_1124_24960" x1="56.2546" y1="29.4004" x2="56.2546" y2="39.3906" gradientUnits="userSpaceOnUse">
<stop stop-color="white"/>
<stop offset="0.5" stop-color="#999999"/>
<stop offset="1" stop-color="white"/>
</linearGradient>
<linearGradient id="paint11_linear_1124_24960" x1="45.6931" y1="29.1875" x2="45.6931" y2="39.6099" gradientUnits="userSpaceOnUse">
<stop stop-color="white"/>
<stop offset="0.5" stop-color="#999999"/>
<stop offset="1" stop-color="white"/>
</linearGradient>
</defs>
</svg>
