<svg xmlns="http://www.w3.org/2000/svg" width="48" height="48" fill="none"><path fill="#fff" fill-rule="evenodd" d="M39 24a1.6 1.6 0 0 0-.44-1.107 1.47 1.47 0 0 0-1.06-.458h-28c-.398 0-.78.165-1.06.458A1.6 1.6 0 0 0 8 24c0 .415.158.813.44 1.107a1.47 1.47 0 0 0 1.06.458h28c.398 0 .78-.165 1.06-.458A1.6 1.6 0 0 0 39 24Zm0-10.435a1.6 1.6 0 0 0-.44-1.107A1.47 1.47 0 0 0 37.5 12h-28c-.398 0-.78.165-1.06.458A1.6 1.6 0 0 0 8 13.565c0 .415.158.814.44 1.107a1.47 1.47 0 0 0 1.06.458h28c.398 0 .78-.165 1.06-.458a1.6 1.6 0 0 0 .44-1.107Zm0 20.87a1.6 1.6 0 0 0-.44-1.107 1.47 1.47 0 0 0-1.06-.458h-28c-.398 0-.78.165-1.06.458A1.6 1.6 0 0 0 8 34.435c0 .415.158.813.44 1.107A1.47 1.47 0 0 0 9.5 36h28c.398 0 .78-.165 1.06-.458a1.6 1.6 0 0 0 .44-1.107Z" clip-rule="evenodd"/></svg>