<svg width="201" height="65" viewBox="0 0 201 65" fill="none" xmlns="http://www.w3.org/2000/svg">
<g clip-path="url(#clip0_5231_42877)">
<mask id="mask0_5231_42877" style="mask-type:luminance" maskUnits="userSpaceOnUse" x="0" y="0" width="201" height="65">
<path d="M200.75 0H0V65H200.75V0Z" fill="white"/>
</mask>
<g mask="url(#mask0_5231_42877)">
<path d="M124.076 0.839844C129.836 0.839844 134.496 2.20984 137.426 3.44984L135.406 16.6898L134.056 16.0398C131.366 14.7998 127.806 13.5598 122.966 13.6898C117.086 13.6898 114.456 16.3598 114.396 18.9698C114.396 21.8398 117.586 23.7298 122.786 26.5398C131.366 30.9098 135.336 36.2598 135.276 43.2298C135.156 55.9498 124.986 64.1598 109.366 64.1598C102.686 64.0898 96.2556 62.5898 92.7656 60.8998L94.8456 47.1398L96.8056 48.1198C101.646 50.3998 104.826 51.3798 110.776 51.3798C115.066 51.3798 119.656 49.4898 119.716 45.3798C119.716 42.7098 117.756 40.7498 111.996 37.7498C106.366 34.8098 98.8256 29.9198 98.9456 21.1198C99.0056 9.18984 109.356 0.839844 124.056 0.839844H124.076Z" fill="#00579F"/>
<path d="M68.5859 63.2492H83.4659L92.7859 1.94922H77.9059L68.5959 63.2492H68.5859Z" fill="#00579F"/>
<path fill-rule="evenodd" clip-rule="evenodd" d="M175.587 1.94922H164.077C160.528 1.94922 157.828 3.05922 156.298 7.03922L134.188 63.2492H149.807C149.807 63.2492 152.377 55.6792 152.927 54.0492H172.037C172.467 56.1992 173.818 63.2492 173.818 63.2492H187.598L175.587 1.94922ZM157.217 41.5292C158.447 38.0092 163.158 24.3792 163.158 24.3792C163.138 24.4292 163.327 23.8592 163.617 22.9992C164.047 21.7392 164.677 19.8692 165.117 18.5092L166.158 23.7892C166.158 23.7892 168.977 38.4592 169.587 41.5292H157.217Z" fill="#00579F"/>
<path d="M41.5763 43.7492L56.1562 1.94922H71.8963L48.4963 63.1792H32.7562L19.4062 9.57922C28.8363 14.8592 37.2863 25.4892 39.9863 35.2692L41.5763 43.7492Z" fill="#00579F"/>
<path d="M28.0494 1.94922H4.09938L3.85938 3.18922C22.5394 8.27922 34.9094 20.5392 39.9994 35.2792L34.7894 7.10922C33.9294 3.18922 31.2994 2.08922 28.0494 1.95922V1.94922Z" fill="#FAA61A"/>
</g>
</g>
<defs>
<clipPath id="clip0_5231_42877">
<rect width="200.75" height="65" fill="white"/>
</clipPath>
</defs>
</svg>
