<svg width="61" height="65" viewBox="0 0 61 65" fill="none" xmlns="http://www.w3.org/2000/svg">
<g clip-path="url(#clip0_5231_42909)">
<mask id="mask0_5231_42909" style="mask-type:luminance" maskUnits="userSpaceOnUse" x="0" y="0" width="61" height="65">
<path d="M60.99 0H0V65H60.99V0Z" fill="white"/>
</mask>
<g mask="url(#mask0_5231_42909)">
<mask id="mask1_5231_42909" style="mask-type:luminance" maskUnits="userSpaceOnUse" x="1" y="3" width="59" height="59">
<path d="M59.3384 3.30859H1.64844V61.6886H59.3384V3.30859Z" fill="white"/>
</mask>
<g mask="url(#mask1_5231_42909)">
<path d="M30.4856 58.5287C44.6956 58.5287 56.2056 46.8787 56.2056 32.4988C56.2056 18.1188 44.6956 6.46875 30.4856 6.46875C16.2756 6.46875 4.76562 18.1288 4.76562 32.4988C4.76562 46.8688 16.2856 58.5287 30.4856 58.5287Z" fill="white"/>
<path d="M30.4888 3.30687C24.7888 3.30687 19.2088 5.01687 14.4688 8.22687C9.72885 11.4369 6.02884 15.9969 3.84884 21.3269C1.66884 26.6569 1.09884 32.5269 2.20884 38.1869C3.31884 43.8469 6.06885 49.0469 10.0988 53.1269C14.1288 57.2069 19.2688 59.9869 24.8688 61.1169C30.4688 62.2469 36.2588 61.6669 41.5388 59.4569C46.8088 57.2469 51.3188 53.5069 54.4788 48.7069C57.6488 43.9069 59.3388 38.2669 59.3388 32.4869C59.3488 28.6669 58.6188 24.8769 57.1788 21.3469C55.7388 17.8069 53.6388 14.5969 50.9688 11.8869C48.3088 9.17688 45.1388 7.02688 41.6588 5.54688C38.1688 4.07688 34.4388 3.30687 30.6588 3.29688H30.4888V3.30687ZM30.9788 33.4869L27.9788 43.7369H44.0388C44.1488 43.7369 44.2488 43.7469 44.3488 43.7869C44.4488 43.8269 44.5388 43.8869 44.6188 43.9569C44.6988 44.0269 44.7588 44.1169 44.7988 44.2169C44.8388 44.3169 44.8688 44.4169 44.8688 44.5269V44.7969L43.4688 49.6769C43.4088 49.9069 43.2688 50.1069 43.0788 50.2469C42.8888 50.3869 42.6588 50.4569 42.4188 50.4469H17.8488L21.9688 36.2369L17.3588 37.6469L18.4088 34.3969L23.0188 32.9869L28.8188 13.0569C28.8788 12.8269 29.0188 12.6269 29.2088 12.4869C29.3988 12.3469 29.6288 12.2769 29.8688 12.2769H36.0888C36.1988 12.2769 36.2988 12.2869 36.3988 12.3269C36.4988 12.3669 36.5888 12.4269 36.6688 12.4969C36.7488 12.5669 36.8088 12.6569 36.8488 12.7569C36.8888 12.8569 36.9188 12.9569 36.9188 13.0669V13.3369L32.0288 30.1569L36.6388 28.7469L35.6588 32.1369L30.9788 33.4769V33.4869Z" fill="#345D9D"/>
</g>
</g>
</g>
<defs>
<clipPath id="clip0_5231_42909">
<rect width="60.99" height="65" fill="white"/>
</clipPath>
</defs>
</svg>
