<svg width="115" height="65" viewBox="0 0 115 65" fill="none" xmlns="http://www.w3.org/2000/svg">
<g clip-path="url(#clip0_5231_42867)">
<mask id="mask0_5231_42867" style="mask-type:luminance" maskUnits="userSpaceOnUse" x="0" y="0" width="115" height="65">
<path d="M115 0H0V65H115V0Z" fill="white"/>
</mask>
<g mask="url(#mask0_5231_42867)">
<path d="M55.8866 56.7302C50.1766 61.4702 42.7666 64.3402 34.6766 64.3402C16.6166 64.3402 1.97656 50.0802 1.97656 32.5002C1.97656 14.9202 16.6166 0.660156 34.6766 0.660156C42.7666 0.660156 50.1766 3.52016 55.8866 8.27016C61.5966 3.53016 69.0066 0.660156 77.0966 0.660156C95.1566 0.660156 109.797 14.9102 109.797 32.5002C109.797 50.0902 95.1566 64.3402 77.0966 64.3402C69.0066 64.3402 61.5966 61.4802 55.8866 56.7302Z" fill="#ED0006"/>
<path d="M55.8828 56.7302C62.9128 50.8902 67.3728 42.2002 67.3728 32.5002C67.3728 22.8002 62.9128 14.1102 55.8828 8.27016C61.5928 3.53016 69.0028 0.660156 77.0928 0.660156C95.1528 0.660156 109.793 14.9102 109.793 32.5002C109.793 50.0902 95.1528 64.3402 77.0928 64.3402C69.0028 64.3402 61.5928 61.4802 55.8828 56.7302Z" fill="#F9A000"/>
<path d="M55.8884 56.7295C62.9184 50.8895 67.3784 42.1995 67.3784 32.4995C67.3784 22.7995 62.9184 14.1095 55.8884 8.26953C48.8584 14.1095 44.3984 22.7995 44.3984 32.4995C44.3984 42.1995 48.8584 50.8895 55.8884 56.7295Z" fill="#FF5E00"/>
</g>
</g>
<defs>
<clipPath id="clip0_5231_42867">
<rect width="115" height="65" fill="white"/>
</clipPath>
</defs>
</svg>
