<svg width="40" height="65" viewBox="0 0 40 65" fill="none" xmlns="http://www.w3.org/2000/svg">
<g opacity="0.6">
<mask id="mask0_5231_42922" style="mask-type:luminance" maskUnits="userSpaceOnUse" x="0" y="24" width="40" height="21">
<path d="M39.8985 24.0391H0V44.9041H39.8985V24.0391Z" fill="white"/>
</mask>
<g mask="url(#mask0_5231_42922)">
<path d="M19.9543 24.0391L0 33.1055L19.9543 44.9041L39.8985 33.1055L19.9543 24.0391Z" fill="#010101"/>
</g>
</g>
<g opacity="0.45">
<mask id="mask1_5231_42922" style="mask-type:luminance" maskUnits="userSpaceOnUse" x="0" y="0" width="20" height="45">
<path d="M19.9543 0H0V44.9024H19.9543V0Z" fill="white"/>
</mask>
<g mask="url(#mask1_5231_42922)">
<path d="M0 33.1037L19.9543 44.9024V0L0 33.1037Z" fill="#010101"/>
</g>
</g>
<g opacity="0.8">
<mask id="mask2_5231_42922" style="mask-type:luminance" maskUnits="userSpaceOnUse" x="19" y="0" width="21" height="45">
<path d="M39.905 0H19.9609V44.9024H39.905V0Z" fill="white"/>
</mask>
<g mask="url(#mask2_5231_42922)">
<path d="M19.9609 0V44.8922L39.905 33.1037L19.9609 0Z" fill="black"/>
</g>
</g>
<g opacity="0.45">
<mask id="mask3_5231_42922" style="mask-type:luminance" maskUnits="userSpaceOnUse" x="0" y="36" width="20" height="29">
<path d="M19.9543 36.8906H0V65.0007H19.9543V36.8906Z" fill="white"/>
</mask>
<g mask="url(#mask3_5231_42922)">
<path d="M0 36.8906L19.9543 65.0007V48.679L0 36.8906Z" fill="black"/>
</g>
</g>
<g opacity="0.8">
<mask id="mask4_5231_42922" style="mask-type:luminance" maskUnits="userSpaceOnUse" x="19" y="36" width="21" height="29">
<path d="M39.9255 36.8906H19.9609V65.0007H39.9255V36.8906Z" fill="white"/>
</mask>
<g mask="url(#mask4_5231_42922)">
<path d="M19.9609 48.679V65.0007L39.9255 36.8906L19.9609 48.679Z" fill="black"/>
</g>
</g>
</svg>
