<svg width="67" height="65" viewBox="0 0 67 65" fill="none" xmlns="http://www.w3.org/2000/svg">
<g clip-path="url(#clip0_5231_42896)">
<mask id="mask0_5231_42896" style="mask-type:luminance" maskUnits="userSpaceOnUse" x="0" y="0" width="67" height="65">
<path d="M66.62 0H0V65H66.62V0Z" fill="white"/>
</mask>
<g mask="url(#mask0_5231_42896)">
<mask id="mask1_5231_42896" style="mask-type:luminance" maskUnits="userSpaceOnUse" x="2" y="1" width="64" height="63">
<path d="M65.2475 1.10156H2.4375V63.9116H65.2475V1.10156Z" fill="white"/>
</mask>
<g mask="url(#mask1_5231_42896)">
<path d="M64.2994 40.1035C60.1094 56.9235 43.0694 67.1635 26.2394 62.9735C9.41944 58.7735 -0.820559 41.7335 3.37944 24.9135C7.56944 8.08347 24.6094 -2.15653 41.4294 2.04347C58.2494 6.23347 68.4894 23.2835 64.2994 40.1035Z" fill="#F7931A"/>
<path d="M47.6788 28.033C48.3088 23.853 45.1188 21.613 40.7688 20.113L42.1788 14.453L38.7288 13.593L37.3588 19.103C36.4488 18.873 35.5187 18.663 34.5987 18.453L35.9788 12.903L32.5388 12.043L31.1287 17.703C30.3787 17.533 29.6388 17.363 28.9288 17.183V17.163L24.1788 15.973L23.2588 19.653C23.2588 19.653 25.8188 20.243 25.7588 20.273C27.1588 20.623 27.4088 21.543 27.3688 22.273L25.7588 28.723C25.8588 28.743 25.9788 28.783 26.1188 28.833C26.0088 28.803 25.8788 28.773 25.7588 28.743L23.5088 37.773C23.3388 38.193 22.9088 38.833 21.9288 38.593C21.9588 38.643 19.4288 37.963 19.4288 37.963L17.7188 41.903L22.1988 43.023C23.0288 43.233 23.8488 43.453 24.6588 43.653L23.2288 49.383L26.6688 50.243L28.0788 44.583C29.0188 44.843 29.9288 45.073 30.8288 45.293L29.4188 50.933L32.8687 51.793L34.2987 46.083C40.1787 47.193 44.5888 46.743 46.4488 41.433C47.9488 37.153 46.3787 34.683 43.2787 33.073C45.5287 32.553 47.2288 31.073 47.6788 28.013V28.033ZM39.8088 39.073C38.7488 43.353 31.5387 41.043 29.2087 40.463L31.0988 32.883C33.4388 33.463 40.9288 34.623 39.8088 39.083V39.073ZM40.8788 27.973C39.9088 31.863 33.9088 29.883 31.9688 29.403L33.6887 22.523C35.6287 23.003 41.8988 23.913 40.8888 27.973H40.8788Z" fill="white"/>
</g>
</g>
</g>
<defs>
<clipPath id="clip0_5231_42896">
<rect width="66.62" height="65" fill="white"/>
</clipPath>
</defs>
</svg>
