<svg xmlns="http://www.w3.org/2000/svg" width="33" height="32" fill="none"><g clip-path="url(#a)"><path fill="#F7F2FF" d="M16.833.079C7.961.079.768 7.207.768 15.999c0 8.794 7.193 15.922 16.065 15.922C25.706 31.921 32.9 24.793 32.9 16S25.706.079 16.833.079Zm5.553 16.765-8.033 4.975a1.012 1.012 0 0 1-1.019.027.993.993 0 0 1-.517-.87v-9.951c0-.362.198-.695.517-.87a1.01 1.01 0 0 1 1.02.026l8.032 4.975a.994.994 0 0 1 .472.844.994.994 0 0 1-.472.844Z"/></g><defs><clipPath id="a"><rect width="32.132" height="31.842" x=".768" y=".079" fill="#fff" rx="8"/></clipPath></defs></svg>