<svg width="33" height="33" viewBox="0 0 33 33" fill="none" xmlns="http://www.w3.org/2000/svg">
<g clip-path="url(#clip0_66_941)">
<path d="M16.0658 0.225586C7.19302 0.225586 0 7.41848 0 16.2914C0 25.1643 7.19302 32.3572 16.0658 32.3572C24.9386 32.3572 32.1316 25.1643 32.1316 16.2914C32.1316 7.41848 24.9386 0.225586 16.0658 0.225586ZM21.6185 17.143L13.5856 22.1635C13.4231 22.265 13.2383 22.316 13.0535 22.316C12.886 22.316 12.7183 22.2744 12.5666 22.19C12.2474 22.0131 12.0493 21.6772 12.0493 21.3119V11.2708C12.0493 10.9056 12.2474 10.5697 12.5666 10.3927C12.8858 10.2147 13.2761 10.2255 13.5856 10.4192L21.6185 15.4398C21.912 15.6236 22.0905 15.9453 22.0905 16.2914C22.0905 16.6375 21.912 16.9592 21.6185 17.143Z" fill="black"/>
</g>
<defs>
<clipPath id="clip0_66_941">
<rect y="0.225586" width="32.1316" height="32.1316" rx="8" fill="white"/>
</clipPath>
</defs>
</svg>
