<svg width="176" height="49" viewBox="0 0 176 49" fill="none" xmlns="http://www.w3.org/2000/svg">
<mask id="mask0_4922_41669" style="mask-type:luminance" maskUnits="userSpaceOnUse" x="0" y="0" width="176" height="49">
<path d="M176 0H0V49H176V0Z" fill="white"/>
</mask>
<g mask="url(#mask0_4922_41669)">
<path d="M1.57812 23.665C1.57812 15.9682 4.98334 12.0859 10.3628 12.0859C14.0818 12.0859 16.8978 13.8726 17.6783 17.9056L17.8007 18.5539L14.6098 19.2324L14.4873 18.6519C13.8905 15.9456 12.36 14.8978 10.3016 14.8978C7.39378 14.8978 5.08282 17.393 5.08282 23.4539C5.08282 29.1832 7.17952 31.5804 10.118 31.5804C12.2146 31.5804 14.648 30.5024 14.648 26.7181V26.0698H10.0567V23.3936H17.839V34.0153H15.0536L14.8623 31.3995C13.8293 33.5253 11.8014 34.3847 9.4216 34.3847C4.6696 34.3847 1.57812 30.6532 1.57812 23.665Z" fill="white"/>
<path d="M29.8315 32.5312C28.8597 33.5489 27.5818 34.348 25.5157 34.3781C22.5773 34.3781 20.6719 32.4407 20.6719 29.9455C20.6719 27.2392 22.9522 25.9124 24.9571 25.3546L29.8009 23.9977V23.4398C29.8009 21.7135 28.7067 20.8541 26.9849 20.8541C25.3933 20.8541 24.1077 21.8417 23.5491 22.9498L23.4573 23.1383L20.9856 21.8417L21.1463 21.5326C21.835 20.1455 23.7404 18.2383 27.268 18.2383C30.7957 18.2383 33.0531 19.9947 33.0531 23.1609V31.2572C33.0531 32.0261 33.0837 33.0438 33.2444 33.7223L33.3056 34.0012H30.0534L30.0228 33.8429C29.931 33.4132 29.8621 32.9835 29.8315 32.5237V32.5312ZM26.3651 31.9432C27.8037 31.9432 29.0816 31.114 29.8009 30.2169V26.3346L26.4263 27.3523C25.1484 27.7518 24.0159 28.4001 24.0159 29.7269C24.0159 31.0537 24.9265 31.9432 26.3574 31.9432H26.3651Z" fill="white"/>
<path d="M51.9226 21.0202C50.6447 21.0202 49.2979 21.8796 48.548 22.6184V34.009H45.2958V23.3873C45.2958 21.8193 44.4847 21.0127 42.9237 21.0127C41.6457 21.0127 40.299 21.8721 39.549 22.6109V34.0015H36.2969V18.6155H39.3884V20.3116C40.5744 19.0829 42.2656 18.2461 44.0103 18.2461C46.1988 18.2461 47.5073 19.2336 48.1348 20.583C49.3209 19.1959 51.1344 18.2461 53.0092 18.2461C56.2308 18.2461 57.5393 20.3719 57.5393 22.6787V34.009H54.2871V23.3873C54.2871 21.8193 53.476 21.0127 51.915 21.0127L51.9226 21.0202Z" fill="white"/>
<path d="M64.2015 32.5923L63.8878 34.0095H61.1406V12.457H64.3928V19.8749C65.334 18.827 66.765 18.239 68.2648 18.239C71.8307 18.239 74.2335 20.8549 74.2335 26.0941C74.2335 31.3333 71.7006 34.3789 68.1424 34.3789C66.5507 34.3789 65.0815 33.7306 64.2015 32.5923ZM67.5149 31.7932C69.3591 31.7932 70.9201 30.1272 70.9201 26.1921C70.9201 22.257 69.2978 20.8624 67.4537 20.8624C66.2064 20.8624 65.1733 21.4806 64.3928 22.2796V30.3156C65.2039 31.1449 66.2676 31.7932 67.5149 31.7932Z" fill="white"/>
<path d="M76.9219 12.457H80.174V34.0095H76.9219V12.457Z" fill="white"/>
<path d="M83.0547 26.5309C83.0547 21.6686 85.5263 18.2461 89.8345 18.2461C92.8648 18.2461 96.0557 20.0327 96.0557 25.5735V27.0209H86.2456V27.2093C86.2456 30.1946 87.8373 31.8606 89.9646 31.8606C91.342 31.8606 92.4975 31.3027 93.278 29.9232L93.4693 29.5839L96.0328 30.6619L95.8797 30.971C94.7243 33.2476 92.6582 34.3859 89.8804 34.3859C85.9396 34.3859 83.07 31.6419 83.07 26.5309H83.0547ZM92.9949 24.9026V24.6839C92.9949 21.8796 91.495 20.8318 89.8422 20.8318C88.1893 20.8318 86.5594 22.0606 86.2763 24.895H92.9949V24.9026Z" fill="white"/>
<path d="M104.676 12.457H109.397L115.588 34.0095H112.122L110.591 28.3481H103.344L101.814 34.0095H98.5312L104.691 12.457H104.676ZM109.834 25.6946L106.956 15.103L104.079 25.6946H109.826H109.834Z" fill="#8A8A8A"/>
<path d="M114.765 18.6133H118.018L120.581 29.6044L123.428 18.6133H126.489L129.274 29.6044L131.929 18.6133H134.898L130.866 34.0068H127.644L124.828 23.0459L121.981 34.0068H118.791L114.758 18.6133H114.765Z" fill="#8A8A8A"/>
<path d="M144.48 32.5312C143.508 33.5489 142.23 34.348 140.164 34.3781C137.226 34.3781 135.32 32.4407 135.32 29.9455C135.32 27.2392 137.601 25.9124 139.606 25.3546L144.449 23.9977V23.4398C144.449 21.7135 143.355 20.8541 141.633 20.8541C140.042 20.8541 138.756 21.8417 138.198 22.9498L138.106 23.1383L135.634 21.8417L135.795 21.5326C136.483 20.1455 138.389 18.2383 141.916 18.2383C145.444 18.2383 147.702 19.9947 147.702 23.1609V31.2572C147.702 32.0261 147.732 33.0438 147.893 33.7223L147.954 34.0012H144.702L144.671 33.8429C144.579 33.4132 144.518 32.9835 144.48 32.5237V32.5312ZM141.014 31.9432C142.452 31.9432 143.73 31.114 144.449 30.2169V26.3346L141.075 27.3523C139.789 27.7518 138.664 28.4001 138.664 29.7269C138.664 31.0537 139.575 31.9432 141.006 31.9432H141.014Z" fill="#8A8A8A"/>
<path d="M150.867 18.6131H153.897V21.5079C155.964 19.1333 157.808 18.4322 159.369 18.3945V21.3798C157.18 21.3798 155.458 22.5784 154.119 23.7845V34.0067H150.867V18.6131Z" fill="#8A8A8A"/>
<path d="M159.703 26.5309C159.703 21.6686 162.175 18.2461 166.483 18.2461C169.513 18.2461 172.704 20.0327 172.704 25.5735V27.0209H162.894V27.2093C162.894 30.1946 164.486 31.8606 166.613 31.8606C167.99 31.8606 169.146 31.3027 169.926 29.9232L170.118 29.5839L172.681 30.6619L172.528 30.971C171.373 33.2476 169.307 34.3859 166.529 34.3859C162.588 34.3859 159.718 31.6419 159.718 26.5309H159.703ZM169.643 24.9026V24.6839C169.643 21.8796 168.143 20.8318 166.483 20.8318C164.822 20.8318 163.2 22.0606 162.917 24.895H169.636L169.643 24.9026Z" fill="#8A8A8A"/>
</g>
</svg>
