<svg width="299" height="49" viewBox="0 0 299 49" fill="none" xmlns="http://www.w3.org/2000/svg">
<g clip-path="url(#clip0_4922_41615)">
<mask id="mask0_4922_41615" style="mask-type:luminance" maskUnits="userSpaceOnUse" x="0" y="0" width="299" height="49">
<path d="M299 0H0V49H299V0Z" fill="white"/>
</mask>
<g mask="url(#mask0_4922_41615)">
<path d="M3.22657 16.7741C3.22657 33.8864 3.21894 33.5849 3.87504 35.8162C5.59159 41.6435 10.4742 46.0233 16.608 47.2295C18.1872 47.531 21.3762 47.5084 22.9631 47.1692C25.2594 46.6792 26.9378 45.9706 28.8909 44.6966C34.9179 40.7087 37.5652 33.1552 35.3375 26.2499C34.5364 23.7999 33.2318 21.6967 31.2864 19.7669C28.8756 17.3696 26.0529 15.8846 22.6732 15.2212C21.1092 14.9196 18.0118 14.9422 16.4402 15.2815C13.77 15.8544 11.3668 16.9701 9.26119 18.6436L8.87211 18.9452V4.72009L6.04934 2.85809L3.22657 0.996094V16.7741ZM22.307 20.8675C25.2594 21.6213 27.777 23.5889 29.2113 26.2499C32.0722 31.5269 29.9208 38.1004 24.4355 40.8067C22.3527 41.8319 19.7894 42.1636 17.5769 41.7113C13.564 40.8896 10.4818 38.0929 9.26119 34.1653C8.97891 33.2456 8.94077 32.9592 8.94077 31.2856C8.92551 29.6799 8.96366 29.2955 9.20016 28.4964C10.2225 24.9835 12.8392 22.2395 16.2571 21.1162C16.8445 20.9202 17.6456 20.7092 18.0194 20.6489C19.057 20.483 21.2694 20.6036 22.2993 20.8675" fill="white"/>
<path d="M74.4477 17.0092C74.4859 34.8527 74.4401 33.7521 75.3098 36.3303C77.0188 41.3961 81.1919 45.384 86.3186 46.854C87.4401 47.1706 89.4847 47.5023 90.3392 47.5023H90.8808V41.954L89.9425 41.8711C87.4096 41.66 84.8386 40.4086 83.0457 38.5089C81.7488 37.1444 80.9172 35.6141 80.3756 33.6466C80.1314 32.6967 80.1162 32.5083 80.1162 26.6283V20.5824L84.9149 20.5447L89.706 20.5221V14.9437H80.0551V4.65366L77.385 2.91228C75.9278 1.96243 74.6537 1.1332 74.5622 1.08797C74.4249 1.00505 74.4096 3.40982 74.4477 17.0167" fill="white"/>
<path d="M132.452 17.1211C132.49 33.0047 132.49 33.2685 132.734 34.3616C133.489 37.7539 134.886 40.3019 137.289 42.6841C138.586 43.9505 140.104 45.0662 141.469 45.7522C143.308 46.6568 145.726 47.3127 147.824 47.4634L148.893 47.5313V41.9151H148.336C147.489 41.9151 145.757 41.5231 144.758 41.1161C142.248 40.0833 140.005 37.8971 138.967 35.4924C138.776 35.025 138.509 34.2862 138.364 33.8414C138.128 33.0424 138.128 32.7634 138.082 18.8474L138.044 4.6676L137.258 4.15498C136.823 3.86098 135.549 3.03929 134.435 2.3156L132.398 1.00391L132.444 17.1287L132.452 17.1211Z" fill="#8A8A8A"/>
<path d="M217.586 24.0786V47.1538H223.231V37.3764L225.581 34.4817C226.878 32.876 227.954 31.5718 227.984 31.5718C228.015 31.5718 229.899 35.0697 232.188 39.359L236.354 47.1463H239.611C241.412 47.1463 242.884 47.1237 242.884 47.1086C242.884 47.086 240.428 42.5252 237.414 36.992C234.401 31.4437 231.929 26.8754 231.921 26.8226C231.898 26.7774 234.042 24.0786 236.689 20.837C239.321 17.5955 241.48 14.9194 241.48 14.8817C241.48 14.844 239.871 14.8214 237.918 14.8214H234.339L228.877 21.5532C225.879 25.2621 223.384 28.2926 223.338 28.2926C223.277 28.3077 223.247 22.978 223.247 16.4723V4.65951L222.095 3.9132C221.469 3.49105 220.203 2.66936 219.28 2.07382L217.601 0.988281V24.0786H217.586Z" fill="#8A8A8A"/>
<path d="M95.8204 16.9491C95.8204 34.4082 95.7975 33.7448 96.5528 36.1043C98.1396 41.0646 102.168 45.0902 107.119 46.6582C109.133 47.299 110.049 47.4346 112.238 47.4346C114.428 47.4346 115.404 47.2839 117.357 46.6657C121.5 45.339 125.017 42.3386 127.008 38.4337C127.557 37.3557 128.267 35.147 128.481 33.888C128.717 32.4557 128.702 29.9379 128.465 28.5282C127.336 21.8868 122.255 16.7154 115.442 15.2605C113.863 14.9363 110.888 14.8986 109.316 15.2153C106.89 15.6826 104.319 16.7833 102.519 18.1326C101.969 18.5548 101.474 18.8865 101.435 18.8865C101.397 18.8865 101.367 15.6751 101.367 11.7476V4.63126L98.6966 2.91249C97.2394 1.96264 95.9882 1.15603 95.9348 1.14849C95.8891 1.12588 95.8433 8.24218 95.8433 16.9566M114.962 20.8766C115.481 21.0199 116.388 21.3516 116.961 21.6305C123.812 24.97 125.185 33.8579 119.654 39.0368C118.738 39.8886 118.044 40.341 116.747 40.944C115.069 41.7205 114.321 41.8713 112.192 41.8637C110.567 41.8486 110.262 41.826 109.332 41.5471C105.364 40.3485 102.473 37.2803 101.634 33.3829C101.413 32.3276 101.413 30.1263 101.641 29.0559C102.572 24.8042 105.975 21.525 110.339 20.6957C111.506 20.4771 113.741 20.5676 114.947 20.8691" fill="#8A8A8A"/>
<path d="M279.084 14.911C279.038 14.9487 279 22.2234 279 31.0735V47.153H284.638L284.676 38.3406C284.722 29.6563 284.722 29.5281 284.981 28.6084C285.309 27.4475 286.026 25.9323 286.698 25.0126C287.285 24.1984 288.582 22.947 289.36 22.4194C290.833 21.4318 292.87 20.7081 294.533 20.5724L295.471 20.4895V14.911L294.449 14.994C292.275 15.1674 290.024 15.7704 288.117 16.7127C287.163 17.1877 285.256 18.424 284.996 18.733C284.913 18.8235 284.806 18.8989 284.752 18.8989C284.699 18.8989 284.646 17.9792 284.646 16.8635V14.8281H281.907C280.388 14.8281 279.122 14.8658 279.084 14.911Z" fill="#8A8A8A"/>
<path d="M53.1809 15.0642C49.3587 15.5391 46.1926 17.0845 43.4614 19.821C41.0506 22.2257 39.6926 24.6908 38.9679 28.0078C38.594 29.7491 38.594 32.7721 38.9679 34.4682C39.3341 36.0739 39.83 37.4459 40.5318 38.7727C42.8358 43.1299 47.0013 46.1981 51.9908 47.2233C53.4708 47.5248 56.7437 47.5248 58.2237 47.2233C65.6469 45.7005 70.9796 39.7376 71.5289 32.2971L71.6128 31.2267H65.9673L65.8834 32.1539C65.746 33.8274 65.0442 35.7573 64.0524 37.2348C63.3963 38.2148 61.6721 39.813 60.6422 40.4085C57.621 42.1499 54.0888 42.3761 50.8311 41.0342C49.9004 40.6497 48.3746 39.6396 47.7261 38.9762L47.2226 38.4636L58.9866 32.267C65.4714 28.8596 70.766 26.0101 70.766 25.9347C70.766 25.6181 69.1868 22.7007 68.5078 21.7584C66.1351 18.4414 62.4731 16.1121 58.3763 15.2828C57.026 15.019 54.455 14.8984 53.1885 15.0642M57.766 20.8613C59.452 21.3061 61.5043 22.4217 62.5113 23.4621L62.908 23.8691L60.6879 25.0301C59.4749 25.6708 55.3552 27.8419 51.533 29.8547L44.5905 33.5184L44.4837 33.2017C44.4227 33.0359 44.3769 32.1087 44.3769 31.1513C44.3769 29.5833 44.3998 29.3044 44.6973 28.3771C45.9409 24.3214 49.1222 21.4719 53.2724 20.6804C54.4244 20.4617 56.553 20.5522 57.766 20.8537" fill="white"/>
<path d="M164.716 15.0637C158.445 15.8402 153.196 19.9939 151.128 25.791C150.457 27.6831 150.243 28.9496 150.243 31.2186C150.228 33.5103 150.373 34.3923 151.067 36.4503C152.913 41.9534 157.621 45.994 163.587 47.2303C164.99 47.5168 168.301 47.5168 169.705 47.2303C176.449 45.8206 181.355 41.0186 182.789 34.4451C183.155 32.7489 183.155 29.7034 182.789 28.0073C182.072 24.7205 180.645 22.1348 178.25 19.7677C175.824 17.363 173.001 15.8703 169.697 15.2446C168.523 15.026 165.852 14.928 164.723 15.0713M169.301 20.8683C170.338 21.1322 171.879 21.8182 172.749 22.4062C173.55 22.949 174.839 24.2079 175.435 25.022C177.128 27.3589 177.838 30.5176 177.266 33.2088C176.785 35.5457 175.747 37.37 173.97 39.036C171.803 41.0563 169.049 42.059 166.066 41.8931C163.373 41.7423 161.183 40.8 159.207 38.9154C157.621 37.4077 156.675 35.8246 156.11 33.729C155.782 32.4851 155.805 29.8542 156.156 28.6405C157.376 24.419 160.558 21.5016 164.8 20.7025C165.952 20.4839 168.08 20.5743 169.293 20.8759" fill="white"/>
<path d="M162.094 24.3655C161.232 24.9234 159.881 26.318 159.469 27.0869L159.172 27.6222L164.733 33.1177L170.287 38.6057L170.844 38.3117C171.577 37.9423 173.446 36.0879 173.82 35.3717L174.117 34.8214L168.586 29.356C165.542 26.3482 163.009 23.8906 162.941 23.8906C162.872 23.8906 162.491 24.1017 162.094 24.358" fill="#8A8A8A"/>
<path d="M200.294 15.0757C197.517 15.415 194.527 16.6136 192.352 18.257C191.154 19.1616 189.4 21.001 188.614 22.1619C187.294 24.1143 186.463 26.2327 186.035 28.5997C185.738 30.3411 185.791 32.9947 186.165 34.6004C187.66 41.0608 192.413 45.712 199.012 47.167C200.599 47.5137 203.659 47.5364 205.268 47.2273C206.55 46.971 208.137 46.4583 209.312 45.9231C210.265 45.4934 212.157 44.2873 212.897 43.6314L213.348 43.247L211.44 41.1814L209.548 39.1234L209.243 39.4023C208.663 39.915 207.481 40.6462 206.512 41.0608C203.727 42.2443 200.195 42.169 197.548 40.8497C195.267 39.7114 193.626 38.068 192.512 35.8065C191.688 34.133 191.421 32.8288 191.498 30.8085C191.566 28.9842 191.78 28.1474 192.52 26.6247C193.504 24.6119 194.763 23.2399 196.64 22.1016C200.332 19.8476 205.032 20.0436 208.625 22.5916C209.098 22.9308 209.533 23.172 209.586 23.1117C209.632 23.0665 210.471 22.1317 211.448 21.0537L213.225 19.0787L212.836 18.7545C210.975 17.1488 207.969 15.7542 205.223 15.234C204.01 15.0003 201.484 14.9174 200.279 15.0682" fill="#8A8A8A"/>
<path d="M257.549 15.0643C250.195 15.984 244.419 21.3966 243.199 28.5356C242.955 29.9528 242.955 32.4782 243.199 33.903C243.412 35.1845 244.129 37.3782 244.671 38.4336C246.99 42.9943 251.202 46.1454 256.428 47.2234C257.816 47.5099 261.043 47.5099 262.424 47.2234C267.65 46.1454 271.861 43.0019 274.181 38.4336C275.073 36.6922 275.836 33.7296 275.836 32.0033V31.2117H270.328L270.259 31.6414C270.221 31.8826 270.168 32.3953 270.129 32.7797C270.038 33.609 269.573 35.1091 269.168 35.9157C268.39 37.4234 266.918 39.1045 265.544 40.0468C264.759 40.582 262.981 41.3811 262.012 41.6299C261.379 41.7957 260.776 41.841 259.365 41.841C257.732 41.8259 257.435 41.8033 256.481 41.5168C254.787 41.0042 252.819 39.8659 251.812 38.8105L251.484 38.4713L263.248 32.2746C270.625 28.3923 275.012 26.0177 275.012 25.9122C275.012 25.6182 273.906 23.3868 273.303 22.4822C270.854 18.7356 267.07 16.1725 262.63 15.283C261.28 15.004 258.793 14.8985 257.549 15.0493M262.127 20.8463C263.805 21.276 265.903 22.437 266.925 23.5074L267.253 23.8466L258.137 28.6486C253.124 31.2871 248.982 33.4506 248.936 33.4582C248.608 33.5034 248.524 30.3448 248.821 29.0256C249.76 24.7437 253.147 21.4946 257.519 20.6654C258.693 20.4468 260.921 20.5373 262.134 20.8388" fill="#8A8A8A"/>
</g>
</g>
<defs>
<clipPath id="clip0_4922_41615">
<rect width="299" height="49" fill="white"/>
</clipPath>
</defs>
</svg>
