<svg width="163" height="50" viewBox="0 0 163 50" fill="none" xmlns="http://www.w3.org/2000/svg">
<path fill-rule="evenodd" clip-rule="evenodd" d="M6.7167 28.5637L7.36385 29.5593L6.11578 29.8607C5.14263 30.097 4.16461 30.3332 3.18902 30.5647C2.20857 30.8009 1.22569 31.03 0.242803 31.2518C-0.0613072 31.3193 -0.0613073 31.4253 0.140622 31.6303C0.310924 31.8062 0.47636 31.9919 0.641796 32.1775L1.94582 33.6313C6.66318 38.8845 11.3805 44.1401 16.0955 49.3982C16.2098 49.5259 16.295 49.5645 16.4677 49.5115C17.4822 49.1981 18.4991 48.8967 19.5161 48.5929L21.3894 48.0312L24.1021 47.2091L26.8756 46.3677L31.3764 45.0177L34.7532 44.0051C36.5998 43.4603 38.4415 42.9034 40.2807 42.332H40.2832L41.2977 42.0186L41.2077 41.9221C41.159 41.8667 41.1079 41.8112 41.0544 41.7606L40.8719 41.5943L40.8671 41.5919C39.4657 40.3165 38.062 39.0436 36.6582 37.7731L35.2787 36.5363C34.3615 35.7166 33.4443 34.8969 32.549 34.058C31.6318 33.2045 30.7 32.3632 29.7585 31.5362L29.7172 31.5001L28.2574 30.1982C28.2915 30.0512 28.3572 29.9137 28.4521 29.7956L28.4959 29.7329L31.2864 25.6031C34.4637 20.8972 37.6362 16.1888 40.8014 11.4756L43.4775 7.5146L45.2438 4.89642L47.5259 1.50919L48.5452 0L48.156 0.383324C46.869 1.70688 45.5771 3.02802 44.2853 4.34675L42.2295 6.44659L36.7701 12.0397L32.0162 16.9097C29.3863 19.605 26.7563 22.3003 24.1191 24.986C24.0461 25.0631 23.9731 25.1427 23.9026 25.2246C23.7006 25.4537 23.4963 25.6827 23.2092 25.8153L23.1216 25.8225C23.0584 25.8274 22.9951 25.8322 22.9343 25.8466L22.6107 25.9238C20.7593 26.365 18.9079 26.8062 17.0589 27.2522L13.9326 28.014L12.541 28.3563C12.3342 28.3804 12.1615 28.2912 11.9815 28.1924L11.5533 27.961L9.34908 26.7652C7.84556 25.9503 6.33717 25.1379 4.82878 24.3302C4.72417 24.2724 4.61956 24.2145 4.51738 24.1518C4.22543 23.9782 3.91645 23.7974 3.52719 23.6986L4.06973 24.5183L5.21075 26.2493L6.71913 28.5637H6.7167ZM15.9641 30.3284C15.7524 30.2151 15.5383 30.1018 15.3267 29.9885C15.7573 29.8149 16.2074 29.7185 16.6575 29.622C16.891 29.5738 17.1246 29.5208 17.3557 29.4605C18.032 29.2821 18.7132 29.1278 19.3944 28.9711L20.1389 28.8023C20.1997 28.7879 20.2606 28.783 20.3238 28.7782L20.4114 28.771L19.8202 29.3785L18.1002 31.1529C17.9615 31.2976 17.852 31.3675 17.633 31.2421C17.0808 30.9287 16.5261 30.6249 15.9641 30.3284ZM26.7028 32.4017C26.7953 32.2547 26.8853 32.1052 27.0288 31.9991L27.8438 32.7609C28.4375 33.3203 29.0335 33.8796 29.6393 34.4292C31.2547 35.895 32.875 37.3536 34.4953 38.8146L36.1594 40.3117L36.6703 40.7673L36.9477 41.0108L35.977 41.3122C35.2787 41.5292 34.6024 41.7389 33.926 41.9414L31.9481 42.5297L29.924 43.1324C28.7027 43.4988 27.4813 43.8701 26.2576 44.2414L22.8443 45.2732L20.8444 45.8759C19.6426 46.2327 18.4408 46.5919 17.2438 46.9608C17.0127 47.0331 16.8886 46.9921 16.7329 46.8162L10.8988 40.3213L10.894 40.3165L7.67526 36.734L6.42476 35.3357C5.70949 34.5305 4.99422 33.7277 4.26922 32.9345C4.02107 32.6597 4.12811 32.6115 4.3933 32.5488C5.53675 32.2836 6.67534 32.0136 7.81636 31.7412H7.8188L8.26645 31.6351L8.52677 31.5652L8.64841 31.5314C9.02551 31.9726 9.33692 32.4644 9.64832 32.9538L10.0133 33.5204C10.7699 34.6583 11.5168 35.801 12.2612 36.9438L13.682 39.1135C14.5044 40.3671 15.3315 41.616 16.1563 42.8648L16.1611 42.8696L17.616 45.0731C17.8934 45.4926 17.9128 45.4854 18.1902 45.0731L20.1146 42.2259L22.3163 38.9664C23.7542 36.8256 25.1871 34.6824 26.6177 32.5343L26.7028 32.4017Z" fill="white"/>
<path d="M118.302 36.5263C117.884 37.0084 117.419 37.4496 116.918 37.845C115.174 39.1468 113.225 39.617 111.094 39.3735C109.464 39.1878 107.926 38.737 106.544 37.8016C104.839 36.6685 103.615 34.9544 103.102 32.9847C102.094 29.2527 102.552 25.6196 104.196 22.1842C105.627 19.1899 107.987 17.1889 111.133 16.2776C113.84 15.4579 116.757 15.6194 119.356 16.7308C121.01 17.4276 122.263 18.5968 123.005 20.2916C123.426 21.2463 123.579 22.2589 123.638 23.2956C123.65 23.4643 123.596 23.539 123.416 23.5366C122.275 23.5294 121.132 23.5318 119.991 23.5415C119.762 23.5415 119.752 23.4233 119.74 23.2594L119.738 23.2353C119.638 22.1022 119.246 21.0896 118.409 20.3182C117.594 19.5684 116.585 19.214 115.517 19.0886C113.687 18.8717 111.948 19.132 110.4 20.2603C109.135 21.1837 108.245 22.4132 107.62 23.8428C106.603 26.1259 106.255 28.6476 106.617 31.1187C106.899 33.0643 107.787 34.6627 109.588 35.5619C110.909 36.2201 112.315 36.3189 113.748 36.0851C116.086 35.7042 117.568 34.2335 118.519 32.1072C118.75 31.5913 118.915 31.0536 119.081 30.516L119.122 30.3858C119.215 30.0845 119.171 29.9953 118.838 29.9977C118.037 30.0049 117.237 30.0049 116.436 30.0049C115.497 30.0049 114.558 30.0049 113.621 30.017C113.213 30.0218 113.169 29.8892 113.249 29.5348C113.42 28.7826 113.573 28.0232 113.707 27.2638C113.755 26.9914 113.918 26.9938 114.098 26.9962H121.399C121.901 26.9986 122.407 27.001 122.908 26.9962C123.149 26.9914 123.265 27.0058 123.195 27.3265C122.854 28.9297 122.526 30.5329 122.197 32.1361L121.794 34.0913L121.497 35.5137C121.285 36.5263 121.073 37.5364 120.874 38.5514C120.818 38.831 120.723 38.9323 120.436 38.9226C119.84 38.9009 119.241 38.9009 118.645 38.925C118.353 38.9371 118.29 38.8238 118.297 38.5538C118.31 38.1005 118.307 37.6473 118.305 37.1627V37.1579L118.302 36.5263Z" fill="white"/>
<path fill-rule="evenodd" clip-rule="evenodd" d="M162.998 38.9428L162.032 38.9355C161.173 38.9259 160.317 38.9235 159.458 38.9283C159.142 38.9307 159.035 38.8439 158.988 38.516C158.85 37.5348 158.701 36.5584 158.553 35.5796L158.217 33.3279C158.176 33.0386 158.1 32.9156 157.779 32.9181C155.098 32.9325 152.415 32.9301 149.734 32.9181C149.466 32.9181 149.335 33.0169 149.211 33.2387L147.807 35.717L146.128 38.6896C146.026 38.8752 145.909 38.9235 145.717 38.9235H145.62C143.184 38.9138 140.747 38.9162 138.311 38.9283C138.007 38.9307 137.922 38.7909 137.864 38.5474C137.657 37.6602 137.71 36.7634 137.783 35.8713C137.815 35.4615 137.861 35.0517 137.905 34.6418C137.983 33.9427 138.061 33.2483 138.075 32.5492C138.092 31.8935 138.085 31.2377 137.701 30.6687C137.229 29.9648 136.501 29.7406 135.737 29.6803C134.382 29.5718 133.025 29.5839 131.665 29.5959C130.979 29.6007 130.295 29.608 129.609 29.5959C129.363 29.5959 129.339 29.7454 129.315 29.8973L129.302 29.9744C128.957 31.6741 128.611 33.3737 128.271 35.0734L128.057 36.11C127.889 36.9321 127.721 37.7542 127.565 38.5787C127.514 38.8536 127.402 38.9283 127.144 38.9235C126.057 38.909 124.967 38.9114 123.88 38.9259C123.588 38.9307 123.558 38.8343 123.612 38.5715C124.916 32.2575 126.196 25.9363 127.451 19.6126L127.782 17.9901L128.071 16.587V16.5846C128.105 16.4158 128.127 16.3001 128.358 16.3025L132.073 16.3122C134.141 16.3122 136.207 16.317 138.272 16.3411C139.508 16.358 140.722 16.5725 141.856 17.1439C143.289 17.8672 144.167 19.0171 144.471 20.6083C144.771 22.1802 144.659 23.7159 143.985 25.1793C143.343 26.5631 142.243 27.3996 140.861 27.8866C140.596 27.9758 140.326 28.0578 140.053 28.1277L139.623 28.2483C140.282 28.5351 140.825 28.8847 141.216 29.4296C141.776 30.2035 141.922 31.1123 141.958 32.0429C141.987 32.8506 141.897 33.6461 141.805 34.4441C141.756 34.8853 141.705 35.3289 141.676 35.7749C141.627 36.5199 141.588 37.2648 141.71 38.0073L141.715 38.0387C141.751 38.2508 141.788 38.4726 141.951 38.692L142.255 38.1882C142.472 37.8314 142.683 37.4818 142.89 37.1274L145.569 32.5444C146.892 30.2782 148.218 28.0144 149.544 25.7506V25.7458C151.235 22.8648 152.926 19.9839 154.592 17.0861C154.925 16.5075 155.259 16.235 155.945 16.2905C156.689 16.3459 157.441 16.3315 158.193 16.3146L158.85 16.3025C159.081 16.3001 159.166 16.37 159.203 16.6087C159.504 18.4675 159.813 20.3262 160.127 22.1826L160.621 25.0418L160.623 25.0563L161.081 27.7082C161.506 30.2059 161.927 32.7059 162.346 35.2059L162.429 35.6833C162.572 36.5488 162.718 37.4143 162.866 38.2798C162.879 38.4027 162.891 38.5281 162.998 38.6173V38.9452V38.9428ZM133.424 26.592H135.572C136.423 26.5872 137.263 26.51 138.08 26.2352C140.002 25.5891 141.034 23.8726 140.693 21.8354C140.572 21.1122 140.224 20.5239 139.579 20.143C138.757 19.656 137.847 19.5716 136.932 19.5572C135.83 19.5427 134.73 19.5451 133.628 19.5499H132.236C131.417 19.5499 131.417 19.5499 131.254 20.3937L131.241 20.4419V20.4468L131.229 20.5119L130.949 21.8957C130.655 23.3567 130.358 24.8176 130.054 26.2762C129.998 26.5534 130.078 26.5968 130.322 26.5944C131.091 26.5872 131.859 26.5896 132.631 26.5896H133.424V26.592ZM156.383 20.3045L156.256 20.4974C156.2 20.5842 156.147 20.6734 156.096 20.7626L154.709 23.2771C153.548 25.3745 152.39 27.472 151.225 29.5694C151.074 29.837 151.103 29.9069 151.41 29.9045C153.415 29.8949 155.417 29.8973 157.419 29.9045C157.653 29.9045 157.735 29.8804 157.692 29.5911C157.538 28.5496 157.397 27.5033 157.254 26.457V26.4377C157.04 24.8538 156.818 23.2699 156.585 21.6884L156.582 21.6739C156.514 21.2255 156.448 20.7698 156.383 20.3045ZM102.186 25.6976C102.154 28.4701 101.735 30.9219 100.592 33.205C99.4728 35.4446 97.8428 37.1684 95.6046 38.2581C92.8067 39.6202 89.8995 39.8131 86.9654 38.9042C84.3987 38.1134 82.5521 36.4138 81.5157 33.839C80.7761 32.0092 80.6496 30.1118 80.7786 28.1663C80.9635 25.3794 81.6763 22.7684 83.3258 20.4998C85.3548 17.7153 88.087 16.1868 91.4638 15.8589C93.3858 15.6709 95.2542 15.8951 97.0156 16.7389C99.6504 18.0022 101.222 20.1551 101.906 23.0191C102.132 23.9762 102.188 24.9478 102.186 25.6976ZM92.3323 19.034C91.493 18.9954 90.5563 19.2028 89.6562 19.6126C87.9823 20.372 86.8146 21.6691 86.0068 23.306C84.7223 25.9025 84.2868 28.6557 84.805 31.5222C85.0507 32.8843 85.6614 34.0994 86.7732 34.9528C88.6076 36.3656 90.6707 36.503 92.7848 35.8279C94.5657 35.2614 95.8113 33.9644 96.6994 32.3274C98.142 29.6634 98.614 26.8066 98.1348 23.8003C97.9401 22.5563 97.4511 21.4304 96.5485 20.5456C95.4148 19.4366 94.0207 19.0147 92.3323 19.034Z" fill="white"/>
<path d="M78.5793 23.8476H78.1146C77.74 23.8428 77.3629 23.8428 76.9882 23.8525C76.7303 23.8621 76.6549 23.7801 76.6476 23.5101C76.6184 22.4566 76.3605 21.4657 75.6988 20.634C74.8959 19.6287 73.8011 19.1923 72.575 19.0669C68.8575 18.6812 66.3468 20.8172 65.0063 23.8621C64.0064 26.1235 63.6585 28.6139 64.0039 31.0585C64.2594 32.963 65.1036 34.5421 66.8188 35.4775C68.6361 36.466 71.5434 36.5648 73.3146 34.9906C74.3777 34.0431 75.0419 32.8401 75.4555 31.4852C75.5698 31.1187 75.7158 30.9789 76.11 30.991C77.105 31.0247 78.1 31.0151 79.0951 30.9958C79.4065 30.9885 79.4892 31.0609 79.4065 31.3791C78.8907 33.3897 78.0611 35.2268 76.5917 36.7095C74.5383 38.7828 72.013 39.5398 69.1933 39.4169C67.2251 39.3301 65.3688 38.8383 63.7387 37.6569C61.7511 36.2201 60.632 34.2118 60.1989 31.7986C59.834 29.7831 59.9653 27.7677 60.3619 25.7715C60.812 23.5005 61.7146 21.4464 63.2278 19.6938C64.5051 18.199 66.1643 17.0708 68.0303 16.4271C70.1153 15.699 72.2417 15.617 74.385 16.0461C76.1854 16.4078 77.7716 17.2034 78.9662 18.6812C80.1193 20.106 80.5329 21.784 80.55 23.5993C80.5524 23.8404 80.4332 23.8525 80.2531 23.85C79.8493 23.8476 79.4479 23.8452 79.044 23.8476H78.5793Z" fill="white"/>
<path fill-rule="evenodd" clip-rule="evenodd" d="M51.5839 31.109H50.0561C48.5745 31.1138 47.0928 31.1138 45.6136 31.1018C45.2633 31.0969 45.1563 31.2151 45.1368 31.5502C45.0541 32.9943 45.1319 34.4022 45.9226 35.6679C46.5649 36.6925 47.4797 37.2976 48.6474 37.5194C50.3407 37.8425 51.8905 37.5291 53.2505 36.4225C54.0874 35.7402 54.6688 34.8554 55.0362 33.8333C55.1286 33.5729 55.2478 33.4764 55.5203 33.4909C55.9218 33.5126 56.3232 33.503 56.727 33.4933H56.8341C57.0628 33.4861 57.1747 33.5078 57.0822 33.8043C56.1821 36.6491 54.4596 38.626 51.5085 39.2118C49.6936 39.5686 47.8908 39.477 46.2024 38.5609C44.8278 37.8136 43.8863 36.666 43.5068 35.1544C42.5093 31.1669 43.2732 27.5289 45.925 24.4069C47.5453 22.4975 49.679 21.6537 52.1532 21.7139C53.5302 21.7477 54.8051 22.0924 55.8999 22.9676C57.1747 23.985 57.8097 25.3664 58.0262 26.9696C58.1722 28.0545 58.1065 29.1393 58.0408 30.2242L58.0092 30.7474C57.9946 31.0487 57.8802 31.1186 57.5956 31.1162C56.0848 31.1066 54.5739 31.109 53.0607 31.109H51.5839ZM50.7324 29.3635L52.0364 29.3611C53.2334 29.3587 54.4304 29.3563 55.6249 29.3732C56.002 29.378 56.1115 29.2527 56.0872 28.891C56.075 28.7054 56.0823 28.5173 56.0872 28.3269C56.0969 28.1364 56.0994 27.9436 56.0896 27.7531C56.0093 26.4946 55.6201 25.3712 54.6737 24.5057C53.1312 23.0954 50.3675 23.1219 48.5599 24.4213C47.0028 25.54 46.0954 27.1022 45.5553 28.9296C45.4531 29.2792 45.5261 29.3732 45.8813 29.3684C47.0685 29.3587 48.2582 29.3611 49.4479 29.3611L50.7324 29.3635Z" fill="#8A8A8A"/>
<path fill-rule="evenodd" clip-rule="evenodd" d="M27.0483 32.0443L7.36385 29.5587L6.11578 29.8601C5.14263 30.0963 4.16461 30.3326 3.18902 30.564C2.20857 30.8003 1.22569 31.0293 0.242803 31.2511C-0.0613072 31.3186 -0.0613073 31.4247 0.140622 31.6296C0.310924 31.8056 0.47636 31.9912 0.641796 32.1769L1.94582 33.6306C6.66318 38.8838 11.3805 44.1395 16.0955 49.3975C16.2098 49.5253 16.295 49.5639 16.4677 49.5108C17.4822 49.1974 18.4992 48.8961 19.5161 48.5923L21.3894 48.0306L24.1021 47.2085L26.8756 46.3671L31.3764 45.017L34.7532 44.0045C36.5998 43.4596 38.4415 42.9027 40.2807 42.3313H40.2832L41.2977 42.0179L41.2077 41.9215C41.159 41.866 41.1079 41.8106 41.0544 41.76L40.8719 41.5936L40.8671 41.5912C39.4657 40.3159 38.062 39.043 36.6582 37.7724L35.2787 36.5357C34.3615 35.716 33.4443 34.8963 32.549 34.0573C31.6318 33.2039 30.7001 32.3625 29.7585 31.5356L29.7172 31.4994L28.2526 30.2193L27.0483 32.0443ZM4.3933 32.5481C4.67551 32.4831 5.89682 32.1889 7.6193 31.7743C8.02559 31.6754 8.29808 31.6224 8.63625 31.5308C8.68247 31.5187 7.31762 29.5418 7.36385 29.5587C7.36628 29.5587 27.0483 32.0443 27.0483 32.0443C27.1699 32.0732 29.598 34.3924 29.6393 34.4286C31.2547 35.8944 32.875 37.353 34.4953 38.8139L36.1594 40.3111L36.6703 40.7667L36.9477 41.0102L35.977 41.3116C35.2787 41.5285 34.6024 41.7383 33.9261 41.9408L31.9481 42.529L29.924 43.1317C28.7027 43.4982 27.4814 43.8695 26.2576 44.2407L22.8443 45.2726L20.8444 45.8753C19.6426 46.2321 18.4408 46.5913 17.2438 46.9602C17.0127 47.0325 16.8886 46.9915 16.7329 46.8155L10.8988 40.3207L10.894 40.3159L7.67526 36.7334L6.42476 35.3351C5.70949 34.5299 4.99422 33.727 4.26922 32.9339C4.02107 32.659 4.12812 32.6108 4.3933 32.5481Z" fill="#8A8A8A"/>
<path fill-rule="evenodd" clip-rule="evenodd" d="M23.1733 25.8086L12.4297 28.3689L15.3272 30.0396L20.412 28.7715L23.1733 25.8086Z" fill="#8A8A8A"/>
</svg>
