<svg width="230" height="65" viewBox="0 0 230 65" fill="none" xmlns="http://www.w3.org/2000/svg">
<g clip-path="url(#clip0_5231_42801)">
<mask id="mask0_5231_42801" style="mask-type:luminance" maskUnits="userSpaceOnUse" x="0" y="0" width="230" height="65">
<path d="M230 0H0V65H230V0Z" fill="white"/>
</mask>
<g mask="url(#mask0_5231_42801)">
<path d="M117.048 31.7917C117.017 38.2117 112.927 42.0017 106.868 42.0017C99.8375 42.0017 95.4375 36.9617 95.4375 31.3817C95.4375 25.8017 99.8975 20.7617 106.557 20.7617C110.277 20.7617 113.117 22.1117 115.817 24.6817L114.257 26.1317C111.958 23.9017 109.217 22.7217 106.587 22.7217C101.717 22.7217 97.5275 26.4417 97.5275 31.3117C97.5275 36.1817 101.447 40.1017 106.897 40.1017C110.747 40.1017 114.167 37.8017 114.737 33.7117H108.277V31.7517H117.037V31.7817L117.048 31.7917ZM121.877 34.0217C121.847 37.3317 124.448 40.0417 127.757 40.1117C131.107 40.2117 133.907 37.5717 133.977 34.2317C134.077 30.8817 131.438 28.0817 128.098 28.0117C124.748 27.9117 121.947 30.5517 121.877 33.8917V34.0317M133.607 26.5617H135.497V41.5417H133.607V38.9717C132.157 40.8317 129.917 41.9117 127.557 41.9117C123.227 41.7717 119.777 38.1617 119.917 33.8317C120.057 29.6417 123.437 26.2917 127.627 26.1917C130.027 26.1617 132.257 27.3417 133.607 29.3317V26.5617ZM151.927 41.5017H150.037V33.8317C150.037 32.6817 149.937 31.7317 149.897 31.0217C149.797 29.2617 148.278 27.9117 146.518 27.9817C145.128 27.9817 143.847 28.6217 142.997 29.7417C141.917 31.1317 141.747 32.8817 141.747 35.1517V41.5117H139.818V26.5317H141.747V29.1017C143.067 27.1717 144.727 26.1617 146.887 26.1617C149.187 26.1617 150.807 27.3417 151.617 29.7817C152.937 27.3817 154.928 26.1617 157.128 26.1617C160.238 26.1617 162.238 28.3917 162.238 32.6517V41.5117H160.307V33.3317C160.307 32.2117 160.167 31.3717 160.137 30.8317C160.037 29.5117 158.787 28.0217 156.757 28.0217C154.827 28.0517 153.137 29.2717 152.497 31.0617C152.057 32.3117 151.888 33.6617 151.958 34.9817L151.927 41.5117V41.5017ZM180.087 33.9917C180.117 30.6817 177.487 27.9717 174.167 27.9017C170.917 27.8317 168.247 30.4417 168.217 33.6817V33.9517C168.217 37.2317 170.857 39.9017 174.137 39.9017C177.417 39.9017 180.057 37.2617 180.087 33.9817M168.357 41.5217H166.427V20.7717H168.357V29.1217C169.777 27.2617 172.007 26.1417 174.378 26.1817C178.738 26.3217 182.158 29.9317 182.018 34.2917C181.878 38.4817 178.497 41.8617 174.307 41.9317C171.907 41.9317 169.677 40.7517 168.357 38.7917V41.5317V41.5217ZM186.818 34.0117C186.788 37.3217 189.387 40.0317 192.697 40.1017C196.047 40.2017 198.847 37.5617 198.917 34.2217C199.017 30.8717 196.377 28.0717 193.037 28.0017C189.687 27.9017 186.888 30.5417 186.818 33.8817V34.0217M198.548 26.5517H200.438V41.5317H198.548V38.9617C197.098 40.8217 194.857 41.9017 192.497 41.9017C188.167 41.7617 184.717 38.1517 184.857 33.7917C184.997 29.6017 188.378 26.2517 192.568 26.1517C194.968 26.1217 197.198 27.3017 198.548 29.2917V26.5517ZM206.697 29.2217C208.257 27.1917 210.107 26.1417 212.307 26.1417C215.587 26.1417 217.848 28.4117 217.848 33.1017V41.5217H215.917V33.3717C215.917 29.8517 214.797 27.8917 211.897 27.8917C210.337 27.8917 208.857 28.6317 207.938 29.9217C206.817 31.3717 206.658 32.8617 206.658 35.2317V41.5217H204.727V26.5417H206.658L206.688 29.2117L206.697 29.2217Z" fill="#132F3F"/>
<path d="M63.2178 50.0114C62.8078 50.4214 62.4378 50.7514 62.0678 51.0914L61.6978 51.3914C61.3978 51.6314 61.0878 51.9014 60.7878 52.1314L60.4478 52.4014C60.0378 52.7014 59.6378 52.9714 59.2278 53.2514L58.8878 53.4514C58.5478 53.6514 58.2478 53.8614 57.8778 54.0614L57.4678 54.3014C57.0578 54.5014 56.6578 54.7414 56.2478 54.9114L56.1478 54.9814C55.6778 55.1814 55.2378 55.3914 54.7578 55.5914L54.4178 55.7314C54.0478 55.8714 53.6378 56.0014 53.2378 56.1414L52.9378 56.2414C52.4678 56.3814 51.9578 56.5114 51.4478 56.6514C51.4178 56.6514 51.3778 56.6814 51.3078 56.6814C50.8678 56.7814 50.3978 56.8814 49.9578 56.9514L49.6178 57.0214L48.1978 57.2214H48.0978L46.5778 57.3214H44.6478C44.1378 57.3214 43.6978 57.2914 43.1978 57.2214L42.8578 57.1914C42.2878 57.1214 41.7378 57.0514 41.1678 56.9514L40.3878 56.7814C39.9478 56.6814 39.4778 56.5814 39.0378 56.4414L38.5278 56.3014L38.2578 56.2014L44.9178 49.5714C54.3178 49.9414 62.2578 42.6114 62.5978 33.2114C62.7378 29.8014 61.8578 26.4514 60.0278 23.5414L55.8378 27.7314V37.9714H48.8078V23.8414L60.1378 12.4514C61.1878 13.2314 62.1678 14.0414 63.1178 14.9514C72.8878 24.6214 72.8878 40.3114 63.2178 50.0114ZM27.9578 50.0814C18.2878 40.3814 18.2878 24.6914 27.9578 15.0214L27.9878 14.9914C28.3578 14.6214 28.7278 14.2814 29.1078 13.9414L29.4778 13.6414C29.7778 13.4014 30.0878 13.1314 30.3578 12.9014L30.6978 12.6314C31.1078 12.3314 31.5078 12.0614 31.9178 11.7814L32.2578 11.5814C32.5978 11.3814 32.8978 11.1714 33.2678 10.9714L33.6778 10.7314C34.0878 10.5314 34.4878 10.2914 34.8978 10.1214L34.9978 10.0514C35.4678 9.85141 35.9078 9.64141 36.3878 9.44141L36.7278 9.30141C37.0978 9.16141 37.5078 9.03141 37.9078 8.89141L38.2078 8.79141C38.6778 8.65141 39.1878 8.52141 39.6978 8.38141H39.8378C40.2778 8.28141 40.7478 8.18141 41.1878 8.11141L41.5278 8.04141L42.9478 7.84141H43.0478L44.5678 7.74141H46.4978C47.0078 7.74141 47.4478 7.77141 47.9478 7.84141L48.2878 7.87141C48.6578 7.90141 48.9978 7.97141 49.3678 8.01141L49.9778 8.11141C50.2478 8.14141 50.4878 8.21141 50.7578 8.28141C51.1978 8.38141 51.6678 8.48141 52.1078 8.62141L52.6178 8.76141L52.8878 8.86141L46.2278 15.4914C36.8278 15.1214 28.8878 22.4214 28.5078 31.8514C28.3378 35.3014 29.2178 38.6814 31.0478 41.5514L35.2378 37.3614V27.1214H42.2678V41.2514L30.9378 52.6414C29.8878 51.8614 28.8778 51.0214 27.9578 50.0714M45.5678 1.94141C28.6678 1.94141 15.0078 15.6314 15.0078 32.5014C15.0078 49.3714 28.6978 63.0614 45.5678 63.0614C62.4378 63.0614 76.1278 49.3714 76.1278 32.5014C76.1578 15.6314 62.4678 1.94141 45.5678 1.94141Z" fill="#DD6048"/>
</g>
</g>
<defs>
<clipPath id="clip0_5231_42801">
<rect width="230" height="65" fill="white"/>
</clipPath>
</defs>
</svg>
