<svg width="176" height="49" viewBox="0 0 176 49" fill="none" xmlns="http://www.w3.org/2000/svg">
<mask id="mask0_4922_41702" style="mask-type:luminance" maskUnits="userSpaceOnUse" x="4" y="0" width="168" height="49">
<path d="M171.846 0.898438H4.15625V48.0967H171.846V0.898438Z" fill="white"/>
</mask>
<g mask="url(#mask0_4922_41702)">
<path d="M68.4074 12.9742C68.3385 13.1175 68.2161 13.223 68.063 13.2607L64.8874 14.1879C64.4971 14.301 64.2982 14.1879 64.1375 13.8035C63.7625 12.2355 62.2627 11.1801 60.6328 11.3384C57.6484 11.3384 56.623 13.0798 56.623 15.4318V20.8293C56.623 23.1738 57.6331 24.9227 60.6328 24.9227C63.1044 24.9227 64.367 23.7919 64.367 21.3268V20.5881H61.1378C60.9083 20.6032 60.7093 20.4448 60.694 20.2187C60.694 20.1885 60.694 20.1584 60.694 20.1207V17.1958C60.6634 16.9696 60.8241 16.7661 61.0536 16.7359C61.0766 16.7359 61.1072 16.7359 61.1302 16.7359H68.3156C68.5375 16.7058 68.7517 16.8565 68.7823 17.0752C68.7823 17.1053 68.7823 17.1355 68.7823 17.1732V21.6359C68.7823 25.9027 65.599 29.1216 60.6557 29.1216C54.7942 29.1216 52.0547 25.6992 52.0547 21.0253V15.3187C52.0547 10.6147 54.7942 7.22238 60.6557 7.22238C65.4001 7.22238 67.5427 9.88346 68.3997 12.5596M84.5305 17.8667V28.3376C84.5458 28.5638 84.3698 28.7598 84.1326 28.7748C84.1173 28.7748 84.102 28.7748 84.0867 28.7748H80.8422C80.6049 28.7975 80.3983 28.6316 80.3754 28.4055C80.3754 28.3828 80.3754 28.3678 80.3754 28.3451V26.6339C79.4418 28.1868 77.7277 29.1292 75.8912 29.099C72.8303 29.099 70.8484 27.1541 70.8484 24.1688C70.8484 21.1836 72.7079 19.5252 77.238 19.2085C78.2175 19.1332 79.2046 19.1332 80.1841 19.2085V18.0175C80.1841 16.4495 79.3576 15.8087 77.942 15.8087C76.9243 15.6655 75.9601 16.2987 75.6999 17.2862C75.5469 17.633 75.4397 17.6933 75.1107 17.6028L71.8662 16.7887C71.5448 16.6982 71.5142 16.5248 71.5754 16.2987C72.0192 13.9995 74.2307 12.3184 78.1103 12.3184C82.2043 12.3184 84.4999 14.2332 84.4999 17.8365M80.1688 23.317V21.8545C79.3041 21.8244 78.4394 21.8545 77.5747 21.945C75.9295 22.141 75.0418 22.6385 75.0418 23.8899C75.0418 25.0132 75.7917 25.6238 77.0773 25.6238C78.5083 25.6539 79.7785 24.7267 80.1688 23.3622M96.2154 12.3636C98.0825 12.3335 99.7354 13.5396 100.248 15.3036C101.457 13.5622 102.926 12.3636 104.992 12.3636C107.847 12.3636 109.477 14.5724 109.477 17.9345V28.3602C109.461 28.6165 109.232 28.8125 108.964 28.7975H105.566C105.306 28.8276 105.069 28.6392 105.038 28.3828V18.7035C105.038 17.2259 104.388 16.3816 103.24 16.3816C102.092 16.3816 101.151 17.3767 100.707 18.8844V28.3678C100.723 28.5939 100.554 28.7824 100.325 28.7975C100.317 28.7975 100.302 28.7975 100.294 28.7975H96.6286C96.3684 28.7975 96.246 28.6241 96.246 28.3602V18.6959C96.246 17.2184 95.5956 16.3741 94.4477 16.3741C93.2999 16.3741 92.3281 17.4219 91.9149 18.907V28.3602C91.9378 28.5788 91.7771 28.7748 91.5552 28.7975C91.5323 28.7975 91.5016 28.7975 91.4787 28.7975H87.8822C87.6603 28.8201 87.4613 28.6618 87.4383 28.4432C87.4383 28.4205 87.4383 28.3904 87.4383 28.3678V13.1099C87.4383 12.8838 87.622 12.7028 87.8516 12.7028C87.8592 12.7028 87.8745 12.7028 87.8822 12.7028H91.3256C91.5476 12.6802 91.7465 12.8461 91.7618 13.0647C91.7618 13.0798 91.7618 13.0948 91.7618 13.1099V14.9342C92.726 13.3888 94.4095 12.4239 96.246 12.3561M127.995 12.7104C128.087 13.0873 127.995 13.3738 127.612 13.4492L124.49 14.3462C124.245 14.4593 123.947 14.3613 123.832 14.1201C123.809 14.0748 123.794 14.0221 123.786 13.9693C123.335 12.4918 122.577 11.3535 120.396 11.3535C117.718 11.3535 116.861 13.0948 116.861 15.4468V20.8444C116.861 23.1888 117.833 24.9378 120.396 24.9378C122.7 24.9378 123.58 23.6562 123.932 22.0581C123.955 21.7942 124.192 21.6058 124.46 21.6284C124.521 21.6284 124.582 21.651 124.636 21.6812L127.765 22.6838C128.071 22.7742 128.247 23.0833 128.156 23.3848C128.156 23.3999 128.156 23.4075 128.14 23.4225C127.39 26.5585 125.11 29.099 120.335 29.099C114.979 29.099 112.27 25.6765 112.27 21.0027V15.3112C112.27 10.6072 115.032 7.21484 120.335 7.21484C124.988 7.21484 127.168 9.64977 127.987 12.7255M143.651 17.8667V28.3376C143.667 28.5638 143.491 28.7598 143.253 28.7748C143.238 28.7748 143.223 28.7748 143.207 28.7748H139.963C139.726 28.7975 139.519 28.6316 139.496 28.4055C139.496 28.3828 139.496 28.3678 139.496 28.3451V26.6264C138.563 28.1793 136.848 29.1216 135.012 29.0915C131.951 29.0915 129.977 27.1465 129.977 24.1613C129.977 21.1761 131.829 19.5176 136.359 19.201C137.338 19.1256 138.325 19.1256 139.312 19.201V18.0099C139.312 16.4419 138.486 15.8012 137.07 15.8012C136.053 15.6655 135.096 16.2987 134.828 17.2787C134.683 17.6255 134.568 17.6858 134.239 17.5953L131.002 16.7812C130.673 16.6907 130.643 16.5173 130.704 16.2912C131.148 13.9919 133.359 12.3108 137.246 12.3108C141.34 12.3108 143.628 14.2256 143.628 17.829M139.305 23.3095V21.847C138.44 21.8168 137.575 21.847 136.711 21.9375C135.065 22.1335 134.178 22.631 134.178 23.8824C134.178 25.0056 134.928 25.6162 136.213 25.6162C137.644 25.6464 138.915 24.7116 139.305 23.3547M156.254 12.9968V16.1027C156.254 16.4796 156.101 16.6228 155.726 16.6228H155.252C152.903 16.6228 151.518 17.6707 151.043 19.4121V28.3451C151.059 28.5713 150.89 28.7598 150.661 28.7824H146.919C146.689 28.7748 146.521 28.5788 146.528 28.3602V13.1099C146.521 12.8913 146.689 12.7104 146.903 12.7028C146.926 12.7028 146.942 12.7028 146.965 12.7028H150.324C150.676 12.7028 150.768 12.929 150.768 13.1702V15.3187C151.648 13.5245 153.522 12.4164 155.543 12.4767C156.132 12.4767 156.293 12.5672 156.293 12.9667M162.039 22.0355V22.6461C162.039 24.3347 162.927 25.5182 165.024 25.5182C167.12 25.5182 167.618 24.7795 168.146 23.8145C168.406 23.3773 168.528 23.3245 168.995 23.5205L171.314 24.6815C171.796 24.9152 171.819 25.1488 171.612 25.5785C170.61 27.7873 168.108 29.0915 164.985 29.0915C160.272 29.0915 157.8 26.3399 157.8 22.5632V18.8844C157.8 15.2056 160.119 12.3485 164.955 12.3485C169.791 12.3485 171.788 15.2282 171.788 18.7939V21.3495C171.788 21.7867 171.635 22.0882 171.038 22.0882L162.032 22.043L162.039 22.0355ZM162.039 18.6432V19.1935H167.725V18.6432C167.855 17.2335 166.807 15.9896 165.376 15.8539C165.215 15.8388 165.054 15.8388 164.901 15.8539C163.455 15.7258 162.177 16.7736 162.047 18.1984C162.032 18.3492 162.032 18.4924 162.047 18.6432" fill="white"/>
<path d="M24.5263 0.898438H4.76077C4.43173 0.898438 4.15625 1.15475 4.15625 1.4789V29.8009C4.15625 39.9024 12.4742 48.0892 22.7281 48.0892H24.5187C34.7726 48.0892 43.0829 39.9024 43.0829 29.8009V19.1867C43.0829 9.08521 34.7726 0.898438 24.5187 0.898438M37.1218 30.11C37.1218 37.0001 31.9872 42.2017 23.9983 42.2017C14.5326 42.2017 10.1173 36.6684 10.1173 29.1224V19.9029C10.1173 12.3041 14.5402 6.78598 23.9907 6.78598C31.6429 6.78598 35.1169 11.098 36.502 15.41C36.7086 15.8472 36.5096 16.3674 36.0658 16.5709C36.0276 16.586 35.9816 16.6011 35.9434 16.6161L30.8011 18.0937C30.1889 18.2746 29.8523 18.0937 29.6686 17.4831C28.8575 14.9049 27.1434 13.5027 24.006 13.5027C19.1545 13.5027 17.5399 16.3146 17.5399 20.1215V28.8511C17.5399 32.6504 19.1545 35.4698 24.006 35.4698C28.0004 35.4698 30.0895 33.638 30.0895 29.6577V28.5194H24.7329C24.3656 28.5646 24.0366 28.3158 23.983 27.9615C23.9754 27.9012 23.9754 27.8409 23.983 27.7806V22.9484C23.9524 22.5715 24.2356 22.2398 24.6182 22.2097C24.6564 22.2097 24.6947 22.2097 24.7329 22.2097H36.3643C36.7316 22.1644 37.0606 22.4132 37.1065 22.7751C37.1065 22.8203 37.1065 22.8655 37.1065 22.9107L37.1218 30.1175V30.11Z" fill="#8A8A8A"/>
<path d="M56.4513 35.0332C56.4819 35.0859 56.4666 35.1538 56.4131 35.1839C56.4054 35.1839 56.3978 35.1915 56.3901 35.1915L55.8698 35.3498C55.7856 35.3498 55.7397 35.3498 55.7091 35.2819C55.556 34.6939 54.9898 34.2944 54.37 34.3472C53.643 34.2492 52.9696 34.7543 52.8701 35.4704C52.8548 35.591 52.8548 35.7041 52.8701 35.8247V37.7772C52.7706 38.4933 53.2833 39.1567 54.0103 39.2547C54.1327 39.2698 54.2475 39.2698 54.37 39.2547C55.2117 39.2547 55.7703 38.8703 55.7703 38.0109V37.2721H54.546C54.4771 37.2721 54.4388 37.2721 54.4388 37.159V36.7519C54.4388 36.6766 54.4388 36.6389 54.546 36.6389H56.4437C56.4973 36.6313 56.5508 36.669 56.5661 36.7293C56.5661 36.7369 56.5661 36.7444 56.5661 36.7519V38.1089C56.5738 39.1869 55.7014 40.0689 54.6072 40.0764C54.5306 40.0764 54.4541 40.0764 54.3776 40.0689C53.2451 40.197 52.2197 39.4055 52.0896 38.2898C52.0743 38.1466 52.0743 38.0033 52.0896 37.8601V35.7946C51.9825 34.6789 52.8166 33.6838 53.9491 33.5858C54.0945 33.5707 54.2399 33.5707 54.3853 33.5858C55.3418 33.5104 56.2141 34.1059 56.4743 35.0106M60.507 38.531V37.7923C60.155 37.7696 59.803 37.7696 59.4433 37.7923C58.7853 37.8676 58.3873 38.0938 58.3873 38.629C58.3567 39.0361 58.6628 39.3904 59.076 39.4206C59.1373 39.4206 59.2061 39.4206 59.2673 39.413C59.8259 39.413 60.3157 39.0587 60.4993 38.531M61.2493 36.6464V39.8653C61.2493 39.9332 61.2493 39.9633 61.1345 39.9633H60.6141C60.5376 39.9633 60.4993 39.9633 60.4993 39.8653V39.2547C60.2086 39.7447 59.6729 40.0387 59.099 40.0387C58.3491 40.1141 57.6833 39.5789 57.6068 38.8401C57.6068 38.7798 57.5992 38.7195 57.6068 38.6592C57.6068 37.7998 58.196 37.3249 59.3439 37.2419C59.7188 37.2193 60.0938 37.2193 60.4687 37.2419V36.6992C60.4687 36.081 60.1014 35.8247 59.5122 35.8247C59.076 35.7569 58.6552 36.0207 58.548 36.4429C58.548 36.5258 58.4868 36.5333 58.395 36.5183L57.89 36.375C57.8058 36.375 57.7828 36.3147 57.8058 36.2469C57.9588 35.5986 58.5557 35.1764 59.5275 35.1764C60.4993 35.1764 61.2339 35.6513 61.2339 36.6539M64.6698 35.1689C65.2054 35.1613 65.6722 35.5081 65.81 36.0132C66.0931 35.5081 66.6211 35.1915 67.2026 35.1689C67.9143 35.1689 68.4882 35.7493 68.4806 36.4504C68.4806 36.5032 68.4806 36.5484 68.4729 36.6012V39.8427C68.4729 39.9181 68.427 39.9483 68.3505 39.9483H67.8378C67.7536 39.9483 67.7153 39.9483 67.7153 39.8427V36.7444C67.7153 36.1715 67.4552 35.8624 66.9654 35.8624C66.468 35.9152 66.0548 36.2695 65.9247 36.7444V39.8578C65.9247 39.9332 65.9247 39.9633 65.8176 39.9633H65.2437C65.1595 39.9633 65.1366 39.9633 65.1366 39.8578V36.7444C65.1366 36.1715 64.884 35.8624 64.3866 35.8624C63.8969 35.9303 63.4913 36.277 63.346 36.7444V39.8201C63.346 39.8955 63.346 39.9256 63.2388 39.9256H62.6726C62.5884 39.9256 62.5654 39.9256 62.5654 39.8201V35.3498C62.5654 35.2895 62.5654 35.2518 62.6726 35.2518H63.2235C63.3077 35.2518 63.3306 35.2895 63.3306 35.3498V35.9679C63.6061 35.493 64.1035 35.1915 64.6621 35.1689M70.5926 37.0761V38.1616C70.5466 38.7723 71.0211 39.2999 71.6409 39.3452C71.6868 39.3452 71.7327 39.3452 71.7786 39.3452C72.4673 39.3452 72.8806 38.9456 72.8806 38.1616V37.0686C72.8806 36.2846 72.4673 35.8699 71.7786 35.8699C71.1512 35.8549 70.6232 36.3449 70.6079 36.9706C70.6079 37.0083 70.6079 37.0384 70.6079 37.0761M70.6079 33.5556V35.9001C70.9063 35.4252 71.4419 35.1387 72.0159 35.1613C72.9188 35.1463 73.6534 35.8549 73.6687 36.7369C73.6687 36.8047 73.6687 36.8801 73.6611 36.9479V38.2521C73.7606 39.1341 73.1178 39.9256 72.2225 40.0236C72.1459 40.0312 72.0694 40.0387 71.9853 40.0312C71.419 40.0463 70.891 39.7673 70.5926 39.2924V39.8352C70.5926 39.903 70.539 39.9256 70.4854 39.9256H69.9345C69.8656 39.9256 69.8273 39.9256 69.8273 39.8352V33.5481C69.8273 33.5029 69.858 33.4576 69.9115 33.4501C69.9115 33.4501 69.9192 33.4501 69.9268 33.4501H70.516C70.5849 33.4501 70.6079 33.4501 70.6079 33.5481M75.6583 33.5481V39.8352C75.6583 39.9106 75.6583 39.9407 75.5512 39.9407H74.9849C74.8931 39.9407 74.8701 39.9407 74.8701 39.8352V33.5481C74.8701 33.4803 74.8701 33.4426 74.9849 33.4426H75.5512C75.5971 33.435 75.6506 33.4652 75.6583 33.5104C75.6583 33.5179 75.6583 33.533 75.6583 33.5406M77.755 35.3423V39.8427C77.755 39.9106 77.755 39.9407 77.6555 39.9407H77.0893C76.9974 39.9407 76.9745 39.9407 76.9745 39.8427V35.3423C76.9745 35.2744 76.9745 35.2443 77.0893 35.2443H77.6555C77.732 35.2443 77.755 35.2443 77.755 35.3423ZM77.755 33.5707V34.3924C77.755 34.4753 77.755 34.5206 77.6249 34.5206H77.1046C77.0433 34.5281 76.9898 34.4904 76.9745 34.4301C76.9745 34.4226 76.9745 34.4075 76.9745 34.3999V33.5783C76.9668 33.5179 77.0051 33.4652 77.0663 33.4501C77.0739 33.4501 77.0893 33.4501 77.0969 33.4501H77.6173C77.7167 33.4501 77.7473 33.4953 77.7473 33.5783M79.8746 36.7821V39.8503C79.8746 39.9181 79.8746 39.9483 79.7752 39.9483H79.2395C79.1477 39.9483 79.1247 39.9483 79.1247 39.8503V35.3498C79.1247 35.2895 79.1247 35.2518 79.2319 35.2518H79.7828C79.867 35.2518 79.89 35.2895 79.89 35.3498V35.9679C80.219 35.4704 80.7853 35.1689 81.3898 35.1689C82.1473 35.1463 82.7825 35.7418 82.7978 36.4881C82.7978 36.5635 82.7978 36.6464 82.7825 36.7218V39.8578C82.7825 39.9256 82.7825 39.9558 82.6677 39.9558H82.1014C82.0249 39.9558 81.9866 39.9558 81.9866 39.8578V36.8424C81.9866 36.2393 81.7112 35.885 81.1143 35.885C80.5633 35.9152 80.0889 36.277 79.9129 36.7896M84.619 36.865C84.5731 37.3852 84.9633 37.8375 85.4913 37.8827C85.5602 37.8827 85.6214 37.8827 85.6903 37.8827C86.1877 37.9506 86.6468 37.6038 86.7157 37.1063C86.7233 37.0309 86.7233 36.963 86.7157 36.8876C86.7539 36.3223 86.3254 35.8247 85.7439 35.787C85.1623 35.7493 84.6649 36.1715 84.6266 36.7444C84.6266 36.7896 84.6266 36.8424 84.6266 36.8876M87.1289 40.4232C87.1289 40.0839 86.9376 39.7673 86.2336 39.7673H85.3613C84.7032 39.7673 84.5042 40.099 84.5042 40.4383C84.5042 40.9056 84.8792 41.2223 85.7974 41.2223C86.7157 41.2223 87.1366 40.8981 87.1366 40.4307M87.8865 40.3779C87.8865 41.1167 87.3049 41.7801 85.7592 41.7801C84.3359 41.7801 83.7696 41.2524 83.7696 40.5136C83.7696 40.0538 84.0757 39.6467 84.5195 39.4959C84.3206 39.3603 84.1981 39.1416 84.1828 38.9004C84.1905 38.6064 84.3818 38.3426 84.6649 38.237C84.1828 37.9656 83.892 37.4455 83.915 36.8952C83.8691 36.0433 84.5425 35.3121 85.4072 35.2744C85.499 35.2744 85.5985 35.2744 85.6903 35.2895H87.7717C87.8329 35.2895 87.8635 35.3272 87.8635 35.395V35.8172C87.8635 35.9001 87.8176 35.9303 87.7564 35.9303H86.9299C87.259 36.1941 87.435 36.5936 87.412 37.0158C87.412 37.8827 86.8228 38.4933 85.6903 38.4933H85.3C84.971 38.4933 84.8256 38.6441 84.8256 38.8175C84.8256 38.9909 84.9786 39.1416 85.3 39.1416H86.3254C87.4503 39.1416 87.8865 39.6919 87.8865 40.3779ZM95.0106 34.9352C95.0336 34.9804 95.0106 35.0407 94.9724 35.0633C94.9571 35.0633 94.9494 35.0709 94.9341 35.0709L94.452 35.2518C94.3908 35.2744 94.322 35.2518 94.299 35.1839C94.1306 34.6563 93.618 34.317 93.067 34.3547C92.3171 34.3547 91.8962 34.7015 91.8962 35.2669C91.8962 35.8323 92.21 36.0056 93.396 36.473C94.5821 36.9404 95.0872 37.4455 95.0872 38.3199C95.0642 39.3226 94.2148 40.1066 93.2047 40.0839C93.1512 40.0839 93.09 40.0839 93.0364 40.0689C92.0799 40.1669 91.1922 39.5563 90.9473 38.6441C90.9473 38.5536 90.9473 38.5159 91.0239 38.4933L91.5289 38.335C91.6284 38.335 91.6666 38.335 91.6896 38.4255C91.8426 39.0286 92.4166 39.4206 93.044 39.3527C93.7939 39.3527 94.276 38.9833 94.276 38.3878C94.276 37.7923 93.9929 37.5736 92.9063 37.1666C91.6054 36.6615 91.1157 36.1564 91.1157 35.2895C91.1539 34.3321 91.9727 33.5858 92.9446 33.6235C92.9981 33.6235 93.044 33.6235 93.0976 33.6386C93.9776 33.5783 94.7887 34.1135 95.0642 34.9427M96.2503 38.5386V35.395C96.2503 35.3272 96.2886 35.2895 96.3651 35.2895H96.9313C97.0079 35.2895 97.0461 35.3272 97.0461 35.395V38.4029C97.0461 39.0135 97.3216 39.3678 97.9108 39.3678C98.4618 39.3376 98.9439 38.9758 99.1122 38.4556V35.395C99.1122 35.3272 99.1122 35.2895 99.227 35.2895H99.7856C99.8774 35.2895 99.9004 35.3272 99.9004 35.395V39.8879C99.9004 39.9558 99.9004 39.9935 99.7933 39.9935H99.2423C99.1964 40.001 99.1428 39.9709 99.1352 39.9256C99.1352 39.9181 99.1352 39.903 99.1352 39.8955V39.2849C98.8061 39.7899 98.2475 40.0915 97.6353 40.099C96.8701 40.1141 96.2426 39.5186 96.2273 38.7647C96.2273 38.6893 96.2273 38.6215 96.2426 38.5461M104.277 38.2069V37.0836C104.369 36.5258 103.979 35.9981 103.413 35.9152C103.336 35.9001 103.26 35.9001 103.176 35.9076C102.556 35.8926 102.035 36.375 102.012 36.9856C102.012 37.0233 102.012 37.0535 102.012 37.0912V38.1993C101.966 38.8175 102.433 39.3527 103.061 39.3979C103.099 39.3979 103.137 39.3979 103.176 39.3979C103.864 39.3979 104.277 38.9833 104.277 38.2069ZM101.331 41.7198C101.285 41.7198 101.24 41.6896 101.232 41.6369C101.232 41.6369 101.232 41.6293 101.232 41.6218V35.4026C101.232 35.3347 101.27 35.3046 101.339 35.3046H101.89C101.936 35.297 101.982 35.3272 101.997 35.3799C101.997 35.3875 101.997 35.395 101.997 35.4026V35.9303C102.296 35.4629 102.824 35.1839 103.39 35.1915C104.285 35.1613 105.043 35.8549 105.073 36.7444C105.073 36.8198 105.073 36.8876 105.066 36.963V38.2823C105.165 39.1643 104.515 39.9633 103.619 40.0613C103.55 40.0613 103.489 40.0689 103.42 40.0689C102.854 40.099 102.318 39.8126 102.02 39.3301V41.5841C102.02 41.6293 101.989 41.6746 101.936 41.6821C101.936 41.6821 101.928 41.6821 101.921 41.6821L101.331 41.7198ZM109.328 38.2144V37.0912C109.42 36.5333 109.029 36.0056 108.463 35.9227C108.387 35.9076 108.31 35.9076 108.226 35.9152C107.606 35.9001 107.086 36.3826 107.063 36.9932C107.063 37.0309 107.063 37.061 107.063 37.0987V38.2069C107.017 38.825 107.484 39.3603 108.111 39.4055C108.149 39.4055 108.18 39.4055 108.218 39.4055C108.907 39.4055 109.32 38.9909 109.32 38.2144M106.374 41.7273C106.328 41.7273 106.282 41.6972 106.275 41.6444C106.275 41.6444 106.275 41.6369 106.275 41.6293V35.4101C106.275 35.3423 106.313 35.3121 106.382 35.3121H106.933C106.979 35.3046 107.025 35.3347 107.04 35.3875C107.04 35.395 107.04 35.4026 107.04 35.4101V35.9378C107.338 35.4704 107.866 35.1915 108.433 35.199C109.328 35.1689 110.085 35.8549 110.124 36.7444C110.124 36.8198 110.124 36.8952 110.116 36.9706V38.2898C110.216 39.1718 109.565 39.9709 108.67 40.0689C108.601 40.0689 108.54 40.0764 108.471 40.0764C107.905 40.099 107.369 39.8201 107.07 39.3376V41.5916C107.07 41.6369 107.04 41.6821 106.986 41.6896C106.986 41.6896 106.979 41.6896 106.971 41.6896L106.374 41.7273ZM112.006 37.0912V38.2823C112.006 38.9004 112.519 39.4055 113.146 39.4055C113.774 39.4055 114.286 38.9004 114.286 38.2823V37.0912C114.286 36.473 113.774 35.9679 113.146 35.9679C112.519 35.9679 112.006 36.473 112.006 37.0912ZM115.075 37.0535V38.2823C115.075 39.3301 114.21 40.1819 113.146 40.1744C112.083 40.1744 111.226 39.3226 111.226 38.2823V37.0761C111.226 36.0283 112.09 35.1764 113.154 35.1839C114.218 35.1839 115.075 36.0358 115.075 37.0761M118.656 35.3423V35.8624C118.656 35.9453 118.656 35.9755 118.533 35.9755H118.434C117.822 35.9529 117.263 36.3373 117.072 36.9103V39.903C117.072 39.9709 117.026 39.9935 116.972 39.9935H116.383C116.337 39.9935 116.299 39.9633 116.291 39.9181C116.291 39.9181 116.291 39.9106 116.291 39.903V35.4252C116.291 35.3498 116.291 35.3272 116.398 35.3272H116.934C117.011 35.3272 117.049 35.3649 117.049 35.4327V36.1715C117.332 35.6136 117.914 35.2744 118.549 35.297C118.664 35.297 118.694 35.297 118.694 35.4101M120.936 34.2266V35.3498H121.954C122.03 35.3498 122.061 35.3875 122.061 35.4704V35.8926C122.061 35.9755 122.061 36.0056 121.954 36.0056H120.936V38.7195C120.936 39.1416 121.166 39.3301 121.602 39.3301H121.946C122.023 39.3301 122.061 39.3301 122.061 39.4356V39.9106C122.061 39.9935 122.061 40.0236 121.946 40.0236H121.487C120.852 40.1141 120.27 39.6844 120.179 39.0587C120.171 38.9833 120.163 38.9079 120.171 38.8326V36.0132H119.521C119.459 36.0132 119.421 36.0132 119.421 35.9001V35.4779C119.421 35.395 119.459 35.3573 119.521 35.3573H120.179V34.2266C120.179 34.1663 120.179 34.1286 120.293 34.1286H120.829C120.921 34.1286 120.944 34.1286 120.944 34.2266M129.499 35.0256C129.499 35.1161 129.499 35.1839 129.369 35.2141L128.535 35.5156C128.458 35.5533 128.366 35.5232 128.321 35.4478C128.321 35.4403 128.313 35.4252 128.305 35.4176C128.16 35.0332 127.77 34.7919 127.356 34.8372C126.844 34.8372 126.507 35.0784 126.507 35.4478C126.507 35.8172 126.767 35.9679 127.93 36.3675C129.093 36.767 129.56 37.3098 129.56 38.2144C129.56 39.2999 128.619 40.1216 127.257 40.1216C126.216 40.2423 125.244 39.6015 124.969 38.6064C124.938 38.531 124.984 38.4481 125.061 38.4179L125.964 38.1239C126.086 38.0863 126.14 38.1239 126.17 38.2446C126.27 38.727 126.744 39.0512 127.242 38.9833C127.854 38.9833 128.175 38.727 128.175 38.3426C128.175 37.9581 127.946 37.8299 127.004 37.5058C125.65 37.0309 125.137 36.4956 125.137 35.5156C125.221 34.4301 126.178 33.6235 127.272 33.6989C127.288 33.6989 127.31 33.6989 127.326 33.6989C128.282 33.6084 129.178 34.1663 129.491 35.0633M132.177 34.2944V35.3573H133.073C133.141 35.3498 133.203 35.395 133.218 35.4629C133.218 35.4704 133.218 35.4855 133.218 35.493V36.2695C133.218 36.3373 133.172 36.3976 133.103 36.4052C133.096 36.4052 133.088 36.4052 133.08 36.4052H132.185V38.5009C132.185 38.7723 132.338 38.9306 132.69 38.9306H133.08C133.172 38.9306 133.226 38.9758 133.226 39.0587V39.9332C133.226 40.0236 133.172 40.0613 133.08 40.0613H132.476C131.397 40.0613 130.892 39.5035 130.892 38.6743V36.3901H130.341C130.272 36.3976 130.211 36.3524 130.195 36.277C130.195 36.2695 130.195 36.2619 130.195 36.2544V35.4779C130.188 35.4101 130.234 35.3498 130.302 35.3347C130.31 35.3347 130.325 35.3347 130.333 35.3347H130.907V34.2944C130.899 34.2266 130.945 34.1738 131.014 34.1587C131.022 34.1587 131.029 34.1587 131.037 34.1587H132.055C132.139 34.1587 132.177 34.2115 132.177 34.2944ZM136.677 38.433V37.9883C136.424 37.9732 136.179 37.9732 135.927 37.9883C135.445 38.0486 135.177 38.1918 135.177 38.5612C135.177 38.9306 135.399 39.0738 135.774 39.0738C136.195 39.0738 136.57 38.8024 136.684 38.4029M137.962 36.7821V39.8729C137.962 39.9407 137.909 40.001 137.832 40.001H136.868C136.799 40.001 136.738 39.9558 136.73 39.8804V39.3678C136.455 39.8352 135.95 40.1141 135.406 40.1066C134.641 40.1669 133.968 39.609 133.907 38.8552C133.907 38.7798 133.907 38.7044 133.907 38.6366C133.907 37.7772 134.458 37.2646 135.797 37.159C136.088 37.1364 136.378 37.1364 136.661 37.159V36.8273C136.707 36.5183 136.485 36.2318 136.172 36.1866C136.118 36.179 136.057 36.179 136.003 36.1866C135.705 36.1489 135.422 36.3298 135.338 36.6238C135.292 36.7293 135.261 36.7519 135.169 36.7218L134.213 36.4881C134.113 36.4881 134.106 36.4052 134.129 36.3373C134.259 35.6589 134.878 35.1689 136.049 35.1689C137.22 35.1689 137.939 35.7267 137.939 36.7896M141.834 35.3649V36.2846C141.834 36.3976 141.788 36.4353 141.681 36.4353H141.536C140.97 36.3675 140.442 36.7143 140.296 37.257V39.8879C140.304 39.9483 140.258 40.001 140.197 40.0161C140.197 40.0161 140.189 40.0161 140.181 40.0161H139.087C139.026 40.0161 138.972 39.9709 138.972 39.903C138.972 39.903 138.972 39.8955 138.972 39.8879V35.4026C138.972 35.3423 139.011 35.2895 139.08 35.2819C139.087 35.2819 139.095 35.2819 139.102 35.2819H140.097C140.166 35.2819 140.22 35.3272 140.227 35.395C140.227 35.4026 140.227 35.4101 140.227 35.4176V36.1036C140.488 35.5759 141.031 35.2518 141.628 35.2744C141.796 35.2744 141.834 35.2744 141.834 35.4252M144.39 34.317V35.3799H145.285C145.354 35.3799 145.416 35.4252 145.423 35.493C145.423 35.5006 145.423 35.5081 145.423 35.5156V36.2921C145.431 36.3599 145.385 36.4127 145.324 36.4278C145.316 36.4278 145.301 36.4278 145.293 36.4278H144.398V38.5235C144.398 38.7949 144.551 38.9532 144.895 38.9532H145.293C145.362 38.9456 145.416 38.9909 145.431 39.0587C145.431 39.0663 145.431 39.0738 145.431 39.0813V39.9558C145.431 40.0463 145.377 40.0839 145.293 40.0839H144.689C143.61 40.0839 143.112 39.5261 143.112 38.6969V36.4127H142.554C142.485 36.4203 142.431 36.375 142.416 36.3147C142.416 36.3072 142.416 36.2921 142.416 36.2846V35.5081C142.408 35.4403 142.454 35.3799 142.531 35.3649C142.538 35.3649 142.546 35.3649 142.554 35.3649H143.128V34.3246C143.12 34.2567 143.166 34.2039 143.227 34.1889C143.235 34.1889 143.25 34.1889 143.258 34.1889H144.275C144.344 34.1889 144.398 34.2416 144.398 34.3095C144.398 34.3095 144.398 34.317 144.398 34.3246M150.076 36.375C150.076 36.4504 150.076 36.5183 149.969 36.5409L149.173 36.8198C149.081 36.8198 149.035 36.8198 149.004 36.7218C148.882 36.3901 148.538 36.179 148.178 36.2167C147.765 36.2167 147.528 36.375 147.528 36.6087C147.528 36.8424 147.696 36.9329 148.622 37.1741C149.693 37.453 150.122 37.9129 150.122 38.6516C150.122 39.5638 149.372 40.1292 148.178 40.1292C146.984 40.1292 146.357 39.707 146.112 38.9909C146.112 38.8853 146.112 38.8401 146.242 38.7873L146.946 38.4481C147.053 38.3953 147.107 38.4481 147.16 38.5536C147.321 38.9381 147.711 39.1718 148.132 39.1341C148.614 39.1341 148.882 38.9758 148.882 38.7195C148.882 38.4632 148.614 38.335 147.757 38.1013C146.701 37.8299 146.257 37.3626 146.257 36.6238C146.257 35.7267 147.007 35.1463 148.124 35.1463C148.958 35.0633 149.754 35.5307 150.068 36.2996M158.133 33.9099V39.9106C158.133 39.9859 158.133 40.0387 157.996 40.0387H156.932C156.863 40.0387 156.802 39.9935 156.794 39.9181V37.5435H154.606V39.9256C154.606 39.9935 154.56 40.0463 154.491 40.0538C154.483 40.0538 154.476 40.0538 154.468 40.0538H153.374C153.305 40.0538 153.244 40.0086 153.236 39.9332V33.9099C153.236 33.8421 153.29 33.7818 153.366 33.7818C153.366 33.7818 153.374 33.7818 153.381 33.7818H154.468C154.537 33.7743 154.59 33.8195 154.606 33.8873C154.606 33.8949 154.606 33.9024 154.606 33.9099V36.2921H156.794V33.9099C156.794 33.8421 156.848 33.7818 156.924 33.7818H158.019C158.118 33.7818 158.156 33.8346 158.156 33.9099M160.444 37.0836V37.2419H162.12V37.0836C162.158 36.6313 161.814 36.2318 161.347 36.1941C160.888 36.1564 160.483 36.4956 160.444 36.9555C160.444 37.0007 160.444 37.0459 160.444 37.0836ZM160.444 38.0863V38.2672C160.376 38.6667 160.651 39.0512 161.064 39.119C161.148 39.1341 161.24 39.1341 161.324 39.119C161.707 39.1793 162.09 38.9758 162.243 38.6215C162.327 38.4858 162.365 38.4707 162.495 38.531L163.184 38.8778C163.329 38.9456 163.337 39.0135 163.276 39.1416C162.893 39.8427 162.12 40.2423 161.317 40.1744C160.284 40.3101 159.342 39.5939 159.205 38.5838C159.189 38.4783 159.182 38.3652 159.189 38.2596V37.1515C159.144 36.1338 159.939 35.2669 160.972 35.2216C161.08 35.2216 161.194 35.2216 161.301 35.2367C162.312 35.1387 163.214 35.8624 163.314 36.8575C163.322 36.9479 163.322 37.0384 163.314 37.1364V37.8752C163.314 38.0033 163.268 38.0863 163.084 38.0863H160.452H160.444ZM167.094 35.395V36.3147C167.094 36.4278 167.056 36.4655 166.933 36.4655H166.796C166.229 36.3976 165.701 36.7444 165.556 37.2872V39.9181C165.556 39.9859 165.51 40.0387 165.441 40.0463H164.339C164.278 40.0463 164.225 40.001 164.225 39.9332C164.225 39.9332 164.225 39.9256 164.225 39.9181V35.4327C164.225 35.3724 164.263 35.3196 164.332 35.3121C164.339 35.3121 164.347 35.3121 164.355 35.3121H165.349C165.457 35.3121 165.48 35.3799 165.48 35.4478V36.1338C165.74 35.6061 166.283 35.2819 166.88 35.3046C167.056 35.3046 167.086 35.3046 167.086 35.4553M168.984 37.1063V37.2646H170.66V37.1063C170.698 36.6539 170.354 36.2544 169.887 36.2167C169.428 36.179 169.022 36.5183 168.984 36.9781C168.984 37.0233 168.984 37.0686 168.984 37.1063ZM168.984 38.1089V38.2898C168.915 38.6893 169.191 39.0738 169.604 39.1416C169.688 39.1567 169.78 39.1567 169.864 39.1416C170.254 39.2019 170.629 38.9984 170.79 38.6441C170.867 38.5084 170.905 38.4933 171.035 38.5536L171.724 38.9004C171.869 38.9683 171.877 39.0361 171.816 39.1643C171.433 39.8653 170.66 40.2649 169.857 40.197C168.824 40.3252 167.882 39.6015 167.76 38.5838C167.745 38.4783 167.745 38.3803 167.745 38.2747V37.1666C167.699 36.1489 168.494 35.2819 169.528 35.2367C169.635 35.2367 169.749 35.2367 169.857 35.2518C170.867 35.1538 171.77 35.8775 171.869 36.8726C171.877 36.963 171.877 37.0535 171.869 37.1515V37.8903C171.869 38.0184 171.823 38.1013 171.64 38.1013H168.992L168.984 38.1089Z" fill="white"/>
</g>
</svg>
