<svg width="230" height="65" viewBox="0 0 230 65" fill="none" xmlns="http://www.w3.org/2000/svg">
<g clip-path="url(#clip0_5231_42856)">
<mask id="mask0_5231_42856" style="mask-type:luminance" maskUnits="userSpaceOnUse" x="5" y="1" width="220" height="63">
<path d="M224.57 1.19141H5.42969V63.8014H224.57V1.19141Z" fill="white"/>
</mask>
<g mask="url(#mask0_5231_42856)">
<path d="M89.3934 17.2103C89.3034 17.4003 89.1434 17.5403 88.9434 17.5903L84.7934 18.8203C84.2834 18.9703 84.0234 18.8203 83.8134 18.3103C83.3234 16.2303 81.3634 14.8303 79.2334 15.0403C75.3334 15.0403 73.9934 17.3503 73.9934 20.4703V27.6303C73.9934 30.7403 75.3134 33.0603 79.2334 33.0603C82.4634 33.0603 84.1134 31.5603 84.1134 28.2903V27.3103H79.8934C79.5934 27.3303 79.3334 27.1203 79.3134 26.8203C79.3134 26.7803 79.3134 26.7403 79.3134 26.6903V22.8103C79.2734 22.5103 79.4834 22.2403 79.7834 22.2003C79.8134 22.2003 79.8534 22.2003 79.8834 22.2003H89.2734C89.5634 22.1603 89.8434 22.3603 89.8834 22.6503C89.8834 22.6903 89.8834 22.7303 89.8834 22.7803V28.7003C89.8834 34.3603 85.7234 38.6303 79.2634 38.6303C71.6034 38.6303 68.0234 34.0903 68.0234 27.8903V20.3203C68.0234 14.0803 71.6034 9.58031 79.2634 9.58031C85.4634 9.58031 88.2634 13.1103 89.3834 16.6603M110.463 23.7003V37.5903C110.483 37.8903 110.253 38.1503 109.943 38.1703C109.923 38.1703 109.903 38.1703 109.883 38.1703H105.643C105.333 38.2003 105.063 37.9803 105.033 37.6803C105.033 37.6503 105.033 37.6303 105.033 37.6003V35.3303C103.813 37.3903 101.573 38.6403 99.1734 38.6003C95.1734 38.6003 92.5834 36.0203 92.5834 32.0603C92.5834 28.1003 95.0134 25.9003 100.933 25.4803C102.213 25.3803 103.503 25.3803 104.783 25.4803V23.9003C104.783 21.8203 103.703 20.9703 101.853 20.9703C100.523 20.7803 99.2634 21.6203 98.9234 22.9303C98.7234 23.3903 98.5834 23.4703 98.1534 23.3503L93.9134 22.2703C93.4934 22.1503 93.4534 21.9203 93.5334 21.6203C94.1134 18.5703 97.0034 16.3403 102.073 16.3403C107.423 16.3403 110.423 18.8803 110.423 23.6603M104.763 30.9303V28.9903C103.633 28.9503 102.503 28.9903 101.373 29.1103C99.2234 29.3703 98.0634 30.0303 98.0634 31.6903C98.0634 33.1803 99.0434 33.9903 100.723 33.9903C102.593 34.0303 104.253 32.8003 104.763 30.9903M125.733 16.4003C128.173 16.3603 130.333 17.9603 131.003 20.3003C132.583 17.9903 134.503 16.4003 137.203 16.4003C140.933 16.4003 143.063 19.3303 143.063 23.7903V37.6203C143.043 37.9603 142.743 38.2203 142.393 38.2003H137.953C137.613 38.2403 137.303 37.9903 137.263 37.6503V24.8103C137.263 22.8503 136.413 21.7303 134.913 21.7303C133.413 21.7303 132.183 23.0503 131.603 25.0503V37.6303C131.623 37.9303 131.403 38.1803 131.103 38.2003C131.093 38.2003 131.073 38.2003 131.063 38.2003H126.273C125.933 38.2003 125.773 37.9703 125.773 37.6203V24.8003C125.773 22.8403 124.923 21.7203 123.423 21.7203C121.923 21.7203 120.653 23.1103 120.113 25.0803V37.6203C120.143 37.9103 119.933 38.1703 119.643 38.2003C119.613 38.2003 119.573 38.2003 119.543 38.2003H114.843C114.553 38.2303 114.293 38.0203 114.263 37.7303C114.263 37.7003 114.263 37.6603 114.263 37.6303V17.3903C114.263 17.0903 114.503 16.8503 114.803 16.8503C114.813 16.8503 114.833 16.8503 114.843 16.8503H119.343C119.633 16.8203 119.893 17.0403 119.913 17.3303C119.913 17.3503 119.913 17.3703 119.913 17.3903V19.8103C121.173 17.7603 123.373 16.4803 125.773 16.3903M167.263 16.8603C167.383 17.3603 167.263 17.7403 166.763 17.8403L162.683 19.0303C162.363 19.1803 161.973 19.0503 161.823 18.7303C161.793 18.6703 161.773 18.6003 161.763 18.5303C161.173 16.5703 160.183 15.0603 157.333 15.0603C153.833 15.0603 152.713 17.3703 152.713 20.4903V27.6503C152.713 30.7603 153.983 33.0803 157.333 33.0803C160.343 33.0803 161.493 31.3803 161.953 29.2603C161.983 28.9103 162.293 28.6603 162.643 28.6903C162.723 28.6903 162.803 28.7203 162.873 28.7603L166.963 30.0903C167.363 30.2103 167.593 30.6203 167.473 31.0203C167.473 31.0403 167.473 31.0503 167.453 31.0703C166.473 35.2303 163.493 38.6003 157.253 38.6003C150.253 38.6003 146.713 34.0603 146.713 27.8603V20.3103C146.713 14.0703 150.323 9.57031 157.253 9.57031C163.333 9.57031 166.183 12.8003 167.253 16.8803M187.723 23.7003V37.5903C187.743 37.8903 187.513 38.1503 187.203 38.1703C187.183 38.1703 187.163 38.1703 187.143 38.1703H182.903C182.593 38.2003 182.323 37.9803 182.293 37.6803C182.293 37.6503 182.293 37.6303 182.293 37.6003V35.3203C181.073 37.3803 178.833 38.6303 176.433 38.5903C172.433 38.5903 169.853 36.0103 169.853 32.0503C169.853 28.0903 172.273 25.8903 178.193 25.4703C179.473 25.3703 180.763 25.3703 182.053 25.4703V23.8903C182.053 21.8103 180.973 20.9603 179.123 20.9603C177.793 20.7803 176.543 21.6203 176.193 22.9203C176.003 23.3803 175.853 23.4603 175.423 23.3403L171.193 22.2603C170.763 22.1403 170.723 21.9103 170.803 21.6103C171.383 18.5603 174.273 16.3303 179.353 16.3303C184.703 16.3303 187.693 18.8703 187.693 23.6503M182.043 30.9203V28.9803C180.913 28.9403 179.783 28.9803 178.653 29.1003C176.503 29.3603 175.343 30.0203 175.343 31.6803C175.343 33.1703 176.323 33.9803 178.003 33.9803C179.873 34.0203 181.533 32.7803 182.043 30.9803M204.193 17.2403V21.3603C204.193 21.8603 203.993 22.0503 203.503 22.0503H202.883C199.813 22.0503 198.003 23.4403 197.383 25.7503V37.6003C197.403 37.9003 197.183 38.1503 196.883 38.1803H191.993C191.693 38.1703 191.473 37.9103 191.483 37.6203V17.3903C191.473 17.1003 191.693 16.8603 191.973 16.8503C192.003 16.8503 192.023 16.8503 192.053 16.8503H196.443C196.903 16.8503 197.023 17.1503 197.023 17.4703V20.3203C198.173 17.9403 200.623 16.4703 203.263 16.5503C204.033 16.5503 204.243 16.6703 204.243 17.2003M211.753 29.2303V30.0403C211.753 32.2803 212.913 33.8503 215.653 33.8503C218.393 33.8503 219.043 32.8703 219.733 31.5903C220.073 31.0103 220.233 30.9403 220.843 31.2003L223.873 32.7403C224.503 33.0503 224.533 33.3603 224.263 33.9303C222.953 36.8603 219.683 38.5903 215.603 38.5903C209.443 38.5903 206.213 34.9403 206.213 29.9303V25.0503C206.213 20.1703 209.243 16.3803 215.563 16.3803C221.883 16.3803 224.493 20.2003 224.493 24.9303V28.3203C224.493 28.9003 224.293 29.3003 223.513 29.3003L211.743 29.2403L211.753 29.2303ZM211.753 24.7303V25.4603H219.183V24.7303C219.353 22.8603 217.983 21.2103 216.113 21.0303C215.903 21.0103 215.693 21.0103 215.493 21.0303C213.603 20.8603 211.933 22.2503 211.763 24.1403C211.743 24.3403 211.743 24.5303 211.763 24.7303" fill="black"/>
<path d="M32.0497 1.19141H6.21969C5.78969 1.19141 5.42969 1.53141 5.42969 1.96141V39.5314C5.42969 52.9314 16.2997 63.7914 29.6997 63.7914H32.0397C45.4397 63.7914 56.2997 52.9314 56.2997 39.5314V25.4514C56.2997 12.0514 45.4397 1.19141 32.0397 1.19141M48.5097 39.9414C48.5097 49.0814 41.7997 55.9814 31.3597 55.9814C18.9897 55.9814 13.2197 48.6414 13.2197 38.6314V26.4014C13.2197 16.3214 18.9997 9.00141 31.3497 9.00141C41.3497 9.00141 45.8897 14.7214 47.6997 20.4414C47.9697 21.0214 47.7097 21.7114 47.1297 21.9814C47.0797 22.0014 47.0197 22.0214 46.9697 22.0414L40.2497 24.0014C39.4497 24.2414 39.0097 24.0014 38.7697 23.1914C37.7097 19.7714 35.4697 17.9114 31.3697 17.9114C25.0297 17.9114 22.9197 21.6414 22.9197 26.6914V38.2714C22.9197 43.3114 25.0297 47.0514 31.3697 47.0514C36.5897 47.0514 39.3197 44.6214 39.3197 39.3414V37.8314H32.3197C31.8397 37.8914 31.4097 37.5614 31.3397 37.0914C31.3297 37.0114 31.3297 36.9314 31.3397 36.8514V30.4414C31.2997 29.9414 31.6697 29.5014 32.1697 29.4614C32.2197 29.4614 32.2697 29.4614 32.3197 29.4614H47.5197C47.9997 29.4014 48.4297 29.7314 48.4897 30.2114C48.4897 30.2714 48.4897 30.3314 48.4897 30.3914L48.5097 39.9514V39.9414Z" fill="#2E008B"/>
<path d="M73.7697 46.4709C73.8097 46.5409 73.7897 46.6309 73.7197 46.6709C73.7097 46.6709 73.6997 46.6809 73.6897 46.6809L73.0097 46.8909C72.8997 46.8909 72.8397 46.8909 72.7997 46.8009C72.5997 46.0209 71.8597 45.4909 71.0497 45.5609C70.0997 45.4309 69.2197 46.1009 69.0897 47.0509C69.0697 47.2109 69.0697 47.3609 69.0897 47.5209V50.1109C68.9597 51.0609 69.6297 51.9409 70.5797 52.0709C70.7397 52.0909 70.8897 52.0909 71.0497 52.0709C72.1497 52.0709 72.8797 51.5609 72.8797 50.4209V49.4409H71.2797C71.1897 49.4409 71.1397 49.4409 71.1397 49.2909V48.7509C71.1397 48.6509 71.1397 48.6009 71.2797 48.6009H73.7597C73.8297 48.5909 73.8997 48.6409 73.9197 48.7209C73.9197 48.7309 73.9197 48.7409 73.9197 48.7509V50.5509C73.9297 51.9809 72.7897 53.1509 71.3597 53.1609C71.2597 53.1609 71.1597 53.1609 71.0597 53.1509C69.5797 53.3209 68.2397 52.2709 68.0697 50.7909C68.0497 50.6009 68.0497 50.4109 68.0697 50.2209V47.4809C67.9297 46.0009 69.0197 44.6809 70.4997 44.5509C70.6897 44.5309 70.8797 44.5309 71.0697 44.5509C72.3197 44.4509 73.4597 45.2409 73.7997 46.4409M79.0697 51.1109V50.1309C78.6097 50.1009 78.1497 50.1009 77.6797 50.1309C76.8197 50.2309 76.2997 50.5309 76.2997 51.2409C76.2597 51.7809 76.6597 52.2509 77.1997 52.2909C77.2797 52.2909 77.3697 52.2909 77.4497 52.2809C78.1797 52.2809 78.8197 51.8109 79.0597 51.1109M80.0397 48.6109V52.8809C80.0397 52.9709 80.0397 53.0109 79.8897 53.0109H79.2097C79.1097 53.0109 79.0597 53.0109 79.0597 52.8809V52.0709C78.6797 52.7209 77.9797 53.1109 77.2297 53.1109C76.2497 53.2109 75.3797 52.5009 75.2797 51.5209C75.2797 51.4409 75.2697 51.3609 75.2797 51.2809C75.2797 50.1409 76.0497 49.5109 77.5497 49.4009C78.0397 49.3709 78.5297 49.3709 79.0197 49.4009V48.6809C79.0197 47.8609 78.5397 47.5209 77.7697 47.5209C77.1997 47.4309 76.6497 47.7809 76.5097 48.3409C76.5097 48.4509 76.4297 48.4609 76.3097 48.4409L75.6497 48.2509C75.5397 48.2509 75.5097 48.1709 75.5397 48.0809C75.7397 47.2209 76.5197 46.6609 77.7897 46.6609C79.0597 46.6609 80.0197 47.2909 80.0197 48.6209M84.5097 46.6509C85.2097 46.6409 85.8197 47.1009 85.9997 47.7709C86.3697 47.1009 87.0597 46.6809 87.8197 46.6509C88.7497 46.6509 89.4997 47.4209 89.4897 48.3509C89.4897 48.4209 89.4897 48.4809 89.4797 48.5509V52.8509C89.4797 52.9509 89.4197 52.9909 89.3197 52.9909H88.6497C88.5397 52.9909 88.4897 52.9909 88.4897 52.8509V48.7409C88.4897 47.9809 88.1497 47.5709 87.5097 47.5709C86.8597 47.6409 86.3197 48.1109 86.1497 48.7409V52.8709C86.1497 52.9709 86.1497 53.0109 86.0097 53.0109H85.2597C85.1497 53.0109 85.1197 53.0109 85.1197 52.8709V48.7409C85.1197 47.9809 84.7897 47.5709 84.1397 47.5709C83.4997 47.6609 82.9697 48.1209 82.7797 48.7409V52.8209C82.7797 52.9209 82.7797 52.9609 82.6397 52.9609H81.8997C81.7897 52.9609 81.7597 52.9609 81.7597 52.8209V46.8909C81.7597 46.8109 81.7597 46.7609 81.8997 46.7609H82.6197C82.7297 46.7609 82.7597 46.8109 82.7597 46.8909V47.7109C83.1197 47.0809 83.7697 46.6809 84.4997 46.6509M92.2497 49.1809V50.6209C92.1897 51.4309 92.8097 52.1309 93.6197 52.1909C93.6797 52.1909 93.7397 52.1909 93.7997 52.1909C94.6997 52.1909 95.2397 51.6609 95.2397 50.6209V49.1709C95.2397 48.1309 94.6997 47.5809 93.7997 47.5809C92.9797 47.5609 92.2897 48.2109 92.2697 49.0409C92.2697 49.0909 92.2697 49.1309 92.2697 49.1809M92.2697 44.5109V47.6209C92.6597 46.9909 93.3597 46.6109 94.1097 46.6409C95.2897 46.6209 96.2497 47.5609 96.2697 48.7309C96.2697 48.8209 96.2697 48.9209 96.2597 49.0109V50.7409C96.3897 51.9109 95.5497 52.9609 94.3797 53.0909C94.2797 53.1009 94.1797 53.1109 94.0697 53.1009C93.3297 53.1209 92.6397 52.7509 92.2497 52.1209V52.8409C92.2497 52.9309 92.1797 52.9609 92.1097 52.9609H91.3897C91.2997 52.9609 91.2497 52.9609 91.2497 52.8409V44.5009C91.2497 44.4409 91.2897 44.3809 91.3597 44.3709C91.3597 44.3709 91.3697 44.3709 91.3797 44.3709H92.1497C92.2397 44.3709 92.2697 44.3709 92.2697 44.5009M98.8697 44.5009V52.8409C98.8697 52.9409 98.8697 52.9809 98.7297 52.9809H97.9897C97.8697 52.9809 97.8397 52.9809 97.8397 52.8409V44.5009C97.8397 44.4109 97.8397 44.3609 97.9897 44.3609H98.7297C98.7897 44.3509 98.8597 44.3909 98.8697 44.4509C98.8697 44.4609 98.8697 44.4809 98.8697 44.4909M101.61 46.8809V52.8509C101.61 52.9409 101.61 52.9809 101.48 52.9809H100.74C100.62 52.9809 100.59 52.9809 100.59 52.8509V46.8809C100.59 46.7909 100.59 46.7509 100.74 46.7509H101.48C101.58 46.7509 101.61 46.7509 101.61 46.8809ZM101.61 44.5309V45.6209C101.61 45.7309 101.61 45.7909 101.44 45.7909H100.76C100.68 45.8009 100.61 45.7509 100.59 45.6709C100.59 45.6609 100.59 45.6409 100.59 45.6309V44.5409C100.58 44.4609 100.63 44.3909 100.71 44.3709C100.72 44.3709 100.74 44.3709 100.75 44.3709H101.43C101.56 44.3709 101.6 44.4309 101.6 44.5409M104.38 48.7909V52.8609C104.38 52.9509 104.38 52.9909 104.25 52.9909H103.55C103.43 52.9909 103.4 52.9909 103.4 52.8609V46.8909C103.4 46.8109 103.4 46.7609 103.54 46.7609H104.26C104.37 46.7609 104.4 46.8109 104.4 46.8909V47.7109C104.83 47.0509 105.57 46.6509 106.36 46.6509C107.35 46.6209 108.18 47.4109 108.2 48.4009C108.2 48.5009 108.2 48.6109 108.18 48.7109V52.8709C108.18 52.9609 108.18 53.0009 108.03 53.0009H107.29C107.19 53.0009 107.14 53.0009 107.14 52.8709V48.8709C107.14 48.0709 106.78 47.6009 106 47.6009C105.28 47.6409 104.66 48.1209 104.43 48.8009M110.58 48.9009C110.52 49.5909 111.03 50.1909 111.72 50.2509C111.81 50.2509 111.89 50.2509 111.98 50.2509C112.63 50.3409 113.23 49.8809 113.32 49.2209C113.33 49.1209 113.33 49.0309 113.32 48.9309C113.37 48.1809 112.81 47.5209 112.05 47.4709C111.29 47.4209 110.64 47.9809 110.59 48.7409C110.59 48.8009 110.59 48.8709 110.59 48.9309M113.86 53.6209C113.86 53.1709 113.61 52.7509 112.69 52.7509H111.55C110.69 52.7509 110.43 53.1909 110.43 53.6409C110.43 54.2609 110.92 54.6809 112.12 54.6809C113.32 54.6809 113.87 54.2509 113.87 53.6309M114.85 53.5609C114.85 54.5409 114.09 55.4209 112.07 55.4209C110.21 55.4209 109.47 54.7209 109.47 53.7409C109.47 53.1309 109.87 52.5909 110.45 52.3909C110.19 52.2109 110.03 51.9209 110.01 51.6009C110.02 51.2109 110.27 50.8609 110.64 50.7209C110.01 50.3609 109.63 49.6709 109.66 48.9409C109.6 47.8109 110.48 46.8409 111.61 46.7909C111.73 46.7909 111.86 46.7909 111.98 46.8109H114.7C114.78 46.8109 114.82 46.8609 114.82 46.9509V47.5109C114.82 47.6209 114.76 47.6609 114.68 47.6609H113.6C114.03 48.0109 114.26 48.5409 114.23 49.1009C114.23 50.2509 113.46 51.0609 111.98 51.0609H111.47C111.04 51.0609 110.85 51.2609 110.85 51.4909C110.85 51.7209 111.05 51.9209 111.47 51.9209H112.81C114.28 51.9209 114.85 52.6509 114.85 53.5609ZM124.16 46.3409C124.19 46.4009 124.16 46.4809 124.11 46.5109C124.09 46.5109 124.08 46.5209 124.06 46.5209L123.43 46.7609C123.35 46.7909 123.26 46.7609 123.23 46.6709C123.01 45.9709 122.34 45.5209 121.62 45.5709C120.64 45.5709 120.09 46.0309 120.09 46.7809C120.09 47.5309 120.5 47.7609 122.05 48.3809C123.6 49.0009 124.26 49.6709 124.26 50.8309C124.23 52.1609 123.12 53.2009 121.8 53.1709C121.73 53.1709 121.65 53.1709 121.58 53.1509C120.33 53.2809 119.17 52.4709 118.85 51.2609C118.85 51.1409 118.85 51.0909 118.95 51.0609L119.61 50.8509C119.74 50.8509 119.79 50.8509 119.82 50.9709C120.02 51.7709 120.77 52.2909 121.59 52.2009C122.57 52.2009 123.2 51.7109 123.2 50.9209C123.2 50.1309 122.83 49.8409 121.41 49.3009C119.71 48.6309 119.07 47.9609 119.07 46.8109C119.12 45.5409 120.19 44.5509 121.46 44.6009C121.53 44.6009 121.59 44.6009 121.66 44.6209C122.81 44.5409 123.87 45.2509 124.23 46.3509M125.78 51.1209V46.9509C125.78 46.8609 125.83 46.8109 125.93 46.8109H126.67C126.77 46.8109 126.82 46.8609 126.82 46.9509V50.9409C126.82 51.7509 127.18 52.2209 127.95 52.2209C128.67 52.1809 129.3 51.7009 129.52 51.0109V46.9509C129.52 46.8609 129.52 46.8109 129.67 46.8109H130.4C130.52 46.8109 130.55 46.8609 130.55 46.9509V52.9109C130.55 53.0009 130.55 53.0509 130.41 53.0509H129.69C129.63 53.0609 129.56 53.0209 129.55 52.9609C129.55 52.9509 129.55 52.9309 129.55 52.9209V52.1109C129.12 52.7809 128.39 53.1809 127.59 53.1909C126.59 53.2109 125.77 52.4209 125.75 51.4209C125.75 51.3209 125.75 51.2309 125.77 51.1309M136.27 50.6809V49.1909C136.39 48.4509 135.88 47.7509 135.14 47.6409C135.04 47.6209 134.94 47.6209 134.83 47.6309C134.02 47.6109 133.34 48.2509 133.31 49.0609C133.31 49.1109 133.31 49.1509 133.31 49.2009V50.6709C133.25 51.4909 133.86 52.2009 134.68 52.2609C134.73 52.2609 134.78 52.2609 134.83 52.2609C135.73 52.2609 136.27 51.7109 136.27 50.6809ZM132.42 55.3409C132.36 55.3409 132.3 55.3009 132.29 55.2309C132.29 55.2309 132.29 55.2209 132.29 55.2109V46.9609C132.29 46.8709 132.34 46.8309 132.43 46.8309H133.15C133.21 46.8209 133.27 46.8609 133.29 46.9309C133.29 46.9409 133.29 46.9509 133.29 46.9609V47.6609C133.68 47.0409 134.37 46.6709 135.11 46.6809C136.28 46.6409 137.27 47.5609 137.31 48.7409C137.31 48.8409 137.31 48.9309 137.3 49.0309V50.7809C137.43 51.9509 136.58 53.0109 135.41 53.1409C135.32 53.1409 135.24 53.1509 135.15 53.1509C134.41 53.1909 133.71 52.8109 133.32 52.1709V55.1609C133.32 55.2209 133.28 55.2809 133.21 55.2909C133.21 55.2909 133.2 55.2909 133.19 55.2909L132.42 55.3409ZM142.87 50.6909V49.2009C142.99 48.4609 142.48 47.7609 141.74 47.6509C141.64 47.6309 141.54 47.6309 141.43 47.6409C140.62 47.6209 139.94 48.2609 139.91 49.0709C139.91 49.1209 139.91 49.1609 139.91 49.2109V50.6809C139.85 51.5009 140.46 52.2109 141.28 52.2709C141.33 52.2709 141.37 52.2709 141.42 52.2709C142.32 52.2709 142.86 51.7209 142.86 50.6909M139.01 55.3509C138.95 55.3509 138.89 55.3109 138.88 55.2409C138.88 55.2409 138.88 55.2309 138.88 55.2209V46.9709C138.88 46.8809 138.93 46.8409 139.02 46.8409H139.74C139.8 46.8309 139.86 46.8709 139.88 46.9409C139.88 46.9509 139.88 46.9609 139.88 46.9709V47.6709C140.27 47.0509 140.96 46.6809 141.7 46.6909C142.87 46.6509 143.86 47.5609 143.91 48.7409C143.91 48.8409 143.91 48.9409 143.9 49.0409V50.7909C144.03 51.9609 143.18 53.0209 142.01 53.1509C141.92 53.1509 141.84 53.1609 141.75 53.1609C141.01 53.1909 140.31 52.8209 139.92 52.1809V55.1709C139.92 55.2309 139.88 55.2909 139.81 55.3009C139.81 55.3009 139.8 55.3009 139.79 55.3009L139.01 55.3509ZM146.37 49.2009V50.7809C146.37 51.6009 147.04 52.2709 147.86 52.2709C148.68 52.2709 149.35 51.6009 149.35 50.7809V49.2009C149.35 48.3809 148.68 47.7109 147.86 47.7109C147.04 47.7109 146.37 48.3809 146.37 49.2009ZM150.38 49.1509V50.7809C150.38 52.1709 149.25 53.3009 147.86 53.2909C146.47 53.2909 145.35 52.1609 145.35 50.7809V49.1809C145.35 47.7909 146.48 46.6609 147.87 46.6709C149.26 46.6709 150.38 47.8009 150.38 49.1809M155.06 46.8809V47.5709C155.06 47.6809 155.06 47.7209 154.9 47.7209H154.77C153.97 47.6909 153.24 48.2009 152.99 48.9609V52.9309C152.99 53.0209 152.93 53.0509 152.86 53.0509H152.09C152.03 53.0509 151.98 53.0109 151.97 52.9509C151.97 52.9509 151.97 52.9409 151.97 52.9309V46.9909C151.97 46.8909 151.97 46.8609 152.11 46.8609H152.81C152.91 46.8609 152.96 46.9109 152.96 47.0009V47.9809C153.33 47.2409 154.09 46.7909 154.92 46.8209C155.07 46.8209 155.11 46.8209 155.11 46.9709M158.04 45.4009V46.8909H159.37C159.47 46.8909 159.51 46.9409 159.51 47.0509V47.6109C159.51 47.7209 159.51 47.7609 159.37 47.7609H158.04V51.3609C158.04 51.9209 158.34 52.1709 158.91 52.1709H159.36C159.46 52.1709 159.51 52.1709 159.51 52.3109V52.9409C159.51 53.0509 159.51 53.0909 159.36 53.0909H158.76C157.93 53.2109 157.17 52.6409 157.05 51.8109C157.04 51.7109 157.03 51.6109 157.04 51.5109V47.7709H156.19C156.11 47.7709 156.06 47.7709 156.06 47.6209V47.0609C156.06 46.9509 156.11 46.9009 156.19 46.9009H157.05V45.4009C157.05 45.3209 157.05 45.2709 157.2 45.2709H157.9C158.02 45.2709 158.05 45.2709 158.05 45.4009M169.23 46.4609C169.23 46.5809 169.23 46.6709 169.06 46.7109L167.97 47.1109C167.87 47.1609 167.75 47.1209 167.69 47.0209C167.69 47.0109 167.68 46.9909 167.67 46.9809C167.48 46.4709 166.97 46.1509 166.43 46.2109C165.76 46.2109 165.32 46.5309 165.32 47.0209C165.32 47.5109 165.66 47.7109 167.18 48.2409C168.7 48.7709 169.31 49.4909 169.31 50.6909C169.31 52.1309 168.08 53.2209 166.3 53.2209C164.94 53.3809 163.67 52.5309 163.31 51.2109C163.27 51.1109 163.33 51.0009 163.43 50.9609L164.61 50.5709C164.77 50.5209 164.84 50.5709 164.88 50.7309C165.01 51.3709 165.63 51.8009 166.28 51.7109C167.08 51.7109 167.5 51.3709 167.5 50.8609C167.5 50.3509 167.2 50.1809 165.97 49.7509C164.2 49.1209 163.53 48.4109 163.53 47.1109C163.64 45.6709 164.89 44.6009 166.32 44.7009C166.34 44.7009 166.37 44.7009 166.39 44.7009C167.64 44.5809 168.81 45.3209 169.22 46.5109M172.73 45.4909V46.9009H173.9C173.99 46.8909 174.07 46.9509 174.09 47.0409C174.09 47.0509 174.09 47.0709 174.09 47.0809V48.1109C174.09 48.2009 174.03 48.2809 173.94 48.2909C173.93 48.2909 173.92 48.2909 173.91 48.2909H172.74V51.0709C172.74 51.4309 172.94 51.6409 173.4 51.6409H173.91C174.03 51.6409 174.1 51.7009 174.1 51.8109V52.9709C174.1 53.0909 174.03 53.1409 173.91 53.1409H173.12C171.71 53.1409 171.05 52.4009 171.05 51.3009V48.2709H170.33C170.24 48.2809 170.16 48.2209 170.14 48.1209C170.14 48.1109 170.14 48.1009 170.14 48.0909V47.0609C170.13 46.9709 170.19 46.8909 170.28 46.8709C170.29 46.8709 170.31 46.8709 170.32 46.8709H171.07V45.4909C171.06 45.4009 171.12 45.3309 171.21 45.3109C171.22 45.3109 171.23 45.3109 171.24 45.3109H172.57C172.68 45.3109 172.73 45.3809 172.73 45.4909ZM178.61 50.9809V50.3909C178.28 50.3709 177.96 50.3709 177.63 50.3909C177 50.4709 176.65 50.6609 176.65 51.1509C176.65 51.6409 176.94 51.8309 177.43 51.8309C177.98 51.8309 178.47 51.4709 178.62 50.9409M180.29 48.7909V52.8909C180.29 52.9809 180.22 53.0609 180.12 53.0609H178.86C178.77 53.0609 178.69 53.0009 178.68 52.9009V52.2209C178.32 52.8409 177.66 53.2109 176.95 53.2009C175.95 53.2809 175.07 52.5409 174.99 51.5409C174.99 51.4409 174.99 51.3409 174.99 51.2509C174.99 50.1109 175.71 49.4309 177.46 49.2909C177.84 49.2609 178.22 49.2609 178.59 49.2909V48.8509C178.65 48.4409 178.36 48.0609 177.95 48.0009C177.88 47.9909 177.8 47.9909 177.73 48.0009C177.34 47.9509 176.97 48.1909 176.86 48.5809C176.8 48.7209 176.76 48.7509 176.64 48.7109L175.39 48.4009C175.26 48.4009 175.25 48.2909 175.28 48.2009C175.45 47.3009 176.26 46.6509 177.79 46.6509C179.32 46.6509 180.26 47.3909 180.26 48.8009M185.35 46.9109V48.1309C185.35 48.2809 185.29 48.3309 185.15 48.3309H184.96C184.22 48.2409 183.53 48.7009 183.34 49.4209V52.9109C183.35 52.9909 183.29 53.0609 183.21 53.0809C183.21 53.0809 183.2 53.0809 183.19 53.0809H181.76C181.68 53.0809 181.61 53.0209 181.61 52.9309C181.61 52.9309 181.61 52.9209 181.61 52.9109V46.9609C181.61 46.8809 181.66 46.8109 181.75 46.8009C181.76 46.8009 181.77 46.8009 181.78 46.8009H183.08C183.17 46.8009 183.24 46.8609 183.25 46.9509C183.25 46.9609 183.25 46.9709 183.25 46.9809V47.8909C183.59 47.1909 184.3 46.7609 185.08 46.7909C185.3 46.7909 185.35 46.7909 185.35 46.9909M188.69 45.5209V46.9309H189.86C189.95 46.9309 190.03 46.9909 190.04 47.0809C190.04 47.0909 190.04 47.1009 190.04 47.1109V48.1409C190.05 48.2309 189.99 48.3009 189.91 48.3209C189.9 48.3209 189.88 48.3209 189.87 48.3209H188.7V51.1009C188.7 51.4609 188.9 51.6709 189.35 51.6709H189.87C189.96 51.6609 190.03 51.7209 190.05 51.8109C190.05 51.8209 190.05 51.8309 190.05 51.8409V53.0009C190.05 53.1209 189.98 53.1709 189.87 53.1709H189.08C187.67 53.1709 187.02 52.4309 187.02 51.3309V48.3009H186.29C186.2 48.3109 186.13 48.2509 186.11 48.1709C186.11 48.1609 186.11 48.1409 186.11 48.1309V47.1009C186.1 47.0109 186.16 46.9309 186.26 46.9109C186.27 46.9109 186.28 46.9109 186.29 46.9109H187.04V45.5309C187.03 45.4409 187.09 45.3709 187.17 45.3509C187.18 45.3509 187.2 45.3509 187.21 45.3509H188.54C188.63 45.3509 188.7 45.4209 188.7 45.5109C188.7 45.5109 188.7 45.5209 188.7 45.5309M196.12 48.2509C196.12 48.3509 196.12 48.4409 195.98 48.4709L194.94 48.8409C194.82 48.8409 194.76 48.8409 194.72 48.7109C194.56 48.2709 194.11 47.9909 193.64 48.0409C193.1 48.0409 192.79 48.2509 192.79 48.5609C192.79 48.8709 193.01 48.9909 194.22 49.3109C195.62 49.6809 196.18 50.2909 196.18 51.2709C196.18 52.4809 195.2 53.2309 193.64 53.2309C192.08 53.2309 191.26 52.6709 190.94 51.7209C190.94 51.5809 190.94 51.5209 191.11 51.4509L192.03 51.0009C192.17 50.9309 192.24 51.0009 192.31 51.1409C192.52 51.6509 193.03 51.9609 193.58 51.9109C194.21 51.9109 194.56 51.7009 194.56 51.3609C194.56 51.0209 194.21 50.8509 193.09 50.5409C191.71 50.1809 191.13 49.5609 191.13 48.5809C191.13 47.3909 192.11 46.6209 193.57 46.6209C194.66 46.5109 195.7 47.1309 196.11 48.1509M206.65 44.9809V52.9409C206.65 53.0409 206.65 53.1109 206.47 53.1109H205.08C204.99 53.1109 204.91 53.0509 204.9 52.9509V49.8009H202.04V52.9609C202.04 53.0509 201.98 53.1209 201.89 53.1309C201.88 53.1309 201.87 53.1309 201.86 53.1309H200.43C200.34 53.1309 200.26 53.0709 200.25 52.9709V44.9809C200.25 44.8909 200.32 44.8109 200.42 44.8109C200.42 44.8109 200.43 44.8109 200.44 44.8109H201.86C201.95 44.8009 202.02 44.8609 202.04 44.9509C202.04 44.9609 202.04 44.9709 202.04 44.9809V48.1409H204.9V44.9809C204.9 44.8909 204.97 44.8109 205.07 44.8109H206.5C206.63 44.8109 206.68 44.8809 206.68 44.9809M209.67 49.1909V49.4009H211.86V49.1909C211.91 48.5909 211.46 48.0609 210.85 48.0109C210.25 47.9609 209.72 48.4109 209.67 49.0209C209.67 49.0809 209.67 49.1409 209.67 49.1909ZM209.67 50.5209V50.7609C209.58 51.2909 209.94 51.8009 210.48 51.8909C210.59 51.9109 210.71 51.9109 210.82 51.8909C211.32 51.9709 211.82 51.7009 212.02 51.2309C212.13 51.0509 212.18 51.0309 212.35 51.1109L213.25 51.5709C213.44 51.6609 213.45 51.7509 213.37 51.9209C212.87 52.8509 211.86 53.3809 210.81 53.2909C209.46 53.4709 208.23 52.5209 208.05 51.1809C208.03 51.0409 208.02 50.8909 208.03 50.7509V49.2809C207.97 47.9309 209.01 46.7809 210.36 46.7209C210.5 46.7209 210.65 46.7209 210.79 46.7409C212.11 46.6109 213.29 47.5709 213.42 48.8909C213.43 49.0109 213.43 49.1309 213.42 49.2609V50.2409C213.42 50.4109 213.36 50.5209 213.12 50.5209H209.68H209.67ZM218.36 46.9509V48.1709C218.36 48.3209 218.31 48.3709 218.15 48.3709H217.97C217.23 48.2809 216.54 48.7409 216.35 49.4609V52.9509C216.35 53.0409 216.29 53.1109 216.2 53.1209H214.76C214.68 53.1209 214.61 53.0609 214.61 52.9709C214.61 52.9709 214.61 52.9609 214.61 52.9509V47.0009C214.61 46.9209 214.66 46.8509 214.75 46.8409C214.76 46.8409 214.77 46.8409 214.78 46.8409H216.08C216.22 46.8409 216.25 46.9309 216.25 47.0209V47.9309C216.59 47.2309 217.3 46.8009 218.08 46.8309C218.31 46.8309 218.35 46.8309 218.35 47.0309M220.83 49.2209V49.4309H223.02V49.2209C223.07 48.6209 222.62 48.0909 222.01 48.0409C221.41 47.9909 220.88 48.4409 220.83 49.0509C220.83 49.1109 220.83 49.1709 220.83 49.2209ZM220.83 50.5509V50.7909C220.74 51.3209 221.1 51.8309 221.64 51.9209C221.75 51.9409 221.87 51.9409 221.98 51.9209C222.49 52.0009 222.98 51.7309 223.19 51.2609C223.29 51.0809 223.34 51.0609 223.51 51.1409L224.41 51.6009C224.6 51.6909 224.61 51.7809 224.53 51.9509C224.03 52.8809 223.02 53.4109 221.97 53.3209C220.62 53.4909 219.39 52.5309 219.23 51.1809C219.21 51.0409 219.21 50.9109 219.21 50.7709V49.3009C219.15 47.9509 220.19 46.8009 221.54 46.7409C221.68 46.7409 221.83 46.7409 221.97 46.7609C223.29 46.6309 224.47 47.5909 224.6 48.9109C224.61 49.0309 224.61 49.1509 224.6 49.2809V50.2609C224.6 50.4309 224.54 50.5409 224.3 50.5409H220.84L220.83 50.5509Z" fill="black"/>
</g>
</g>
<defs>
<clipPath id="clip0_5231_42856">
<rect width="230" height="65" fill="white"/>
</clipPath>
</defs>
</svg>
