<svg width="49" height="50" viewBox="0 0 49 50" fill="none" xmlns="http://www.w3.org/2000/svg">
<path d="M7.68818 42.3823C5.43363 40.2251 3.57646 37.6867 2.25455 34.7996C0.835319 31.7178 0 28.2387 0 24.6217V24.4757C0 10.9646 10.9646 0 24.4757 0C37.9868 0 49 10.9646 49 24.4757C49 24.6703 49 24.865 48.9513 25.0596H43.615C43.615 20.8505 42.2445 16.9821 39.8926 13.9004C37.638 10.9646 34.5563 8.71003 30.9393 7.48544L30.6473 7.19348L30.7933 6.65823L30.258 6.75555L29.9174 6.31761L29.6741 6.8042H29.0902L29.3335 7.2908L28.9929 7.72873L29.4795 7.87471L29.6255 8.40997L30.0634 8.11801L30.55 8.36131V7.82605C34.1751 9.00199 37.3055 11.2484 39.552 14.1923C41.8065 17.1768 43.1771 20.9479 43.1771 25.0596H41.6119C41.6119 20.4613 39.7547 16.3496 36.7135 13.4138C33.7777 10.5266 29.7147 8.71814 25.2137 8.57216L25.5056 8.28021L24.3784 7.89093L24.1351 6.715L23.1538 7.39623L22.0751 6.81231L21.9778 7.98825L20.8505 8.47484L21.7345 9.31016L21.3939 10.4861L22.5698 10.3401L23.3078 11.3214L23.9404 10.2915L25.1164 10.3401L24.7271 9.21284C29.2281 9.21284 33.3398 10.9727 36.2756 13.8598C39.2114 16.6983 41.0199 20.6154 41.0199 25.0677H37.6461C37.6461 22.5212 36.9081 20.1693 35.6917 18.2148C34.6617 16.601 33.2911 15.2304 31.6773 14.2004L32.2612 13.6165L31.3285 13.2272L31.1826 12.2459L30.2986 12.7325L29.4633 12.1973L29.3173 13.1786L28.336 13.5192L29.0172 14.3059L28.6766 15.2385L29.7066 15.1898L30.2418 16.0252L30.8257 15.1898L31.807 15.2872L31.7584 14.9952C33.1289 15.9278 34.2562 17.1524 35.1321 18.5717C36.3567 20.4288 37.0379 22.6347 37.0379 25.0839H32.5369C32.5369 23.3241 31.953 21.8075 30.9717 20.5829C30.1364 19.5043 29.0172 18.6771 27.6953 18.1337L28.0359 17.7445L27.452 17.5498L27.3547 16.8686L26.8194 17.2092L26.2842 16.8686L26.1869 17.5012L25.5543 17.6958L25.9922 18.1824L25.7976 18.815L26.4302 18.7663L26.7708 19.3016L27.16 18.7663L27.7926 18.8636L27.744 18.669C28.8712 19.1556 29.9012 19.9422 30.6311 20.8749C31.5151 22.0022 32.0503 23.47 32.099 25.0839H7.03939C7.08805 26.8924 7.42866 28.6604 7.97203 30.2743C8.6046 31.9854 9.43992 33.5506 10.5185 34.9699L10.7618 34.6779L10.9565 35.0185H11.3944L11.2484 35.4078L11.4917 35.7484L11.1024 35.8458L11.0051 36.2837L10.6645 36.0404L10.2752 36.1864V35.7971L9.88596 35.6025L10.1779 35.3105L10.1293 34.9699C9.0993 33.5506 8.2721 32.0341 7.68008 30.3716C7.14482 28.709 6.79609 26.9492 6.69877 25.0839H2.58705C2.63571 25.6192 2.63572 26.1625 2.68437 26.6978C2.73303 27.233 2.83036 27.7764 2.92767 28.263L3.07365 28.0684L3.26829 28.4576H3.70622L3.51158 28.8469L3.80354 29.1875L3.36561 29.2848L3.31695 29.6741L2.97633 29.4308L2.58705 29.6255L2.5384 29.1875L2.19778 29.0415L2.48974 28.7496L2.39242 28.3603L2.63572 28.409C2.5384 27.8251 2.44108 27.2817 2.39242 26.7464C2.34376 26.2112 2.2951 25.6678 2.2951 25.0839H0.486593C0.535252 28.5063 1.32191 31.6935 2.64382 34.6293C4.0144 37.5164 5.87157 40.1602 8.22344 42.3175H8.27209L8.66137 41.7822L9.00199 42.3661H9.63456L9.39126 42.95L9.78054 43.4366L9.14796 43.6313L9.05064 44.2638L8.51539 43.8746L7.93148 44.1665L7.88282 43.5339L7.29891 43.242L7.7855 42.804L7.68818 42.4148V42.3823Z" fill="url(#paint0_radial_4922_41611)"/>
<path d="M13.4141 31.2217V31.173C13.4141 30.6864 13.7547 30.2891 14.2494 30.2891H14.444C14.9306 30.2891 15.2793 30.6783 15.2793 31.173V31.2217C15.2793 31.6596 14.9387 32.057 14.444 32.057H14.2494C13.7628 32.057 13.4141 31.6677 13.4141 31.2217ZM13.4141 39.3965V33.9142C13.4141 33.4276 13.7547 33.0302 14.2494 33.0302H14.444C14.9306 33.0302 15.2793 33.4195 15.2793 33.9142V39.3965C15.2793 39.8831 14.9387 40.2805 14.444 40.2805H14.2494C13.7628 40.2805 13.4141 39.8912 13.4141 39.3965ZM19.5289 39.3965V32.0084H16.5445V31.173C16.5445 30.6864 16.9338 30.2891 17.4285 30.2891H24.476V31.1244C24.476 31.611 24.0867 32.0084 23.592 32.0084H21.5402V39.3965C21.5402 39.8831 21.1509 40.2805 20.6562 40.2805H20.3642C19.8777 40.2805 19.5289 39.8912 19.5289 39.3965ZM29.5609 38.0746L29.6095 38.1232C29.9015 38.1719 30.1448 38.3665 30.2908 38.6585C30.3881 38.9991 30.2908 39.291 30.0961 39.5425C29.9501 39.6884 29.8042 39.7858 29.6582 39.8831C29.1229 40.2723 28.4823 40.467 27.655 40.467C26.4304 40.467 25.4978 40.029 24.8652 39.1937C24.4273 38.5612 24.184 37.7258 24.184 36.6959C24.184 35.5199 24.476 34.5873 25.1166 33.9061C25.7573 33.2248 26.5359 32.8761 27.4685 32.8761C28.5471 32.8761 29.423 33.2167 30.015 33.9547C30.5016 34.49 30.8017 35.2766 30.899 36.2579C30.899 36.5499 30.8503 36.7445 30.6557 36.9392C30.5097 37.1338 30.3151 37.1825 30.0718 37.1825H26.1547C26.1547 37.7664 26.3007 38.2124 26.5926 38.553C26.8846 38.845 27.2739 38.991 27.7199 38.991C28.0119 38.991 28.2552 38.9423 28.4579 38.7477C28.5552 38.699 28.6526 38.6017 28.7012 38.4557C28.8959 38.1638 29.2365 38.0178 29.5852 38.0665L29.5609 38.0746ZM29.0256 36.0714C29.0256 35.4875 28.8796 35.0901 28.5877 34.7982C28.3444 34.5062 28.0038 34.3602 27.6064 34.3602C27.1685 34.3602 26.8197 34.5062 26.5764 34.7982C26.2845 35.0901 26.1872 35.5362 26.1872 36.0714H29.0256ZM37.687 35.3902H37.5897C37.2491 35.4875 36.9084 35.2929 36.7057 35.0009C36.657 34.8549 36.5597 34.7576 36.4624 34.709C36.2191 34.5143 35.9271 34.417 35.5784 34.417C35.0918 34.417 34.7431 34.563 34.4511 34.9036C34.1592 35.2442 34.0132 35.7876 34.0132 36.5661C34.0132 37.4014 34.1592 38.034 34.4511 38.3746C34.7431 38.7152 35.1324 38.9099 35.5784 38.9099C35.9677 38.9099 36.2596 38.8126 36.511 38.5693C36.6084 38.4719 36.7057 38.326 36.803 38.1313C36.949 37.7907 37.3383 37.5961 37.7356 37.6447L37.8816 37.6934C38.1249 37.7421 38.3682 37.888 38.4655 38.1313C38.6115 38.3746 38.6115 38.6666 38.4655 38.918C38.2709 39.2586 38.0276 39.5506 37.7275 39.802C37.1923 40.2399 36.4543 40.4832 35.5216 40.4832C34.443 40.4832 33.6158 40.1426 32.9751 39.4532C32.3345 38.7639 32.0425 37.888 32.0425 36.6634C32.0425 35.4388 32.3345 34.5549 32.9751 33.8736C33.6077 33.2411 34.443 32.8923 35.5216 32.8923C36.4056 32.8923 37.1355 33.087 37.6302 33.4762C37.8735 33.6222 38.0681 33.8169 38.2141 34.0115C38.4088 34.2548 38.4088 34.5468 38.3114 34.8468C38.2141 35.1469 37.9708 35.3334 37.6789 35.3821L37.687 35.3902ZM42.0907 31.1812V34.0196C42.7232 33.2816 43.4612 32.8923 44.3452 32.8923C44.7831 32.8923 45.1805 32.9897 45.5211 33.1356C45.8618 33.2816 46.1537 33.5249 46.3078 33.7682C46.5024 34.0115 46.6484 34.3035 46.6971 34.6035C46.7457 34.9036 46.7944 35.3902 46.7944 36.0228V39.3965C46.7944 39.8831 46.4051 40.2805 45.9104 40.2805H45.7158C45.2779 40.2805 44.8805 39.8912 44.8805 39.3965V36.4607C44.8805 35.674 44.8318 35.2361 44.7831 35.0415C44.6858 34.7982 44.5885 34.6522 44.3939 34.5549C44.1992 34.4089 43.9559 34.3602 43.7126 34.3602C43.372 34.3602 43.0801 34.4089 42.8287 34.6035C42.5854 34.7495 42.3907 34.9928 42.2934 35.2848C42.1474 35.5767 42.0988 36.0714 42.0988 36.6553V39.3965C42.0988 39.8831 41.7095 40.2805 41.2635 40.2805H41.0688C40.5822 40.2805 40.1848 39.8912 40.1848 39.3965V31.173C40.1848 30.6864 40.5741 30.2891 41.0688 30.2891H41.2635C41.7014 30.2891 42.0988 30.6783 42.0988 31.173L42.0907 31.1812ZM13.5519 49.7771V42.7783C13.5519 42.3404 13.9412 41.943 14.3386 41.943H14.3872C14.8252 41.943 15.1739 42.3323 15.1739 42.7783V48.4552H19.1396V48.9905C19.1396 49.4284 18.7504 49.7771 18.3043 49.7771H13.56H13.5519ZM21.3861 45.8114L21.0941 45.7627C20.8022 45.7141 20.5589 45.5194 20.4616 45.1788C20.4129 44.8869 20.5102 44.5463 20.8022 44.3435C21.1915 44.1002 21.7348 43.9542 22.4647 43.9542C23.1459 43.9542 23.6406 44.0516 23.9813 44.1975C24.3219 44.3435 24.5165 44.5382 24.6625 44.7815C24.8085 45.0247 24.8571 45.4627 24.8571 46.152V47.9119C24.8571 48.3985 24.8571 48.7958 24.9058 48.9905C24.9544 49.2338 25.0518 49.5257 25.1977 49.7771H24.2651C23.9245 49.7771 23.6325 49.5825 23.5271 49.2419L23.4784 49.1932C23.2351 49.4365 22.9432 49.6312 22.6431 49.7285C22.3512 49.8745 22.0592 49.9231 21.7105 49.9231C21.1266 49.9231 20.6805 49.7771 20.3399 49.4365C19.9993 49.1446 19.8047 48.7553 19.8047 48.2606C19.8047 47.92 19.902 47.628 20.048 47.3766C20.1939 47.1252 20.4372 46.9387 20.6805 46.7927C20.9725 46.6467 21.3618 46.5494 21.9051 46.4521C22.5864 46.3061 23.0811 46.2088 23.373 46.0628V45.9168C23.373 45.6249 23.2757 45.4302 23.1784 45.2843C23.0324 45.1869 22.7404 45.1383 22.3431 45.1383C22.0511 45.1383 21.8565 45.1869 21.7105 45.2843C21.5645 45.3816 21.4185 45.5762 21.3699 45.8195L21.3861 45.8114ZM23.3892 47.036C23.1946 47.1333 22.9026 47.182 22.4566 47.2793C22.0673 47.3766 21.7754 47.4739 21.6213 47.5226C21.4266 47.6686 21.3293 47.8632 21.3293 48.0578C21.3293 48.3011 21.4266 48.4471 21.5726 48.6418C21.7186 48.7877 21.9132 48.8364 22.1565 48.8364C22.4485 48.8364 22.6918 48.7391 22.9432 48.5931C23.1378 48.4471 23.2838 48.3011 23.3325 48.1065C23.3325 47.9605 23.3811 47.7172 23.3811 47.3198V47.0279L23.3892 47.036ZM26.2764 49.7771V41.8943H27.0144C27.4523 41.8943 27.801 42.2349 27.801 42.681V44.7328C28.2876 44.1975 28.831 43.9461 29.4635 43.9461C30.1448 43.9461 30.7368 44.1894 31.1747 44.6841C31.6613 45.2194 31.856 45.9087 31.856 46.89C31.856 47.8713 31.6127 48.6012 31.1747 49.1446C30.6881 49.6798 30.1448 49.9312 29.4635 49.9312C29.1716 49.9312 28.831 49.8339 28.5309 49.6879C28.1903 49.4933 27.947 49.2987 27.6956 48.9499V48.9986C27.6956 49.4365 27.355 49.7853 26.9089 49.7853H26.2764V49.7771ZM27.7929 46.7927C27.7929 47.4253 27.8902 47.8713 28.0362 48.1146C28.3282 48.5526 28.6688 48.7472 29.1148 48.7472C29.4554 48.7472 29.6987 48.6012 29.9501 48.3093C30.2016 48.0173 30.2908 47.5713 30.2908 46.9387C30.2908 46.3061 30.1934 45.8114 29.9501 45.5195C29.7068 45.2275 29.4149 45.1302 29.0662 45.1302C28.6769 45.1302 28.3849 45.2275 28.1335 45.5195C27.8821 45.8114 27.7929 46.2575 27.7929 46.7927ZM32.5372 48.1633L33.4698 48.0173C33.7618 47.9686 34.0538 48.1146 34.2565 48.3579C34.3052 48.4552 34.3538 48.5526 34.4511 48.6012C34.6458 48.7472 34.9377 48.8445 35.2865 48.8445C35.6757 48.8445 35.9677 48.7472 36.1704 48.6012C36.3164 48.5039 36.3651 48.4066 36.3651 48.2119C36.3651 48.1146 36.3164 48.0173 36.2678 47.92C36.1704 47.8713 36.0245 47.774 35.7812 47.7253C34.5566 47.482 33.778 47.2387 33.4293 46.9873C32.9914 46.6954 32.7481 46.2493 32.7481 45.7141C32.7481 45.2275 32.9427 44.7814 33.332 44.4408C33.7212 44.1002 34.3619 43.9542 35.1405 43.9542C35.919 43.9542 36.5111 44.1002 36.9003 44.3435C37.2896 44.5868 37.5329 44.9761 37.687 45.4708L36.8517 45.6168C36.5597 45.6654 36.2678 45.5681 36.065 45.3735L35.919 45.2275C35.7731 45.0815 35.5298 45.0329 35.181 45.0329C34.7918 45.0329 34.4998 45.0815 34.2971 45.2275C34.1997 45.2762 34.1511 45.3735 34.1511 45.5195C34.1511 45.6168 34.1997 45.7141 34.2971 45.7627C34.443 45.9087 34.881 46.006 35.7163 46.2007C36.5029 46.3953 37.0869 46.59 37.3788 46.8819C37.7194 47.1252 37.8654 47.5145 37.8654 48.0092C37.8654 48.5444 37.6708 48.9905 37.2328 49.3798C36.7949 49.7204 36.1542 49.915 35.2783 49.915C34.4917 49.915 33.9078 49.769 33.4212 49.4284C32.9832 49.1365 32.6832 48.6904 32.5372 48.1552V48.1633Z" fill="white"/>
<defs>
<radialGradient id="paint0_radial_4922_41611" cx="0" cy="0" r="1" gradientUnits="userSpaceOnUse" gradientTransform="translate(25.6137 24.1621) scale(34.7284 31.1967)">
<stop stop-color="#DEDEDE"/>
<stop offset="0.85" stop-color="#909090"/>
<stop offset="1" stop-color="#747474"/>
</radialGradient>
</defs>
</svg>
