<svg width="392" height="65" viewBox="0 0 392 65" fill="none" xmlns="http://www.w3.org/2000/svg">
<mask id="mask0_5231_42969" style="mask-type:luminance" maskUnits="userSpaceOnUse" x="0" y="0" width="392" height="65">
<path d="M391.92 0H0V65H391.92V0Z" fill="white"/>
</mask>
<g mask="url(#mask0_5231_42969)">
<path d="M4.22657 22.2503C4.22657 44.9503 4.21657 44.5503 5.07657 47.5103C7.32657 55.2403 13.7266 61.0503 21.7666 62.6503C23.8366 63.0503 28.0166 63.0203 30.0966 62.5703C33.1066 61.9203 35.3066 60.9803 37.8666 59.2903C45.7666 54.0003 49.2366 43.9803 46.3166 34.8203C45.2666 31.5703 43.5566 28.7803 41.0066 26.2203C37.8466 23.0403 34.1466 21.0703 29.7166 20.1903C27.6666 19.7903 23.6066 19.8203 21.5466 20.2703C18.0466 21.0303 14.8966 22.5103 12.1366 24.7303L11.6266 25.1303V6.26031L7.92657 3.79031L4.22657 1.32031V22.2503ZM29.2366 27.6803C33.1066 28.6803 36.4066 31.2903 38.2866 34.8203C42.0366 41.8203 39.2166 50.5403 32.0266 54.1303C29.2966 55.4903 25.9366 55.9303 23.0366 55.3303C17.7766 54.2403 13.7366 50.5303 12.1366 45.3203C11.7666 44.1003 11.7166 43.7203 11.7166 41.5003C11.6966 39.3703 11.7466 38.8603 12.0566 37.8003C13.3966 33.1403 16.8266 29.5003 21.3066 28.0103C22.0766 27.7503 23.1266 27.4703 23.6166 27.3903C24.9766 27.1703 27.8766 27.3303 29.2266 27.6803" fill="#333333"/>
<path d="M97.5784 22.5602C97.6284 46.2302 97.5684 44.7702 98.7084 48.1902C100.948 54.9102 106.418 60.2002 113.138 62.1502C114.608 62.5702 117.288 63.0102 118.408 63.0102H119.118V55.6502L117.888 55.5402C114.568 55.2602 111.198 53.6002 108.848 51.0802C107.148 49.2702 106.058 47.2402 105.348 44.6302C105.028 43.3702 105.008 43.1202 105.008 35.3202V27.3002L111.298 27.2502L117.578 27.2202V19.8202H104.928V6.1702L101.428 3.8602C99.5184 2.6002 97.8484 1.5002 97.7284 1.4402C97.5484 1.3302 97.5284 4.5202 97.5784 22.5702" fill="#333333"/>
<path d="M173.609 22.7081C173.659 43.7781 173.659 44.1281 173.979 45.5781C174.969 50.0781 176.799 53.4581 179.949 56.6181C181.649 58.2981 183.639 59.7781 185.429 60.6881C187.839 61.8881 191.009 62.7581 193.759 62.9581L195.159 63.0481V55.5981H194.429C193.319 55.5981 191.049 55.0781 189.739 54.5381C186.449 53.1681 183.509 50.2681 182.149 47.0781C181.899 46.4581 181.549 45.4781 181.359 44.8881C181.049 43.8281 181.049 43.4581 180.989 24.9981L180.939 6.18813L179.909 5.50813C179.339 5.11813 177.669 4.02812 176.209 3.06812L173.539 1.32812L173.599 22.7181L173.609 22.7081Z" fill="#FF2727"/>
<path d="M285.203 31.9386V62.5486H292.603V49.5786L295.683 45.7386C297.383 43.6086 298.793 41.8786 298.833 41.8786C298.873 41.8786 301.343 46.5186 304.343 52.2086L309.803 62.5386H314.073C316.433 62.5386 318.363 62.5086 318.363 62.4886C318.363 62.4586 315.143 56.4086 311.193 49.0686C307.243 41.7086 304.003 35.6486 303.993 35.5786C303.963 35.5186 306.773 31.9386 310.243 27.6386C313.693 23.3386 316.523 19.7886 316.523 19.7386C316.523 19.6886 314.413 19.6586 311.853 19.6586H307.163L300.003 28.5886C296.073 33.5086 292.803 37.5286 292.743 37.5286C292.663 37.5486 292.623 30.4786 292.623 21.8486V6.17859L291.113 5.18859C290.293 4.62859 288.633 3.53859 287.423 2.74859L285.223 1.30859V31.9386H285.203Z" fill="#FF2727"/>
<path d="M125.594 22.4796C125.594 45.6396 125.564 44.7596 126.554 47.8896C128.634 54.4696 133.914 59.8096 140.404 61.8896C143.044 62.7396 144.244 62.9196 147.114 62.9196C149.984 62.9196 151.264 62.7196 153.824 61.8996C159.254 60.1396 163.864 56.1596 166.474 50.9796C167.194 49.5496 168.124 46.6196 168.404 44.9496C168.714 43.0496 168.694 39.7096 168.384 37.8396C166.904 29.0296 160.244 22.1696 151.314 20.2396C149.244 19.8096 145.344 19.7596 143.284 20.1796C140.104 20.7996 136.734 22.2596 134.374 24.0496C133.654 24.6096 133.004 25.0496 132.954 25.0496C132.904 25.0496 132.864 20.7896 132.864 15.5796V6.1396L129.364 3.8596C127.454 2.5996 125.814 1.5296 125.744 1.5196C125.684 1.4896 125.624 10.9296 125.624 22.4896M150.684 27.6896C151.364 27.8796 152.554 28.3196 153.304 28.6896C162.284 33.1196 164.084 44.9096 156.834 51.7796C155.634 52.9096 154.724 53.5096 153.024 54.3096C150.824 55.3396 149.844 55.5396 147.054 55.5296C144.924 55.5096 144.524 55.4796 143.304 55.1096C138.104 53.5196 134.314 49.4496 133.214 44.2796C132.924 42.8796 132.924 39.9596 133.224 38.5396C134.444 32.8996 138.904 28.5496 144.624 27.4496C146.154 27.1596 149.084 27.2796 150.664 27.6796" fill="#FF2727"/>
<path d="M365.813 19.778C365.753 19.828 365.703 29.478 365.703 41.218V62.548H373.093L373.143 50.858C373.203 39.338 373.203 39.168 373.543 37.948C373.973 36.408 374.913 34.398 375.793 33.178C376.563 32.098 378.263 30.438 379.283 29.738C381.213 28.428 383.883 27.468 386.063 27.288L387.293 27.178V19.778L385.953 19.888C383.103 20.118 380.153 20.918 377.653 22.168C376.403 22.798 373.903 24.438 373.563 24.848C373.453 24.968 373.313 25.068 373.243 25.068C373.173 25.068 373.103 23.848 373.103 22.368V19.668H369.513C367.523 19.668 365.863 19.718 365.813 19.778Z" fill="#FF2727"/>
<path d="M69.7084 19.9796C64.6984 20.6096 60.5484 22.6596 56.9684 26.2896C53.8084 29.4796 52.0284 32.7496 51.0784 37.1496C50.5884 39.4596 50.5884 43.4696 51.0784 45.7196C51.5584 47.8496 52.2084 49.6696 53.1284 51.4296C56.1484 57.2096 61.6084 61.2796 68.1484 62.6396C70.0884 63.0396 74.3784 63.0396 76.3184 62.6396C86.0484 60.6196 93.0384 52.7096 93.7584 42.8396L93.8684 41.4196H86.4684L86.3584 42.6496C86.1784 44.8696 85.2584 47.4296 83.9584 49.3896C83.0984 50.6896 80.8384 52.8096 79.4884 53.5996C75.5284 55.9096 70.8984 56.2096 66.6284 54.4296C65.4084 53.9196 63.4084 52.5796 62.5584 51.6996L61.8984 51.0196L77.3184 42.7996C85.8184 38.2796 92.7584 34.4996 92.7584 34.3996C92.7584 33.9796 90.6884 30.1096 89.7984 28.8596C86.6884 24.4596 81.8884 21.3696 76.5184 20.2696C74.7484 19.9196 71.3784 19.7596 69.7184 19.9796M75.7184 27.6696C77.9284 28.2596 80.6184 29.7396 81.9384 31.1196L82.4584 31.6596L79.5484 33.1996C77.9584 34.0496 72.5584 36.9296 67.5484 39.5996L58.4484 44.4596L58.3084 44.0396C58.2284 43.8196 58.1684 42.5896 58.1684 41.3196C58.1684 39.2396 58.1984 38.8696 58.5884 37.6396C60.2184 32.2596 64.3884 28.4796 69.8284 27.4296C71.3384 27.1396 74.1284 27.2596 75.7184 27.6596" fill="#333333"/>
<path d="M215.909 19.9778C207.689 21.0078 200.809 26.5178 198.099 34.2078C197.219 36.7178 196.939 38.3978 196.939 41.4078C196.919 44.4478 197.109 45.6178 198.019 48.3478C200.439 55.6478 206.609 61.0078 214.429 62.6478C216.269 63.0278 220.609 63.0278 222.449 62.6478C231.289 60.7778 237.719 54.4078 239.599 45.6878C240.079 43.4378 240.079 39.3978 239.599 37.1478C238.659 32.7878 236.789 29.3578 233.649 26.2178C230.469 23.0278 226.769 21.0478 222.439 20.2178C220.899 19.9278 217.399 19.7978 215.919 19.9878M221.919 27.6778C223.279 28.0278 225.299 28.9378 226.439 29.7178C227.489 30.4378 229.179 32.1078 229.959 33.1878C232.179 36.2878 233.109 40.4778 232.359 44.0478C231.729 47.1478 230.369 49.5678 228.039 51.7778C225.199 54.4578 221.589 55.7878 217.679 55.5678C214.149 55.3678 211.279 54.1178 208.689 51.6178C206.609 49.6178 205.369 47.5178 204.629 44.7378C204.199 43.0878 204.229 39.5978 204.689 37.9878C206.289 32.3878 210.459 28.5178 216.019 27.4578C217.529 27.1678 220.319 27.2878 221.909 27.6878" fill="#333333"/>
<path d="M212.463 32.3175C211.333 33.0575 209.563 34.9075 209.023 35.9275L208.633 36.6375L215.923 43.9275L223.203 51.2075L223.933 50.8175C224.893 50.3275 227.343 47.8675 227.833 46.9175L228.223 46.1875L220.973 38.9375C216.983 34.9475 213.663 31.6875 213.573 31.6875C213.483 31.6875 212.983 31.9675 212.463 32.3075" fill="#FF2727"/>
<path d="M262.535 19.9975C258.895 20.4475 254.975 22.0375 252.125 24.2175C250.555 25.4175 248.255 27.8575 247.225 29.3975C245.495 31.9875 244.405 34.7975 243.845 37.9375C243.455 40.2475 243.525 43.7675 244.015 45.8975C245.975 54.4675 252.205 60.6375 260.855 62.5675C262.935 63.0275 266.945 63.0575 269.055 62.6475C270.735 62.3075 272.815 61.6275 274.355 60.9175C275.605 60.3475 278.085 58.7475 279.055 57.8775L279.645 57.3675L277.145 54.6275L274.665 51.8975L274.265 52.2675C273.505 52.9475 271.955 53.9175 270.685 54.4675C267.035 56.0375 262.405 55.9375 258.935 54.1875C255.945 52.6775 253.795 50.4975 252.335 47.4975C251.255 45.2775 250.905 43.5475 251.005 40.8675C251.095 38.4475 251.375 37.3375 252.345 35.3175C253.635 32.6475 255.285 30.8275 257.745 29.3175C262.585 26.3275 268.745 26.5875 273.455 29.9675C274.075 30.4175 274.645 30.7375 274.715 30.6575C274.775 30.5975 275.875 29.3575 277.155 27.9275L279.485 25.3075L278.975 24.8775C276.535 22.7475 272.595 20.8975 268.995 20.2075C267.405 19.8975 264.095 19.7875 262.515 19.9875" fill="#FF2727"/>
<path d="M337.589 19.9784C327.949 21.1984 320.379 28.3784 318.779 37.8484C318.459 39.7284 318.459 43.0784 318.779 44.9684C319.059 46.6684 319.999 49.5784 320.709 50.9784C323.749 57.0284 329.269 61.2084 336.119 62.6384C337.939 63.0184 342.169 63.0184 343.979 62.6384C350.829 61.2084 356.349 57.0384 359.389 50.9784C360.559 48.6684 361.559 44.7384 361.559 42.4484V41.3984H354.339L354.249 41.9684C354.199 42.2884 354.129 42.9684 354.079 43.4784C353.959 44.5784 353.349 46.5684 352.819 47.6384C351.799 49.6384 349.869 51.8684 348.069 53.1184C347.039 53.8284 344.709 54.8884 343.439 55.2184C342.609 55.4384 341.819 55.4984 339.969 55.4984C337.829 55.4784 337.439 55.4484 336.189 55.0684C333.969 54.3884 331.389 52.8784 330.069 51.4784L329.639 51.0284L345.059 42.8084C354.729 37.6584 360.479 34.5084 360.479 34.3684C360.479 33.9784 359.029 31.0184 358.239 29.8184C355.029 24.8484 350.069 21.4484 344.249 20.2684C342.479 19.8984 339.219 19.7584 337.589 19.9584M343.589 27.6484C345.789 28.2184 348.539 29.7584 349.879 31.1784L350.309 31.6284L338.359 37.9984C331.789 41.4984 326.359 44.3684 326.299 44.3784C325.869 44.4384 325.759 40.2484 326.149 38.4984C327.379 32.8184 331.819 28.5084 337.549 27.4084C339.089 27.1184 342.009 27.2384 343.599 27.6384" fill="#FF2727"/>
</g>
</svg>
