<svg width="173" height="49" viewBox="0 0 173 49" fill="none" xmlns="http://www.w3.org/2000/svg">
<mask id="mask0_4922_41642" style="mask-type:luminance" maskUnits="userSpaceOnUse" x="0" y="0" width="173" height="49">
<path d="M173 0H0V49H173V0Z" fill="white"/>
</mask>
<g mask="url(#mask0_4922_41642)">
<path d="M88.0435 23.9634C88.021 28.8031 84.9446 31.6601 80.3864 31.6601C75.0986 31.6601 71.7891 27.8607 71.7891 23.6543C71.7891 19.4478 75.1438 15.6484 80.1532 15.6484C82.9513 15.6484 85.0875 16.6661 87.1184 18.6035L85.945 19.6966C84.215 18.0155 82.154 17.126 80.1758 17.126C76.5127 17.126 73.3611 19.9303 73.3611 23.6015C73.3611 27.2727 76.3096 30.2278 80.409 30.2278C83.3048 30.2278 85.8773 28.494 86.306 25.4107H81.447V23.9332H88.036V23.9558L88.0435 23.9634ZM91.6765 25.6444C91.654 28.1397 93.6096 30.1826 96.0993 30.2354C98.6191 30.3107 100.725 28.3206 100.778 25.8027C100.853 23.2774 98.8673 21.1666 96.3551 21.1138C93.8353 21.0384 91.7292 23.0286 91.6765 25.5464V25.652M100.5 20.0207H101.921V31.3134H100.5V29.376C99.4089 30.7781 97.724 31.5923 95.9489 31.5923C92.692 31.4867 90.097 28.7654 90.2023 25.5012C90.3076 22.3426 92.8499 19.8172 96.0015 19.7418C97.8068 19.7192 99.4841 20.6087 100.5 22.1089V20.0207ZM114.279 31.2832H112.858V25.5012C112.858 24.6343 112.783 23.9181 112.752 23.3829C112.677 22.0561 111.534 21.0384 110.21 21.0912C109.165 21.0912 108.202 21.5737 107.562 22.418C106.75 23.4658 106.622 24.7851 106.622 26.4963V31.2907H105.171V19.9981H106.622V21.9355C107.615 20.4806 108.864 19.7192 110.488 19.7192C112.218 19.7192 113.437 20.6087 114.046 22.4481C115.039 20.6389 116.536 19.7192 118.191 19.7192C120.53 19.7192 122.034 21.4003 122.034 24.6117V31.2907H120.583V25.1243C120.583 24.28 120.477 23.6467 120.455 23.2397C120.379 22.2446 119.439 21.1214 117.912 21.1214C116.461 21.144 115.189 22.0637 114.708 23.4131C114.377 24.3554 114.249 25.3731 114.302 26.3681L114.279 31.2907V31.2832ZM135.461 25.6218C135.483 23.1266 133.505 21.0837 131.008 21.0309C128.563 20.9781 126.555 22.9457 126.532 25.3881V25.5917C126.532 28.0643 128.518 30.0771 130.985 30.0771C133.452 30.0771 135.438 28.0869 135.461 25.6143M126.638 31.2983H125.186V15.656H126.638V21.9506C127.706 20.5484 129.383 19.7041 131.166 19.7343C134.445 19.8398 137.018 22.5612 136.912 25.848C136.807 29.0066 134.265 31.5546 131.113 31.6074C129.308 31.6074 127.63 30.7178 126.638 29.2403V31.3058V31.2983ZM140.523 25.6369C140.5 28.1321 142.456 30.1751 144.945 30.2278C147.465 30.3032 149.571 28.3131 149.624 25.7952C149.699 23.2698 147.713 21.1591 145.201 21.1063C142.681 21.0309 140.575 23.0211 140.523 25.5389V25.6444M149.346 20.0132H150.767V31.3058H149.346V29.3684C148.255 30.7706 146.57 31.5847 144.795 31.5847C141.538 31.4792 138.943 28.7578 139.048 25.4711C139.154 22.3124 141.696 19.7871 144.848 19.7117C146.653 19.6891 148.33 20.5786 149.346 22.0787V20.0132ZM155.476 22.026C156.649 20.4957 158.041 19.7041 159.696 19.7041C162.163 19.7041 163.863 21.4154 163.863 24.9509V31.2983H162.411V25.1544C162.411 22.5009 161.569 21.0234 159.387 21.0234C158.214 21.0234 157.101 21.5812 156.409 22.5537C155.566 23.6467 155.446 24.77 155.446 26.5566V31.2983H153.994V20.0057H155.446L155.468 22.0184L155.476 22.026Z" fill="white"/>
<path d="M47.5514 37.6983C47.243 38.0074 46.9647 38.2562 46.6864 38.5125L46.4081 38.7386C46.1824 38.9196 45.9492 39.1231 45.7236 39.2965L45.4678 39.5C45.1595 39.7262 44.8586 39.9297 44.5502 40.1408L44.2945 40.2916C44.0387 40.4423 43.8131 40.6006 43.5348 40.7514L43.2264 40.9323C42.918 41.0831 42.6171 41.264 42.3087 41.3922L42.2335 41.4449C41.88 41.5957 41.549 41.754 41.188 41.9048L40.9322 42.0103C40.6539 42.1159 40.3455 42.2139 40.0447 42.3194L39.819 42.3948C39.4655 42.5003 39.0819 42.5983 38.6983 42.7039C38.6757 42.7039 38.6456 42.7265 38.593 42.7265C38.262 42.8019 37.9085 42.8772 37.5775 42.93L37.3218 42.9828L36.2537 43.1336H36.1785L35.0352 43.2089H33.5835C33.1999 43.2089 32.8689 43.1863 32.4928 43.1336L32.2371 43.1109C31.8084 43.0582 31.3947 43.0054 30.9659 42.93L30.3792 42.8019C30.0483 42.7265 29.6948 42.6511 29.3638 42.5456L28.9802 42.44L28.7771 42.3646L33.7866 37.3666C40.857 37.6455 46.8293 32.1199 47.085 25.0337C47.1903 22.4631 46.5284 19.9377 45.1519 17.744L42.0003 20.9026V28.622H36.7125V17.9702L45.2347 9.38386C46.0245 9.97186 46.7616 10.5825 47.4762 11.2685C54.8249 18.5582 54.8249 30.386 47.5514 37.6983ZM21.0297 37.7511C13.7562 30.4388 13.7562 18.6109 21.0297 11.3212L21.0523 11.2986C21.3306 11.0197 21.6089 10.7634 21.8947 10.5071L22.173 10.2809C22.3987 10.1 22.6318 9.89647 22.8349 9.72309L23.0907 9.51955C23.3991 9.2934 23.6999 9.08986 24.0083 8.87878L24.2641 8.72801C24.5198 8.57724 24.7455 8.41894 25.0238 8.26817L25.3321 8.08724C25.6405 7.93647 25.9414 7.75555 26.2498 7.6274L26.325 7.57463C26.6785 7.42386 27.0095 7.26555 27.3705 7.11478L27.6263 7.00924C27.9046 6.90371 28.213 6.80571 28.5138 6.70017L28.7395 6.62478C29.093 6.51924 29.4766 6.42125 29.8602 6.31571H29.9655C30.2965 6.24032 30.65 6.16494 30.981 6.11217L31.2367 6.0594L32.3048 5.90863H32.38L33.5233 5.83324H34.975C35.3586 5.83324 35.6896 5.85586 36.0657 5.90863L36.3214 5.93124C36.5997 5.95386 36.8555 6.00663 37.1338 6.03678L37.5926 6.11217C37.7957 6.13478 37.9762 6.18755 38.1793 6.24032C38.5102 6.31571 38.8638 6.39109 39.1947 6.49663L39.5783 6.60217L39.7814 6.67755L34.7719 11.6756C27.7015 11.3966 21.7292 16.8997 21.4434 24.0085C21.3155 26.6092 21.9775 29.1572 23.3539 31.3208L26.5055 28.1622V20.4428H31.7933V31.0946L23.2712 39.6809C22.4814 39.0929 21.7217 38.4597 21.0297 37.7436M34.2755 1.46094C21.5638 1.46094 11.2891 11.7811 11.2891 24.4985C11.2891 37.2159 21.5863 47.536 34.2755 47.536C46.9647 47.536 57.2619 37.2159 57.2619 24.4985C57.2845 11.7811 46.9872 1.46094 34.2755 1.46094Z" fill="#8A8A8A"/>
</g>
</svg>
