<svg width="214" height="65" viewBox="0 0 214 65" fill="none" xmlns="http://www.w3.org/2000/svg">
<path fill-rule="evenodd" clip-rule="evenodd" d="M8.81342 37.4802L9.66258 38.7867L8.02491 39.1821C6.74797 39.4922 5.46465 39.8022 4.18452 40.1059C2.89801 40.4159 1.6083 40.7164 0.318597 41.0074C-0.0804451 41.096 -0.0804453 41.2352 0.184519 41.5041C0.407983 41.735 0.625062 41.9786 0.842142 42.2222L2.55324 44.1297C8.74319 51.0228 14.9331 57.9191 21.1199 64.8185C21.2699 64.9862 21.3817 65.0368 21.6083 64.9672C22.9395 64.556 24.2739 64.1605 25.6083 63.7619L28.0664 63.0249L31.6259 61.9461L35.2652 60.8421L41.171 59.0706L45.602 57.7419C48.0249 57.027 50.4415 56.2963 52.8549 55.5465H52.8581L54.1893 55.1353L54.0712 55.0087C54.0074 54.936 53.9403 54.8632 53.8701 54.7968L53.6307 54.5785L53.6243 54.5754C51.7855 52.9019 49.9435 51.2316 48.1016 49.5645L46.2915 47.9417C45.088 46.8661 43.8845 45.7905 42.7097 44.6897C41.5062 43.5698 40.2835 42.4658 39.0481 41.3807L38.9938 41.3333L37.0784 39.625C37.1231 39.4321 37.2093 39.2517 37.3338 39.0967L37.3913 39.0145L41.0529 33.5955C45.2221 27.4205 49.3849 21.2424 53.5381 15.0579L57.0497 9.86039L59.3673 6.42491L62.3617 1.9803L63.6993 0L63.1886 0.502984C61.4998 2.2397 59.8047 3.97326 58.1095 5.70365L55.412 8.45899L48.2484 15.7981L42.0106 22.1882C38.5596 25.7249 35.1087 29.2617 31.6482 32.7857C31.5525 32.8869 31.4567 32.9913 31.3641 33.0989C31.0991 33.3994 30.831 33.6999 30.4543 33.8739L30.3394 33.8834C30.2564 33.8897 30.1734 33.8961 30.0936 33.915L29.669 34.0163C27.2396 34.5952 24.8102 35.1741 22.3841 35.7593L18.2819 36.759L16.4559 37.2082C16.1845 37.2398 15.9579 37.1228 15.7216 36.9931L15.1598 36.6894L12.2675 35.1203C10.2947 34.0511 8.31541 32.985 6.33616 31.9253C6.19889 31.8493 6.06162 31.7734 5.92754 31.6912C5.54446 31.4634 5.13903 31.2261 4.62826 31.0964L5.34015 32.172L6.83736 34.4433L8.81661 37.4802H8.81342ZM20.9475 39.7958C20.6698 39.6472 20.3888 39.4985 20.1111 39.3498C20.6762 39.122 21.2667 38.9955 21.8573 38.869C22.1638 38.8057 22.4703 38.7361 22.7735 38.657C23.661 38.4229 24.5548 38.2205 25.4487 38.0148L26.4256 37.7934C26.5054 37.7744 26.5852 37.7681 26.6682 37.7618L26.7831 37.7523L26.0074 38.5495L23.7504 40.8777C23.5684 41.0675 23.4248 41.1593 23.1375 40.9948C22.4128 40.5835 21.6849 40.1849 20.9475 39.7958ZM35.0385 42.5164C35.1598 42.3234 35.2779 42.1273 35.4663 41.9881L36.5357 42.9877C37.3146 43.7217 38.0968 44.4556 38.8917 45.1768C41.0114 47.1002 43.1375 49.0141 45.2636 50.9311L47.4471 52.8956L48.1175 53.4935L48.4814 53.813L47.2077 54.2084C46.2915 54.4931 45.404 54.7683 44.5166 55.0341L41.9212 55.8059L39.2652 56.5968C37.6626 57.0776 36.06 57.5648 34.4543 58.052L29.9754 59.4059L27.3513 60.1968C25.7743 60.6649 24.1973 61.1363 22.6267 61.6203C22.3234 61.7152 22.1606 61.6614 21.9563 61.4305L14.3011 52.9082L14.2947 52.9019L10.0712 48.2011L8.43034 46.3663C7.49179 45.3097 6.55324 44.2563 5.60192 43.2155C5.2763 42.8549 5.41677 42.7916 5.76473 42.7094C7.26513 42.3614 8.75915 42.0071 10.2564 41.6496H10.2595L10.8469 41.5104L11.1885 41.4187L11.3481 41.3744C11.8429 41.9533 12.2516 42.5986 12.6602 43.2408L13.139 43.9842C14.1319 45.4774 15.1119 46.9768 16.0888 48.4763L17.9531 51.3234C19.0321 52.9683 20.1175 54.607 21.1997 56.2456L21.2061 56.252L23.1151 59.1433C23.479 59.6938 23.5046 59.6843 23.8685 59.1433L26.3936 55.4073L29.2827 51.1304C31.1694 48.3213 33.0497 45.509 34.9268 42.6904L35.0385 42.5164Z" fill="#3B4753"/>
<path d="M155.237 47.9301C154.688 48.5628 154.078 49.1417 153.42 49.6605C151.131 51.3687 148.574 51.9856 145.778 51.6661C143.639 51.4225 141.621 50.8309 139.808 49.6035C137.57 48.1167 135.965 45.8675 135.291 43.283C133.969 38.386 134.57 33.6188 136.728 29.1109C138.605 25.1819 141.701 22.5563 145.829 21.3605C149.382 20.2849 153.21 20.4969 156.619 21.9552C158.79 22.8695 160.434 24.4037 161.408 26.6276C161.96 27.8803 162.161 29.209 162.238 30.5692C162.253 30.7907 162.183 30.8887 161.947 30.8856C160.45 30.8761 158.949 30.8792 157.452 30.8919C157.152 30.8919 157.139 30.7369 157.123 30.5218L157.12 30.4901C156.989 29.0033 156.475 27.6747 155.377 26.6624C154.308 25.6786 152.983 25.2136 151.582 25.0491C149.181 24.7643 146.898 25.106 144.868 26.5865C143.208 27.7981 142.04 29.4114 141.219 31.2873C139.885 34.2831 139.428 37.592 139.904 40.8345C140.274 43.3874 141.439 45.4848 143.802 46.6647C145.535 47.5283 147.38 47.658 149.261 47.3512C152.329 46.8514 154.273 44.9217 155.521 42.1315C155.824 41.4546 156.041 40.7491 156.258 40.0437L156.313 39.8728C156.434 39.4774 156.376 39.3604 155.939 39.3635C154.889 39.373 153.838 39.373 152.788 39.373C151.556 39.373 150.324 39.373 149.095 39.3888C148.558 39.3952 148.501 39.2212 148.606 38.7562C148.83 37.7692 149.031 36.7727 149.206 35.7762C149.27 35.4188 149.484 35.4219 149.72 35.4251H159.301C159.958 35.4282 160.622 35.4314 161.28 35.4251C161.596 35.4188 161.749 35.4377 161.657 35.8585C161.21 37.9621 160.779 40.0658 160.348 42.1695L159.818 44.735L159.428 46.6014C159.151 47.9301 158.873 49.2556 158.611 50.5874C158.538 50.9543 158.413 51.0872 158.036 51.0745C157.254 51.0461 156.469 51.0461 155.687 51.0777C155.304 51.0935 155.221 50.9448 155.23 50.5905C155.246 49.9958 155.243 49.4011 155.24 48.7652V48.7589L155.237 47.9301Z" fill="#3B4753"/>
<path fill-rule="evenodd" clip-rule="evenodd" d="M213.881 51.0978L212.613 51.0883C211.486 51.0756 210.363 51.0725 209.236 51.0788C208.821 51.0819 208.68 50.9681 208.62 50.5378C208.438 49.2503 208.243 47.9691 208.048 46.6848L207.608 43.7302C207.553 43.3505 207.454 43.1892 207.033 43.1924C203.515 43.2114 199.994 43.2082 196.476 43.1924C196.125 43.1924 195.952 43.3221 195.79 43.6131L193.948 46.8651L191.745 50.7656C191.611 51.0092 191.458 51.0725 191.205 51.0725H191.078C187.882 51.0598 184.684 51.063 181.488 51.0788C181.089 51.0819 180.977 50.8985 180.901 50.579C180.629 49.4148 180.699 48.238 180.795 47.0676C180.837 46.5298 180.897 45.992 180.955 45.4542C181.057 44.5368 181.159 43.6258 181.178 42.7084C181.201 41.8479 181.191 40.9875 180.687 40.2409C180.067 39.3172 179.113 39.023 178.11 38.9439C176.332 38.8015 174.551 38.8174 172.766 38.8332C171.866 38.8395 170.969 38.849 170.069 38.8332C169.747 38.8332 169.715 39.0293 169.683 39.2286L169.667 39.3298C169.213 41.56 168.76 43.7903 168.313 46.0205L168.032 47.3807C167.812 48.4595 167.592 49.5382 167.387 50.6201C167.32 50.9807 167.174 51.0788 166.835 51.0725C165.408 51.0535 163.978 51.0566 162.551 51.0756C162.168 51.0819 162.13 50.9554 162.2 50.6106C163.911 42.3256 165.59 34.0311 167.237 25.7334L167.672 23.6045L168.051 21.7634V21.7602C168.096 21.5387 168.125 21.3869 168.428 21.3901L173.303 21.4027C176.016 21.4027 178.727 21.409 181.437 21.4407C183.059 21.4628 184.652 21.7444 186.139 22.4941C188.02 23.4431 189.172 24.9521 189.571 27.0399C189.964 29.1025 189.817 31.1176 188.933 33.0378C188.09 34.8536 186.647 35.9513 184.834 36.5903C184.486 36.7074 184.131 36.8149 183.774 36.9067L183.209 37.0648C184.074 37.4413 184.786 37.9 185.3 38.6149C186.034 39.6304 186.225 40.823 186.273 42.044C186.312 43.1038 186.193 44.1477 186.072 45.1948C186.008 45.7737 185.941 46.3558 185.903 46.941C185.839 47.9185 185.788 48.896 185.948 49.8704L185.954 49.9115C186.002 50.1899 186.05 50.4809 186.264 50.7688L186.663 50.1076C186.947 49.6394 187.225 49.1807 187.496 48.7157L191.011 42.702C192.747 39.7284 194.487 36.758 196.227 33.7875V33.7812C198.446 30.0009 200.664 26.2206 202.851 22.4182C203.288 21.659 203.726 21.3015 204.626 21.3743C205.603 21.447 206.589 21.428 207.576 21.4059L208.438 21.3901C208.741 21.3869 208.853 21.4786 208.901 21.7918C209.296 24.2308 209.702 26.6698 210.114 29.1057L210.762 32.8575L210.765 32.8765L211.365 36.3562C211.924 39.6335 212.476 42.914 213.025 46.1945L213.134 46.8208C213.322 47.9565 213.514 49.0922 213.708 50.2278C213.724 50.3892 213.74 50.5537 213.881 50.6707V51.1009V51.0978ZM175.075 34.8916H177.893C179.011 34.8852 180.112 34.784 181.185 34.4234C183.707 33.5756 185.06 31.3232 184.613 28.6501C184.454 27.7011 183.997 26.9292 183.151 26.4294C182.072 25.7904 180.878 25.6797 179.678 25.6607C178.232 25.6417 176.789 25.6449 175.343 25.6512H173.517C172.441 25.6512 172.441 25.6512 172.227 26.7584L172.211 26.8217V26.828L172.195 26.9134L171.828 28.7292C171.442 30.6462 171.052 32.5633 170.653 34.4771C170.58 34.8409 170.685 34.8979 171.004 34.8947C172.013 34.8852 173.022 34.8884 174.034 34.8884H175.075V34.8916ZM205.201 26.6413L205.035 26.8944C204.961 27.0083 204.891 27.1253 204.824 27.2424L203.004 30.5418C201.482 33.294 199.962 36.0462 198.433 38.7984C198.235 39.1495 198.273 39.2413 198.676 39.2381C201.306 39.2254 203.933 39.2286 206.561 39.2381C206.867 39.2381 206.976 39.2065 206.918 38.8268C206.717 37.4602 206.532 36.0873 206.344 34.7144V34.6891C206.063 32.6107 205.772 30.5324 205.466 28.4571L205.462 28.4382C205.373 27.8498 205.287 27.2519 205.201 26.6413ZM134.085 33.7179C134.043 37.3559 133.494 40.5731 131.994 43.5688C130.525 46.5076 128.387 48.7695 125.45 50.1994C121.778 51.9867 117.964 52.2398 114.114 51.0471C110.746 50.0095 108.323 47.7793 106.963 44.4008C105.992 41.9998 105.826 39.5101 105.996 36.9573C106.238 33.3004 107.173 29.8744 109.338 26.8976C112 23.2438 115.585 21.2382 120.016 20.808C122.538 20.5613 124.99 20.8554 127.301 21.9626C130.758 23.6203 132.821 26.4452 133.718 30.2034C134.015 31.4592 134.088 32.7341 134.085 33.7179ZM121.156 24.9742C120.055 24.9236 118.826 25.1957 117.644 25.7334C115.448 26.7299 113.916 28.4318 112.856 30.5798C111.17 33.9868 110.599 37.5994 111.279 41.3608C111.601 43.1481 112.403 44.7425 113.861 45.8623C116.268 47.7161 118.976 47.8964 121.75 47.0106C124.086 46.2672 125.721 44.5653 126.886 42.4173C128.779 38.9218 129.399 35.1731 128.77 31.2283C128.514 29.596 127.873 28.1187 126.688 26.9577C125.201 25.5025 123.371 24.9489 121.156 24.9742Z" fill="#3B4753"/>
<path d="M103.103 31.2941H102.493C102.001 31.2878 101.507 31.2878 101.015 31.3005C100.677 31.3131 100.578 31.2056 100.568 30.8513C100.53 29.4688 100.191 28.1687 99.323 27.0773C98.2695 25.7582 96.833 25.1856 95.2241 25.0211C90.3462 24.5149 87.0517 27.3177 85.2927 31.3131C83.9806 34.2804 83.5241 37.5482 83.9774 40.7559C84.3126 43.255 85.4204 45.3271 87.671 46.5545C90.0557 47.8515 93.8705 47.9812 96.1945 45.9155C97.5896 44.6723 98.4611 43.0937 99.0038 41.3159C99.1538 40.835 99.3454 40.6515 99.8625 40.6674C101.168 40.7117 102.474 40.699 103.78 40.6737C104.188 40.6642 104.297 40.7591 104.188 41.1767C103.511 43.815 102.423 46.2255 100.495 48.171C97.8003 50.8915 94.4866 51.8849 90.7867 51.7235C88.2041 51.6096 85.7683 50.9643 83.6295 49.4142C81.0213 47.5288 79.5529 44.8937 78.9846 41.7271C78.5058 39.0825 78.6782 36.4379 79.1985 33.8186C79.7891 30.8386 80.9735 28.1434 82.9591 25.8436C84.6351 23.8822 86.8122 22.4018 89.2608 21.5571C91.9966 20.6018 94.7867 20.4942 97.5992 21.0573C99.9615 21.5318 102.043 22.5758 103.61 24.5149C105.124 26.3845 105.666 28.5863 105.689 30.9683C105.692 31.2847 105.535 31.3005 105.299 31.2973C104.769 31.2941 104.242 31.291 103.712 31.2941H103.103Z" fill="#3B4753"/>
<path fill-rule="evenodd" clip-rule="evenodd" d="M67.682 40.8201H65.6772C63.7331 40.8264 61.7889 40.8264 59.848 40.8106C59.3883 40.8043 59.2478 40.9593 59.2223 41.399C59.1138 43.2939 59.2159 45.1413 60.2534 46.8021C61.0962 48.1466 62.2965 48.9406 63.8289 49.2316C66.0507 49.6555 68.0842 49.2443 69.8688 47.7923C70.9669 46.897 71.7299 45.736 72.2119 44.3947C72.3333 44.0531 72.4897 43.9266 72.8472 43.9455C73.374 43.974 73.9007 43.9614 74.4306 43.9487H74.5711C74.8712 43.9392 75.018 43.9677 74.8967 44.3568C73.7155 48.0896 71.4554 50.6836 67.583 51.4523C65.2016 51.9205 62.836 51.8003 60.6206 50.5982C58.8169 49.6176 57.5814 48.1118 57.0834 46.1283C55.7746 40.896 56.777 36.1224 60.2566 32.0258C62.3827 29.5203 65.1824 28.4131 68.429 28.4922C70.2359 28.5365 71.9087 28.9889 73.3452 30.1372C75.018 31.4722 75.8512 33.2848 76.1353 35.3885C76.3269 36.812 76.2407 38.2356 76.1545 39.6591L76.113 40.3456C76.0938 40.741 75.9438 40.8327 75.5703 40.8296C73.5878 40.8169 71.6054 40.8201 69.6198 40.8201H67.682ZM66.5647 38.5298L68.2758 38.5266C69.8464 38.5234 71.4171 38.5203 72.9845 38.5424C73.4793 38.5487 73.623 38.3843 73.591 37.9097C73.5751 37.6662 73.5847 37.4194 73.591 37.1695C73.6038 36.9196 73.607 36.6665 73.5942 36.4166C73.4889 34.7653 72.9781 33.2911 71.7363 32.1555C69.7123 30.3049 66.0858 30.3397 63.7139 32.0448C61.6708 33.5126 60.4801 35.5625 59.7714 37.9603C59.6373 38.419 59.7331 38.5424 60.1992 38.5361C61.757 38.5234 63.3181 38.5266 64.8791 38.5266L66.5647 38.5298Z" fill="#00529A"/>
<path fill-rule="evenodd" clip-rule="evenodd" d="M35.4918 42.0507L9.66258 38.7892L8.02491 39.1846C6.74797 39.4946 5.46465 39.8047 4.18452 40.1083C2.89801 40.4184 1.6083 40.7189 0.318598 41.0099C-0.0804451 41.0985 -0.0804453 41.2377 0.184519 41.5066C0.407983 41.7375 0.625062 41.9811 0.842142 42.2247L2.55324 44.1322C8.74319 51.0253 14.9331 57.9216 21.1199 64.821C21.2699 64.9887 21.3817 65.0393 21.6083 64.9697C22.9395 64.5584 24.2739 64.163 25.6083 63.7644L28.0664 63.0273L31.6259 61.9486L35.2652 60.8446L41.171 59.0731L45.602 57.7444C48.0249 57.0295 50.4415 56.2987 52.855 55.549H52.8582L54.1894 55.1378L54.0712 55.0112C54.0074 54.9385 53.9404 54.8657 53.8701 54.7993L53.6307 54.581L53.6243 54.5778C51.7855 52.9044 49.9435 51.2341 48.1016 49.567L46.2915 47.9441C45.088 46.8686 43.8845 45.793 42.7097 44.6921C41.5062 43.5723 40.2835 42.4683 39.0481 41.3832L38.9938 41.3358L37.072 39.656L35.4918 42.0507ZM5.76473 42.7118C6.13504 42.6264 7.7376 42.2405 9.99778 41.6964C10.5309 41.5667 10.8884 41.4971 11.3322 41.3769C11.3928 41.3611 9.60193 38.7671 9.66258 38.7892C9.66577 38.7892 35.4918 42.0507 35.4918 42.0507C35.6514 42.0886 38.8374 45.1319 38.8917 45.1793C41.0114 47.1027 43.1375 49.0165 45.2636 50.9336L47.4471 52.8981L48.1175 53.4959L48.4815 53.8155L47.2077 54.2109C46.2915 54.4956 45.404 54.7708 44.5166 55.0365L41.9212 55.8084L39.2652 56.5993C37.6626 57.0801 36.0601 57.5673 34.4543 58.0544L29.9755 59.4084L27.3513 60.1992C25.7743 60.6674 24.1973 61.1388 22.6267 61.6228C22.3234 61.7177 22.1606 61.6639 21.9563 61.433L14.3011 52.9107L14.2947 52.9044L10.0712 48.2035L8.43034 46.3688C7.49179 45.3122 6.55324 44.2588 5.60192 43.218C5.2763 42.8574 5.41677 42.7941 5.76473 42.7118Z" fill="#00529A"/>
<path fill-rule="evenodd" clip-rule="evenodd" d="M30.4021 33.8633L16.3047 37.2228L20.1068 39.4151L26.7788 37.7511L30.4021 33.8633Z" fill="#00529A"/>
</svg>
