<svg width="230" height="65" viewBox="0 0 230 65" fill="none" xmlns="http://www.w3.org/2000/svg">
<g clip-path="url(#clip0_5231_42832)">
<mask id="mask0_5231_42832" style="mask-type:luminance" maskUnits="userSpaceOnUse" x="0" y="0" width="230" height="65">
<path d="M230 0H0V65H230V0Z" fill="white"/>
</mask>
<g mask="url(#mask0_5231_42832)">
<path d="M2.0625 31.3912C2.0625 21.1812 6.5125 16.0312 13.5425 16.0312C18.4025 16.0312 22.0825 18.4012 23.1025 23.7512L23.2625 24.6112L19.0925 25.5112L18.9325 24.7412C18.1525 21.1512 16.1525 19.7612 13.4625 19.7612C9.6625 19.7612 6.6425 23.0712 6.6425 31.1112C6.6425 38.7113 9.3825 41.8912 13.2225 41.8912C15.9625 41.8912 19.1425 40.4612 19.1425 35.4412V34.5813H13.1425V31.0312H23.3125V45.1212H19.6725L19.4225 41.6513C18.0725 44.4713 15.4225 45.6112 12.3125 45.6112C6.1025 45.6112 2.0625 40.6612 2.0625 31.3912Z" fill="black"/>
<path d="M38.9856 43.1514C37.7156 44.5014 36.0456 45.5614 33.3456 45.6014C29.5056 45.6014 27.0156 43.0314 27.0156 39.7214C27.0156 36.1314 29.9956 34.3714 32.6156 33.6314L38.9456 31.8314V31.0914C38.9456 28.8014 37.5156 27.6614 35.2656 27.6614C33.1856 27.6614 31.5056 28.9714 30.7756 30.4414L30.6556 30.6914L27.4256 28.9714L27.6356 28.5614C28.5356 26.7214 31.0256 24.1914 35.6356 24.1914C40.2456 24.1914 43.1956 26.5214 43.1956 30.7214V41.4614C43.1956 42.4814 43.2356 43.8314 43.4456 44.7314L43.5256 45.1014H39.2756L39.2356 44.8914C39.1156 44.3214 39.0256 43.7514 38.9856 43.1414V43.1514ZM34.4556 42.3714C36.3356 42.3714 38.0056 41.2714 38.9456 40.0814V34.9314L34.5356 36.2814C32.8656 36.8114 31.3856 37.6714 31.3856 39.4314C31.3856 41.1914 32.5756 42.3714 34.4456 42.3714H34.4556Z" fill="black"/>
<path d="M67.8497 27.8831C66.1797 27.8831 64.4197 29.0231 63.4397 30.0031V45.1131H59.1897V31.0231C59.1897 28.9431 58.1297 27.8731 56.0897 27.8731C54.4197 27.8731 52.6597 29.0131 51.6797 29.9931V45.1031H47.4297V24.6931H51.4697V26.9431C53.0197 25.3131 55.2297 24.2031 57.5097 24.2031C60.3697 24.2031 62.0797 25.5131 62.8997 27.3031C64.4497 25.4631 66.8197 24.2031 69.2697 24.2031C73.4797 24.2031 75.1897 27.0231 75.1897 30.0831V45.1131H70.9397V31.0231C70.9397 28.9431 69.8797 27.8731 67.8397 27.8731L67.8497 27.8831Z" fill="black"/>
<path d="M83.9062 43.2295L83.4962 45.1095H79.9062V16.5195H84.1562V26.3595C85.3863 24.9695 87.2562 24.1895 89.2162 24.1895C93.8762 24.1895 97.0163 27.6595 97.0163 34.6095C97.0163 41.5595 93.7063 45.5995 89.0563 45.5995C86.9763 45.5995 85.0563 44.7395 83.9062 43.2295ZM88.2363 42.1695C90.6463 42.1695 92.6862 39.9595 92.6862 34.7395C92.6862 29.5195 90.5662 27.6695 88.1562 27.6695C86.5262 27.6695 85.1762 28.4895 84.1562 29.5495V40.2095C85.2162 41.3095 86.6063 42.1695 88.2363 42.1695Z" fill="black"/>
<path d="M100.523 16.5195H104.773V45.1095H100.523V16.5195Z" fill="black"/>
<path d="M108.531 35.1931C108.531 28.7431 111.761 24.2031 117.391 24.2031C121.351 24.2031 125.521 26.5731 125.521 33.9231V35.8431H112.701V36.0931C112.701 40.0531 114.781 42.2631 117.561 42.2631C119.361 42.2631 120.871 41.5231 121.891 39.6931L122.141 39.2431L125.491 40.6731L125.291 41.0831C123.781 44.1031 121.081 45.6131 117.451 45.6131C112.301 45.6131 108.551 41.9731 108.551 35.1931H108.531ZM121.521 33.0331V32.7431C121.521 29.0231 119.561 27.6331 117.401 27.6331C115.241 27.6331 113.111 29.2631 112.741 33.0231H121.521V33.0331Z" fill="black"/>
<path d="M136.796 16.5195H142.966L151.056 45.1095H146.526L144.526 37.5995H135.056L133.056 45.1095H128.766L136.816 16.5195H136.796ZM143.536 34.0795L139.776 20.0295L136.016 34.0795H143.526H143.536Z" fill="#EF681C"/>
<path d="M149.979 24.6914H154.229L157.579 39.2714L161.299 24.6914H165.299L168.939 39.2714L172.409 24.6914H176.289L171.019 45.1114H166.809L163.129 30.5714L159.409 45.1114H155.239L149.969 24.6914H149.979Z" fill="#EF681C"/>
<path d="M188.814 43.1514C187.544 44.5014 185.874 45.5614 183.174 45.6014C179.334 45.6014 176.844 43.0314 176.844 39.7214C176.844 36.1314 179.824 34.3714 182.444 33.6314L188.774 31.8314V31.0914C188.774 28.8014 187.344 27.6614 185.094 27.6614C183.014 27.6614 181.334 28.9714 180.604 30.4414L180.484 30.6914L177.254 28.9714L177.464 28.5614C178.364 26.7214 180.854 24.1914 185.464 24.1914C190.074 24.1914 193.024 26.5214 193.024 30.7214V41.4614C193.024 42.4814 193.064 43.8314 193.274 44.7314L193.354 45.1014H189.104L189.064 44.8914C188.944 44.3214 188.864 43.7514 188.814 43.1414V43.1514ZM184.284 42.3714C186.164 42.3714 187.834 41.2714 188.774 40.0814V34.9314L184.364 36.2814C182.684 36.8114 181.214 37.6714 181.214 39.4314C181.214 41.1914 182.404 42.3714 184.274 42.3714H184.284Z" fill="#EF681C"/>
<path d="M197.156 24.6923H201.116V28.5323C203.816 25.3823 206.226 24.4523 208.266 24.4023V28.3623C205.406 28.3623 203.156 29.9523 201.406 31.5523V45.1123H197.156V24.6923Z" fill="#EF681C"/>
<path d="M208.703 35.1931C208.703 28.7431 211.933 24.2031 217.563 24.2031C221.523 24.2031 225.693 26.5731 225.693 33.9231V35.8431H212.873V36.0931C212.873 40.0531 214.953 42.2631 217.733 42.2631C219.533 42.2631 221.043 41.5231 222.063 39.6931L222.313 39.2431L225.663 40.6731L225.463 41.0831C223.953 44.1031 221.253 45.6131 217.623 45.6131C212.473 45.6131 208.723 41.9731 208.723 35.1931H208.703ZM221.693 33.0331V32.7431C221.693 29.0231 219.733 27.6331 217.563 27.6331C215.393 27.6331 213.273 29.2631 212.903 33.0231H221.683L221.693 33.0331Z" fill="#EF681C"/>
</g>
</g>
<defs>
<clipPath id="clip0_5231_42832">
<rect width="230" height="65" fill="white"/>
</clipPath>
</defs>
</svg>
